<?xml version="1.0" encoding="utf-8"?>
<!-- Generator: Adobe Illustrator 22.1.0, SVG Export Plug-In . SVG Version: 6.00 Build 0)  -->
<svg version="1.1" id="Layer_1" xmlns="http://www.w3.org/2000/svg" xmlns:xlink="http://www.w3.org/1999/xlink" x="0px" y="0px"
	 viewBox="0 0 110 100" style="enable-background:new 0 0 110 100;" xml:space="preserve">
<style type="text/css">
	.st0{fill:#FCFCFC;}
</style>
<g>
	<path class="st0" d="M55,8C31.8,8,13,26.8,13,50s18.8,42,42,42s42-18.8,42-42S78.2,8,55,8z M74.2,62.9v-6c0.8,0,1.5-0.7,1.5-1.5
		s-0.7-1.5-1.5-1.5v-6c0.8,0,1.5-0.7,1.5-1.5c0-0.8-0.7-1.5-1.5-1.5v-6c0.2,0,0.4,0,0.6-0.1c0.5-0.2,0.9-0.7,0.9-1.3v-0.1
		c0-0.8-0.7-1.5-1.5-1.5v0.1l-0.1-0.1l-2.9-2.9l-0.4-0.4c0.1,0,0.2,0,0.2,0.1c0,0,0.1,0,0.1,0c0,0,0.1,0,0.1,0
		c0.3,0,0.6,0.1,0.9,0.1c0.2,0,0.3,0,0.5,0h1.6c1.7,0,3.3,0,4.6,0v36.2c0,2.5-2.1,4.5-4.6,4.5v-7.5c0.8,0,1.5-0.7,1.5-1.5
		S75.1,62.9,74.2,62.9z M31,76.5V31.2c0-2.5,2.1-4.5,4.6-4.5h21.7c0,0.5,0,1,0,1.5c0,0.5,0,1,0,1.5v3c0,0.3,0,0.5,0,0.8
		c0,0.2,0.1,0.4,0.1,0.6c0,0,0,0,0,0.1H35.6c-0.8,0-1.5,0.7-1.5,1.5s0.7,1.5,1.5,1.5h23.2c0.2,0.2,0.3,0.4,0.5,0.5
		c0.1,0.1,0.2,0.2,0.3,0.3c0.1,0.1,0.2,0.2,0.3,0.3c0.2,0.2,0.4,0.3,0.6,0.5c0.1,0,0.1,0.1,0.2,0.2c0.1,0,0.1,0.1,0.2,0.1
		c0.1,0.1,0.2,0.2,0.4,0.2c0.1,0.1,0.2,0.1,0.4,0.2c0.1,0,0.2,0.1,0.3,0.2c0.4,0.2,0.8,0.3,1.2,0.4c0.1,0,0.2,0,0.2,0.1
		c0.1,0,0.2,0,0.3,0c0.3,0,0.6,0.1,1,0.1c0.2,0,0.3,0,0.5,0h1.5c1.7,0,3.3,0,4.6,0v36.2c0,2.5-2.1,4.5-4.6,4.5H35.6
		C33.1,81,31,79,31,76.5z M43.3,19.1H65c0,1.3-0.1,2.8-0.1,4.5v3h-0.1l-3.1-3h-23C38.7,21.2,40.8,19.1,43.3,19.1z M65,37.2
		c-1.4,0-2.6-0.6-3.5-1.5c-0.4-0.4-0.7-0.9-0.9-1.5c-0.2-0.5-0.3-1-0.3-1.5v-6.2l0.1,0.1l9.3,9l1.4,1.4l0.1,0.1
		C71.3,37.2,65,37.2,65,37.2z M72.7,29.7c-0.7,0-1.4-0.2-2-0.5c-0.6-0.2-1.1-0.6-1.4-1c-0.3-0.3-0.5-0.7-0.7-1.1
		c-0.1-0.1-0.1-0.3-0.2-0.5c-0.2-0.5-0.3-1-0.3-1.5V19l0.1,0.1l10.7,10.4l0.1,0.1H72.7z"/>
	<path class="st0" d="M66.5,73.4c0.9,0,1.5-0.7,1.5-1.5c0-0.8-0.7-1.5-1.5-1.5H35.6c-0.8,0-1.5,0.7-1.5,1.5c0,0.8,0.7,1.5,1.5,1.5
		H66.5z"/>
	<path class="st0" d="M35.6,64.4h30.9c0.9,0,1.5-0.7,1.5-1.5s-0.7-1.5-1.5-1.5H35.6c-0.8,0-1.5,0.7-1.5,1.5S34.8,64.4,35.6,64.4z"/>
	<path class="st0" d="M35.6,55.3h30.9c0.9,0,1.5-0.7,1.5-1.5s-0.7-1.5-1.5-1.5H35.6c-0.8,0-1.5,0.7-1.5,1.5S34.8,55.3,35.6,55.3z"/>
	<path class="st0" d="M35.6,46.3h30.9c0.9,0,1.5-0.7,1.5-1.5s-0.7-1.5-1.5-1.5H35.6c-0.8,0-1.5,0.7-1.5,1.5S34.8,46.3,35.6,46.3z"/>
	<path class="st0" d="M55,0C27.4,0,5,22.4,5,50s22.4,50,50,50s50-22.4,50-50S82.6,0,55,0z M55,96C29.6,96,9,75.4,9,50S29.6,4,55,4
		s46,20.6,46,46S80.4,96,55,96z"/>
</g>
</svg>
