<?xml version="1.0" encoding="utf-8"?>
<!-- Generator: Adobe Illustrator 22.1.0, SVG Export Plug-In . SVG Version: 6.00 Build 0)  -->
<svg version="1.1" id="Layer_1" xmlns="http://www.w3.org/2000/svg" xmlns:xlink="http://www.w3.org/1999/xlink" x="0px" y="0px"
	 viewBox="0 0 85.7 77.7" style="enable-background:new 0 0 85.7 77.7;" xml:space="preserve">
<style type="text/css">
	.st0{fill:#55A2D7;}
</style>
<path class="st0" d="M80,31.1H63c-0.7-3.1-1.7-6.1-2.9-8.9c-1.1-2.5-2.3-4.9-3.6-7.2c-2.7-4.7-7.3-8-12.7-8.9L9,0
	C7.8-0.2,6.7,0.6,6.5,1.8C6.3,3,7.1,4.1,8.3,4.3l34.8,6c4,0.7,7.6,3.2,9.6,6.8c1.2,2.2,2.4,4.5,3.4,6.8c1,2.3,1.8,4.7,2.4,7.2H43.9
	c0.2-0.5,0.4-1,0.5-1.6c0.3-1.2-0.4-2.4-1.5-2.7s-2.4,0.4-2.7,1.5c-0.3,1.1-0.8,2.2-1.5,3.2c-2.1-1.3-3.9-3.1-5.2-5.1
	c-0.7-1-2.1-1.3-3.1-0.6c-1,0.7-1.3,2.1-0.6,3.1c1.8,2.6,4.1,4.8,6.7,6.5l11.2,7.1c1.8,1.1,2.3,3.5,1.2,5.3
	c-1.1,1.8-3.5,2.3-5.3,1.2l0,0L35,43.7c-3.4-2.1-7.4-3.2-11.4-3.1c-5.5,0.2-10.7-2.5-13.8-7L9.4,33c-1.6-2.3-3.6-4.3-6-5.8
	c-1-0.6-2.4-0.3-3,0.7C-0.3,29,0,30.3,1,31c1.9,1.2,3.5,2.7,4.7,4.5l0.4,0.6c2.2,3.3,5.4,5.8,9.1,7.3L14.7,44
	c-2.7,2.7-2.7,7.1-0.1,9.8c0.8,0.8,1.8,1.4,2.9,1.7c-0.8,3.6,1.5,7.2,5.1,8c1.2,0.3,2.5,0.2,3.7-0.2l0.3-0.1V72
	c0,3.1,2.5,5.7,5.7,5.7l0,0H80c3.1,0,5.7-2.5,5.7-5.7l0,0V36.8C85.7,33.7,83.2,31.1,80,31.1z M44.8,35.5H80c0.7,0,1.3,0.6,1.3,1.3
	v6.1h-28c-0.6-1.7-1.8-3.1-3.3-4.1L44.8,35.5z M17.8,47.1l2.4-2.3c1.2,0.2,2.4,0.2,3.6,0.2c1,0,1.9,0,2.9,0.2v2.4l-0.1,0.1l-5.5,3.4
	c-1.2,0.8-2.8,0.4-3.5-0.7C16.7,49.3,16.9,47.9,17.8,47.1L17.8,47.1z M24.8,59.2c-1.2,0.4-2.5-0.2-3-1.4c-0.3-1,0-2.1,1-2.7l0.1-0.1
	c0.1-0.1,0.2-0.1,0.3-0.2l3.4-2.1v5.8L24.8,59.2z M80,73.4H32.3c-0.7,0-1.3-0.6-1.3-1.3l0,0V46.5c0.6,0.3,1.2,0.6,1.7,0.9l8.6,5.4
	c1.3,0.8,2.8,1.3,4.4,1.3c0.7,0,1.3-0.1,2-0.2c2.2-0.5,4-1.9,5.1-3.8c0.5-0.8,0.8-1.7,1-2.7h27.6V72C81.4,72.8,80.8,73.4,80,73.4
	C80,73.4,80,73.4,80,73.4z"/>
</svg>
