<?xml version="1.0" encoding="utf-8"?>
<!-- Generator: Adobe Illustrator 22.1.0, SVG Export Plug-In . SVG Version: 6.00 Build 0)  -->
<svg version="1.1" id="Layer_1" xmlns="http://www.w3.org/2000/svg" xmlns:xlink="http://www.w3.org/1999/xlink" x="0px" y="0px"
	 viewBox="0 0 85.7 85.7" style="enable-background:new 0 0 85.7 85.7;" xml:space="preserve">
<style type="text/css">
	.st0{fill:#5CCB92;}
	.st1{fill:none;stroke:#5CCB92;stroke-width:2.8346;stroke-linecap:round;stroke-miterlimit:10;}
</style>
<g>
	<g>
		<g>
			<path class="st0" d="M42.9,85.7c-18.7,0-36-12.4-41.3-31.3C-4.8,31.6,8.6,8,31.3,1.6c10.4-2.9,21.5-1.8,31.1,3.2
				c1.2,0.6,1.6,2,1,3.2c-0.6,1.2-2.1,1.6-3.2,1c-8.6-4.4-18.4-5.4-27.7-2.8C12.4,11.8,0.5,32.9,6.2,53.1
				c5.7,20.2,26.7,32.1,46.9,26.4c20.2-5.7,32.1-26.7,26.4-46.9c-1.1-3.9-2.8-7.6-5-10.9c-0.7-1.1-0.4-2.6,0.7-3.3
				c1.1-0.7,2.6-0.4,3.3,0.7c2.5,3.8,4.4,7.9,5.6,12.3c6.4,22.8-7,46.5-29.7,52.8C50.6,85.2,46.7,85.7,42.9,85.7z"/>
		</g>
		<g>
			<g>
				<path class="st1" d="M98.5,48.9"/>
			</g>
		</g>
	</g>
	<g>
		<g>
			<path class="st0" d="M23.1,72.7l3.6-37.1c0.1-1.3,1.3-2.3,2.6-2.2c1.3,0.1,2.3,1.3,2.2,2.6l-2.7,27.6l26.4-15.9
				c1.1-0.7,2.6-0.3,3.3,0.8c0.7,1.1,0.3,2.6-0.8,3.3L23.1,72.7z"/>
		</g>
		<g>
			<path class="st0" d="M29.2,64.3c-0.5,0-1-0.2-1.5-0.5c-1-0.8-1.2-2.3-0.4-3.4L67.7,9.9c0.8-1,2.3-1.2,3.4-0.4
				c1,0.8,1.2,2.3,0.4,3.4L31.1,63.4C30.6,64,29.9,64.3,29.2,64.3z"/>
		</g>
	</g>
</g>
</svg>
