<?xml version="1.0" encoding="utf-8"?>
<!-- Generator: Adobe Illustrator 22.1.0, SVG Export Plug-In . SVG Version: 6.00 Build 0)  -->
<svg version="1.1" id="Layer_1" xmlns="http://www.w3.org/2000/svg" xmlns:xlink="http://www.w3.org/1999/xlink" x="0px" y="0px"
	 viewBox="0 0 120 120" style="enable-background:new 0 0 120 120;" xml:space="preserve">
<style type="text/css">
	.st0{fill:#1880B6;}
	.st1{fill:#8ED9EF;stroke:#324249;stroke-width:2;stroke-linecap:round;stroke-linejoin:round;}
	.st2{fill:#F2F0DA;stroke:#324249;stroke-width:2;stroke-linecap:round;stroke-linejoin:round;}
</style>
<rect id="Call_to_Action" y="0" class="st0" width="120" height="120"/>
<g transform="translate(1 7)">
	<path class="st1" d="M34,74h-3c-1.7,0-3-1.3-3-3V35c0-1.7,1.3-3,3-3h3"/>
	<path class="st1" d="M84,32h3c1.7,0,3,1.3,3,3v36c0,1.7-1.3,3-3,3h-3"/>
	<path class="st1" d="M37,28h44c1.7,0,3,1.3,3,3v44c0,1.7-1.3,3-3,3H37c-1.7,0-3-1.3-3-3V31C34,29.3,35.3,28,37,28z"/>
	<rect x="40" y="34" class="st2" width="38" height="38"/>
	<path class="st2" d="M40,50h38 M52,72V50"/>
</g>
</svg>
