<svg xmlns="http://www.w3.org/2000/svg" viewBox="0 0 32 32"><path fill="#fff" d="M16.75 16.548c-.24.558-.465 1.08-.707 1.646 2.756 1.873 5.48 3.752 7.615 6.453l-2.11 1.43c-.708-.768-1.364-1.59-2.132-2.29-1.047-.958-2.156-1.85-3.557-2.285-.585-.183-.98-.086-1.39.41-1.527 1.862-3.26 3.49-5.476 4.522-1.368.64-1.368.642-1.972-.695-.178-.39-.346-.785-.54-1.226 1.827-.433 3.38-1.246 4.62-2.62.74-.822 1.166-1.716 1.26-2.856.17-2.103.628-4.15 1.828-5.95.534-.797 1.768-.98 2.493-.37.062.046.11.126.13.2.48 1.81 2.08 2.005 3.58 1.63.573-.146 1.118-.404 1.73-.63l1.07 1.483c-1.903 1.718-4.075 1.73-6.444 1.145zm.842-12.054c1.78.02 3.254 1.57 3.22 3.386-.032 1.734-1.62 3.284-3.325 3.246-1.822-.04-3.326-1.604-3.284-3.418.038-1.8 1.555-3.236 3.39-3.214z"></path></svg>