<svg xmlns="http://www.w3.org/2000/svg" viewBox="0 0 32 32"><path fill="#fff" d="M24.998 23.842c-.127 0-.256.03-.377.086-.132.055-.27.117-.4.172l-.194.08-.25.1v.005c-2.72 1.102-5.573 1.748-8.215 1.805-.097.004-.193.004-.29.004-4.153.003-7.544-1.926-10.964-3.823-.12-.06-.24-.094-.36-.094-.156 0-.313.058-.43.164-.114.106-.183.266-.182.426 0 .207.112.395.267.52 3.21 2.786 6.73 5.376 11.46 5.378.094 0 .188-.002.28-.004 3.01-.07 6.415-1.085 9.058-2.745l.016-.01c.346-.207.69-.44 1.018-.703.205-.15.346-.385.344-.63-.01-.435-.377-.73-.775-.73zm3.666-1.54c-.012-.265-.068-.466-.178-.632l-.01-.016-.015-.02c-.11-.12-.216-.167-.333-.218-.347-.133-.853-.205-1.46-.207-.437 0-.92.04-1.4.143l-.002-.03-.486.16-.01.006-.276.09v.012c-.322.136-.615.302-.89.498-.167.13-.31.297-.317.556-.004.14.066.3.185.395.12.097.257.13.378.13.027 0 .055 0 .078-.005l.023-.002.018-.003c.238-.053.586-.085.992-.144.347-.037.72-.066 1.04-.066.225 0 .43.014.57.045.07.016.12.032.15.05.01.003.016.007.02.01.006.02.016.067.014.14.004.268-.11.767-.266 1.25-.152.487-.338.974-.46 1.298-.03.075-.048.157-.048.247-.003.13.05.287.16.393.11.104.255.145.374.145h.006c.18-.002.332-.07.463-.176 1.236-1.112 1.666-2.888 1.684-3.888l-.003-.16z"></path><path d="M17.355 10.384c-.728.055-1.565.11-2.404.222-1.282.17-2.57.39-3.63.896-2.07.838-3.467 2.627-3.467 5.254 0 3.3 2.124 4.98 4.81 4.98.894 0 1.622-.114 2.29-.28 1.064-.336 1.958-.95 3.02-2.07.614.838.782 1.23 1.844 2.125.278.114.558.114.78-.052.673-.56 1.85-1.568 2.462-2.125.28-.224.224-.56.056-.837-.613-.783-1.23-1.455-1.23-2.965V10.5c0-2.125.167-4.082-1.397-5.534-1.285-1.173-3.3-1.62-4.864-1.62h-.672c-2.85.164-5.868 1.395-6.54 4.918-.11.447.226.613.45.67l3.13.39c.336-.055.502-.336.56-.613.278-1.23 1.284-1.845 2.4-1.96h.227c.67 0 1.397.28 1.79.84.447.67.39 1.568.39 2.35v.446zm-.613 6.65c-.393.782-1.063 1.286-1.79 1.456-.112 0-.28.055-.448.055-1.228 0-1.956-.95-1.956-2.35 0-1.788 1.06-2.627 2.402-3.018.727-.167 1.567-.225 2.405-.225v.672c0 1.287.057 2.292-.613 3.41z" fill="#fff"></path></svg>