<svg xmlns="http://www.w3.org/2000/svg" viewBox="0 0 32 32"><path stroke="#FFF" stroke-width="2" fill="none" d="M12.393 6.112h4.367c1.61.19 3.96 1.572 4.824 3.41.238.515.363.594.56 2.12.106.786.16 1.367.51 1.69.495.45 2.333.147 2.696.43l.277.22.166.343.06.277-.04 5.048c-.02 3.43-2.81 6.238-6.244 6.238h-7.177c-3.436 0-6.244-2.81-6.244-6.238v-7.29c-.003-3.434 2.806-6.248 6.242-6.248z"></path><path fill="none" stroke="#FFF" stroke-width="1.5" d="M12.47 11.22h3.464c.66 0 1.195.534 1.195 1.188 0 .653-.538 1.195-1.198 1.195H12.47c-.66 0-1.194-.542-1.194-1.195 0-.654.535-1.19 1.195-1.19zm0 7.15h7.038c.654 0 1.19.534 1.19 1.188 0 .646-.535 1.188-1.19 1.188H12.47c-.66 0-1.194-.54-1.194-1.188 0-.654.535-1.19 1.195-1.19z"></path></svg>