<svg xmlns="http://www.w3.org/2000/svg" viewBox="0 0 32 32"><path fill="#CC3467" d="M27.256 9.5c-2.188-3.79-6.36-.54-7.83 2.205 1.073.86 1.802 2.112 2.006 3.475 3.103.094 8.023-1.873 5.824-5.68-.7-1.212.515.894 0 0z"/><path fill="#96C044" d="M15.998 3c-4.368 0-3.664 5.23-2.013 7.886 1.283-.505 2.74-.505 4.023 0C19.66 8.23 20.366 3 15.998 3z"/><path fill="#CC3467" d="M9.255 8.294c-1.108-.64-2.42-.918-3.49-.053-.96.78-1.79 2.268-1.617 3.538.352 2.564 4.32 3.468 6.416 3.405.204-1.363.934-2.618 2.01-3.477-.67-1.256-1.898-2.59-3.32-3.41-.71-.41 1.422.82 0 0z"/><path fill="#96C044" d="M11.426 19.05c-.447-.67-.744-1.435-.862-2.23-2.785-.084-7.768 1.608-6.056 5.24 2.023 4.292 6.448 1.248 8.063-1.765-.44-.354-.83-.773-1.142-1.246-.132-.198.314.47 0 0z"/><path fill="#CC3467" d="M18.202 21.458c-.064-.12-.13-.232-.198-.342-1.28.503-2.737.503-4.02 0C12.338 23.766 11.624 29 16 29c4.218 0 3.67-4.848 2.204-7.542-.064-.12.678 1.243 0 0z"/><path fill="#96C044" d="M27.83 20.088c-.478-2.46-4.326-3.33-6.398-3.27-.204 1.364-.933 2.617-2.007 3.476.934 1.744 2.858 3.73 4.913 4.006 2.043.276 3.853-2.332 3.49-4.212-.153-.8.137.706 0 0z"/></svg>