<svg xmlns="http://www.w3.org/2000/svg" viewBox="0 0 32 32"><path fill="#FFF" d="M20.56 21.21c1.558.926 3.202 1.637 4.95 2.122.746.207 1.255.03 1.596-.673.102-.21.25-.404.4-.586 2.322-2.812 1.91-6.988-1.06-7.983.66-.517.662-1.2.47-1.92-.156-.59-.265-1.204-.492-1.767-.514-1.278-.694-2.603-.77-3.964-.047-.814-.1-1.767-1-2.068-.875-.292-1.54.357-2.09.977-1.85 2.082-2.9 4.576-3.644 7.22-.372 1.33-.7 2.676-1.077 4.12-.332-.34-.57-.837-.925-.897-.14-.376-.74-2.2.177-3.78.02-.008.033-.022.047-.037l.174-.22c.05-.063.037-.15-.024-.2-.06-.048-.15-.037-.196.025l-.174.223c-.033.04-.035.093-.02.138-.84 1.48-.432 3.147-.23 3.76-.422-.616-1.416-1.792-2.95-2.06-.024-.04-.067-.067-.116-.067h-.28c-.08 0-.143.063-.143.14 0 .08.062.142.142.142h.28c.023 0 .043-.007.062-.017 1.54.254 2.51 1.48 2.884 2.046-.38.265.127.786.08 1.276-1.986-1.483-4.072-2.605-6.244-3.572-1.956-.87-3.89-1.798-6.008-2.233-.47-.097-.977-.107-1.25.41-.25.474-.093.936.19 1.34.153.222.347.434.566.585 2.44 1.678 4.303 3.93 6.212 6.145.446.517.896 1.027 1.665 1.065.25.012.455.132.445.446v.123c.047.827.25 1.5.774 2.28 1.365 1.67 3.08 2.88 5.054 3.7.4.167.73.25 1.01.25.685 0 1.018-.517 1.116-1.578.026-1.45-.42-2.82-.863-4.154.352-.27.517.24.788.065.237-.33-.216-.68.018-1.08.172.097.316.173.456.256z"></path></svg>