<svg xmlns="http://www.w3.org/2000/svg" viewBox="0 0 32 32"><path fill="#912D31" d="M16 3C8.82 3 3 8.82 3 16s5.82 13 13 13 13-5.82 13-13S23.18 3 16 3zm0 24.807C9.48 27.807 4.192 22.522 4.192 16 4.192 9.48 9.48 4.193 16 4.193c3.92 0 7.392 1.91 9.54 4.85h-8.308s-2.863.397-3.18 2.544c-.34 2.293-1.988 2.465-1.988 2.465h-4.69v1.51h9.74c.206-1.086 1.16-1.907 2.305-1.907 1.143 0 2.096.82 2.302 1.908h1.632v.874h-1.632c-.206 1.087-1.16 1.91-2.305 1.91-1.147 0-2.1-.823-2.306-1.91H7.37v1.59h4.69s1.67 0 1.988 2.464c.304 2.356 3.18 2.548 3.18 2.548h8.25c-2.15 2.895-5.596 4.77-9.48 4.77z"></path></svg>