<svg xmlns="http://www.w3.org/2000/svg" viewBox="0 0 32 32"><path fill="#fff" d="M16.38 2.65c-7.45 0-13.5 6.048-13.5 13.5s6.05 13.5 13.5 13.5 13.5-6.048 13.5-13.5-6.04-13.5-13.5-13.5zm.078 25.203c-6.387 0-11.57-5.184-11.57-11.572 0-6.385 5.183-11.57 11.57-11.57 6.387 0 11.57 5.185 11.57 11.57.002 6.39-5.175 11.574-11.57 11.574z"/><path fill="#fff" d="M23.856 21.758c-.393 0-.694-.07-.903-.2-.154-.094-.4-.402-.74-.91l-3.934-5.964 3.3-3.2c.254-.248.463-.433.625-.54s.293-.178.41-.217c.107-.03.308-.046.593-.046h.207v-.01l.555-.01V8.55h-.648v.01h-6.087v2.12h.548c.31 0 .494.023.57.077.078.054.117.13.117.23 0 .055-.023.11-.062.18-.04.068-.154.2-.34.4l-4.257 4.436v-4.08c0-.402.03-.68.1-.826.07-.147.178-.262.34-.34.1-.053.363-.076.78-.076h.44V8.56H8.8v2.113h.563c.34 0 .58.04.71.116.132.075.225.19.286.345.06.154.084.455.084.91v8.37c0 .478-.022.78-.076.903-.062.153-.154.26-.285.33-.132.07-.394.11-.78.11H8.8v2.12h6.666v-2.12h-.556c-.363 0-.61-.032-.733-.094s-.216-.162-.278-.31c-.063-.145-.1-.408-.1-.786v-1.543l2.067-2.013 2.4 3.842c.2.332.3.54.3.625 0 .077-.054.147-.162.2-.108.054-.417.077-.918.077h-.278v2.12h6.89v-2.12h-.24z"/></svg>