<svg xmlns="http://www.w3.org/2000/svg" viewBox="0 0 32 32"><path fill="#203468" d="M7.08 9.882l.004-.008.004-.01c.195-.408.422-.81.674-1.192.264-.393.53-.75.81-1.06 1.493-1.683 3.524-2.692 6.08-3.015l.733-.097.426.61 8.426 12.14.188.27.027.328.608 7.65.164 2.002-1.854-.783-7.23-3.053-.325-.143-.208-.286-8.422-12.14-.4-.574.3-.638zm2.72.13c-.06.097-.118.202-.18.305l7.79 11.235 5.05 2.13-.427-5.32-7.79-11.226c-1.603.326-2.884 1.032-3.84 2.102-.227.252-.428.514-.602.775z"/><path fill="#FFC805" d="M8.186 10.4c1.283-2.66 3.488-4.192 6.62-4.594l8.423 12.14.61 7.648-7.23-3.057L8.186 10.4z"/><path fill="#FFF" d="M15.158 6.316l1.89 2.717c-2.597.352-5.354 2.552-6.603 4.62l-1.898-2.735c1.115-2.09 4.27-4.18 6.61-4.602z"/><path fill="#9291AD" d="M13.285 10.666c-1.22.873-2.197 1.915-2.84 2.987l-1.898-2.735c.557-1.043 1.654-2.108 2.875-2.944l1.863 2.692z"/><path fill="#203468" d="M7.215 10.283c1.35-3.24 4.182-4.8 7.568-5.527l.55-.026.38.397.314.322 1.14 1.817-1.835.243h-.012c-.242.038-.512.108-.8.212h-.003c-.3.1-.613.238-.957.406-1.69.837-3.4 2.216-3.898 3.306l-.928 1.746-1.252-1.66-.166-.285-.25-.453.15-.5z"/><path fill="#F5A8AA" d="M8.33 10.597c.95-2.725 3.1-4.214 6.504-4.615l.314.322c-2.3.35-5.756 2.777-6.598 4.62l-.22-.327z"/><path fill="#485E85" d="M23.69 22.727l.283 3.084-2.924-1.235 1.224-1.202"/><path fill="#203468" d="M16.41 21.274c.053-.062.113-.133.176-.197.635-.712 1.287-1.447 1.43-2.695l-4.875-7.02c-.436.35-.832.706-1.176 1.062-.363.382-.674.775-.924 1.168l5.37 7.682zm.93.483c-.203.222-.398.445-.572.665l-.416.54-.402-.566-5.94-8.49-.183-.265.166-.282c.318-.558.73-1.097 1.236-1.63.494-.526 1.076-1.027 1.726-1.5l.424-.305.296.425 5.27 7.6.103.15-.014.17c-.113 1.718-.92 2.615-1.697 3.49z"/><path fill="#6A9AC2" d="M16.367 22.11c.846-1.09 2.03-1.903 2.164-3.868l-5.273-7.602c-1.27.914-2.227 1.933-2.83 2.97l5.94 8.5z"/><path fill="#203468" d="M22.125 17.31c-.09.026-.168.062-.248.093-.89.35-1.81.71-3.027.396l-4.87-7.02c.48-.29.95-.53 1.405-.73.486-.208.96-.36 1.42-.464l5.32 7.724zm.12 1.037c.28-.11.563-.22.823-.294l.658-.21-.39-.568-5.888-8.532-.18-.267-.32.052c-.635.105-1.287.3-1.967.59-.66.286-1.67.887-2.342 1.33l5.893 8.313c1.647.49 2.627.014 3.717-.412z"/><path fill="#A1BBD6" d="M22.896 17.537c-1.312.41-2.498 1.232-4.383.67l-5.272-7.6c1.303-.87 2.59-1.412 3.77-1.605l5.887 8.535z"/><path fill="#203468" d="M18.248 8.95l-1.846.24v-.004c-.244.04-.514.113-.8.214h-.01c-2.726.944-4.46 2.964-5.784 5.454l-.68-1.004c.604-.86 2.52-5.224 8.484-5.94.27.258.415.692.636 1.04z"/></svg>