<svg xmlns="http://www.w3.org/2000/svg" viewBox="0 0 32 32"><path fill="#F89C0E" d="M19.975 15.894c-.134-2.542-2.02-4.07-4.3-4.07h-.086c-2.63 0-4.09 2.068-4.09 4.417 0 2.633 1.765 4.296 4.077 4.296 2.58 0 4.275-1.89 4.4-4.127l-.003-.515zm-4.37-6.346c1.755 0 3.407.776 4.62 1.993v.006c0-.584.395-1.024.94-1.024h.14c.85 0 1.025.808 1.025 1.063l.005 9.08c-.06.595.613.9.988.52 1.457-1.497 3.203-7.702-.907-11.295-3.83-3.352-8.967-2.8-11.7-.916-2.904 2.003-4.764 6.438-2.958 10.603 1.968 4.543 7.6 5.896 10.947 4.546 1.696-.684 2.48 1.607.72 2.355-2.66 1.132-10.066 1.02-13.525-4.972-2.338-4.046-2.212-11.163 3.987-14.85 4.74-2.822 10.99-2.042 14.762 1.895 3.937 4.117 3.705 11.82-.137 14.818-1.742 1.36-4.326.035-4.312-1.947l-.02-.647c-1.21 1.203-2.824 1.905-4.58 1.905-3.475 0-6.53-3.056-6.53-6.528 0-3.508 3.057-6.6 6.533-6.6"/></svg>