<svg xmlns="http://www.w3.org/2000/svg" viewBox="0 0 32 32"><path fill="#FFF" d="M26.596 18.11c-1.466-.087-2.02-.834-1.93-2.164.076-1.113.274-2.22.418-3.327-.023-1.743-.942-3.13-2.488-3.59-1.583-.47-2.97-.14-4.102 1.15-2.322 2.646-2.616 2.634-5.023-.045-1.152-1.28-2.852-1.66-4.39-.98-1.5.667-2.37 2.237-2.15 3.954.08.625.278 1.235.377 1.863.338 2.122-.105 2.7-2.226 3.147-1.066.228-1.913.786-2.05 1.99-.137 1.22.17 2.39 1.404 2.75.77.226 1.853.084 2.55-.32.96-.553 1.064-1.64.733-2.74-.62-2.05-.027-3.04 2.115-3.34.836-.117 1.766-.022 2.568.235 1.302.41 1.692 1.373 1.175 2.65-.45 1.1-.443 2.09.39 2.984.84.9 2.417 1.08 3.518.435 1.12-.657 1.497-1.807 1.042-3.164-.608-1.814-.085-2.783 1.807-3.123.7-.126 1.463-.113 2.16.025 1.834.367 2.377 1.377 1.84 3.188-.504 1.698.196 3.09 1.72 3.43 1.332.295 2.624-.607 2.89-2.022.308-1.633-.593-2.882-2.344-2.988zm-10.71-.085c-1.374-.06-2.453-1.194-2.445-2.57.01-1.46 1.148-2.567 2.61-2.54 1.467.026 2.57 1.177 2.523 2.627-.05 1.43-1.255 2.545-2.687 2.483z"/></svg>