<svg xmlns="http://www.w3.org/2000/svg" viewBox="0 0 32 32"><g fill="#FFF"><path d="M25.514 10.435c-1.582 1.605-4.438 1.56-5.502 3.726-.906 2.57 1.23 6.677 2.12 9.02.603 1.21-4.716 2.378-4.065 2.677 3.754-.043 5.354-1.412 4.904-3.094-.43-1.607-2.376-4.816-2.376-7.383.056-1.938 2.222-2.533 3.618-3.322 1.622-.727 3.14-2.35 2.72-4.25-.018-.672-1.187-2.907-.71-1.175.26 1.278.385 2.856-.706 3.802z"/><path d="M20.632 7.546C18.59 6.492 16.32 5.854 13.946 6.41c-1.277.236-2.78.933-3.637 2.1-1.123 1.34-1.166 3.288-.43 4.82.57 1.18 1.44 2.492 2.85 2.688 1.21.182 2.54.018 3.566-.683-1.223.21-2.64.646-3.736-.172-1.842-1.177-2.735-3.85-1.618-5.8.898-1.7 2.705-2.178 4.62-2.262 2.55-.11 4.995 1.345 5.934 1.7.903.285 2.2.645 2.844-.315.376-.446.226-1.674-.08-1.788.09.86-.543 1.943-1.524 1.66-.736-.17-1.41-.523-2.104-.81zM6.94 15.156c-1.183 1.865-2.264 4.05-1.85 6.322.38 2.375 2.678 4.05 4.963 4.35 2.348.273 4.69.205 7.043.035.397-.385-1.92-.373-2.895-.514-2.224-.254-4.64-.3-6.55-1.623-1.775-1.33-2.01-3.938-1.155-5.863.714-1.814 1.782-3.568 2.903-5.084-.876.727-1.683 1.27-2.456 2.376z"/><path d="M12.787 21.02c1.386.107 3.688-.032 4.768.724.387.582-.332 3.802-.084 4.174.553.162 1.186-3.773.836-4.75-.266-.75-4.966-.352-5.518-.147z"/></g></svg>