<svg xmlns="http://www.w3.org/2000/svg" viewBox="0 0 32 32"><path fill="#D1AD5A" d="M16.09 5.246C9.617 5.246 4 9.216 4 16.63c0 6.93 7.707 10.193 12.758 9.01v2.374S28 25.054 28 15.034c0-6.11-4.505-9.788-11.91-9.788z"/><path fill="#FFF" d="M22.92 20.024h-1.657v-5.688s-.505-1.586-1.585-1.586c-.9 0-2.525.374-2.525 2.08v5.193h-1.657V14.77c0-1.586-.787-2.09-1.506-2.09-1.15 0-2.727.807-2.727 2.403v4.94H9.605v-9.01h1.657v1.03c.656-.546 1.564-1.03 2.727-1.03 1.222 0 2.09.434 2.604 1.282.73-.677 1.777-1.202 3.082-1.202 1.97 0 3.24 1.788 3.24 3.202v5.73z"/></svg>