<svg xmlns="http://www.w3.org/2000/svg" viewBox="0 0 32 32"><path fill="#FFF" d="M16.828 19.498l2.875-2.084c.264.166.572.264.906.264.936 0 1.695-.76 1.695-1.7s-.76-1.7-1.697-1.7c-.94 0-1.702.76-1.702 1.7 0 .07.006.14.014.21l-2.094 1.516v-4.73l2.896-2.1c.26.158.56.25.885.25.937 0 1.696-.76 1.696-1.7 0-.937-.76-1.7-1.697-1.7-.94 0-1.702.763-1.702 1.7 0 .08.006.16.018.235l-2.098 1.52V4h-1.656v3.79l-2.11-1.528c.02-.102.032-.205.032-.313 0-.94-.764-1.7-1.7-1.7-.94 0-1.7.76-1.7 1.7 0 .936.76 1.7 1.7 1.7.296 0 .573-.078.815-.21l2.962 2.143v4.73L13.06 12.79c.017-.094.028-.19.028-.286 0-.94-.764-1.7-1.7-1.7-.94 0-1.7.76-1.7 1.7 0 .938.76 1.7 1.7 1.7.304 0 .59-.083.84-.224l2.938 2.13v5.044L13.07 19.63c.014-.092.023-.185.023-.28 0-.938-.76-1.7-1.7-1.7-.938 0-1.697.762-1.697 1.7 0 .94.76 1.7 1.697 1.7.31 0 .598-.084.846-.226l2.935 2.124V28h1.655v-1.665l2.87-2.077c.263.166.573.266.91.266.937 0 1.698-.76 1.698-1.7 0-.938-.762-1.698-1.7-1.698s-1.698.76-1.698 1.7c0 .067.004.134.012.2l-2.092 1.517v-5.045z"/></svg>