<svg xmlns="http://www.w3.org/2000/svg" viewBox="-4 -4 40 40"><path fill="#fff" d="M16 16.16c-3.635 0-6.58-2.945-6.58-6.58C9.42 5.945 12.364 3 16 3s6.582 2.945 6.582 6.58c0 3.635-2.946 6.58-6.58 6.58zm0-9.817c-1.788 0-3.236 1.448-3.236 3.237 0 1.79 1.448 3.236 3.237 3.236 1.79 0 3.24-1.447 3.24-3.236 0-1.79-1.45-3.237-3.238-3.237zm7.586 10.62c.648 1.3-.084 1.93-1.735 2.99-1.397.9-3.315 1.238-4.566 1.368l1.048 1.05 3.877 3.877c.59.59.59 1.544 0 2.134l-.178.18c-.59.59-1.544.59-2.134 0l-3.878-3.88-3.878 3.88c-.59.59-1.543.59-2.135 0l-.176-.18c-.59-.59-.59-1.543 0-2.132l3.878-3.878 1.043-1.046c-1.25-.127-3.19-.465-4.6-1.37-1.65-1.062-2.38-1.69-1.733-2.99.37-.747 1.4-1.367 2.768-.29C13.035 18.13 16 18.13 16 18.13s2.968 0 4.818-1.456c1.37-1.077 2.4-.457 2.768.29z"/></svg>