<svg xmlns="http://www.w3.org/2000/svg" viewBox="0 0 32 32"><path d="M14.613 27.342H13.37l-4.796-7.3v7.3h-1.15v-9.25H8.66l4.8 7.3v-7.3h1.154v9.25zm6.015-9.408c1.282 0 2.332.438 3.147 1.312.817.875 1.225 2.03 1.225 3.47 0 1.44-.408 2.597-1.225 3.472-.815.874-1.865 1.312-3.147 1.312-1.286 0-2.34-.44-3.16-1.316-.82-.877-1.23-2.033-1.23-3.467 0-1.44.41-2.596 1.23-3.47.82-.876 1.874-1.313 3.16-1.313zm-.013 8.52c.916 0 1.667-.33 2.252-.985.585-.66.877-1.576.877-2.754s-.29-2.096-.874-2.752c-.583-.656-1.326-.984-2.23-.984-.92 0-1.674.33-2.263.985-.59.656-.884 1.574-.884 2.752 0 1.174.293 2.09.88 2.748.587.658 1.335.988 2.242.988z" fill="#FE5000"/><path d="M11.39 4.5c1.283 0 2.333.438 3.15 1.312.815.875 1.224 2.032 1.224 3.47 0 1.44-.408 2.597-1.225 3.472-.817.875-1.867 1.312-3.15 1.312-1.286 0-2.34-.438-3.16-1.314C7.41 11.874 7 10.72 7 9.282c0-1.438.41-2.595 1.23-3.47S10.105 4.5 11.39 4.5zm-.012 8.52c.916 0 1.667-.33 2.252-.985.585-.656.877-1.574.877-2.752s-.29-2.095-.874-2.752c-.583-.654-1.326-.982-2.23-.982-.92 0-1.674.328-2.264.984-.59.658-.885 1.576-.885 2.753 0 1.174.293 2.09.88 2.75.587.656 1.335.986 2.242.986zm11.317.89H21.29l-2.154-3.402-.737.738v2.663h-1.183V4.656h1.18V9.9l2.556-2.69h1.486l-2.51 2.495 2.764 4.203z" fill="#88D32D"/></svg>