<svg xmlns="http://www.w3.org/2000/svg" viewBox="0 0 32 32"><path fill="#FFC820" d="M27.996 12.83l-7.423-.737c-.566-.053-.694-.142-.87-.604l-3.175-7.043c-.29-.598-.765-.598-1.055 0l-3.384 7.04c-.23.393-.337.48-.896.534l-7.188.808c-.66.064-.808.493-.327.952l5.64 5.185c.265.25.27.355.194.697l-1.447 7.61c-.122.65.25.914.823.58l6.44-3.716c.45-.284.868-.293 1.31-.018l6.47 3.734c.575.333.948.07.826-.582L22.83 21.2c.663-.226 1.306-.5 1.69-.81l-.155.03c-2.29.547-5.437.872-8.355.872-1.08 0-2.126-.038-3.128-.11l-.006.005c-.88-.063-1.727-.15-2.53-.26-.3-.05.026-.242.026-.242l7.758-5.513s.202-.126.002-.153c-3.188-.5-6.723-.625-10.042-.625h-.23c2.245-.51 5.07-.815 8.14-.815 1.81 0 3.538.106 5.11.297-.003.003.887.124 1.31.193.33.05.024.24.024.24l-7.77 5.385s-.18.106.015.135c2.39.338 5.333.458 7.98.492l-.12-.652c-.057-.378 0-.51.286-.78l5.478-5.12c.484-.454.34-.88-.32-.944z"/></svg>