<svg xmlns="http://www.w3.org/2000/svg" viewBox="0 0 32 32"><path fill="#FFF" d="M4.91 19.953c0 3.028 3.943 5.484 8.807 5.484 4.862 0 8.806-2.456 8.806-5.484 0-3.027-3.943-5.482-8.806-5.482-4.863 0-8.807 2.457-8.807 5.484"/><path fill="#E6162D" d="M13.92 24.99c-4.303.424-8.02-1.52-8.3-4.346-.278-2.827 2.987-5.463 7.292-5.888 4.304-.426 8.018 1.52 8.297 4.345.276 2.83-2.985 5.466-7.29 5.89m8.612-9.38c-.367-.11-.62-.186-.428-.665.416-1.046.458-1.946.01-2.59-.846-1.204-3.155-1.14-5.8-.03 0-.004-.834.362-.62-.297.406-1.31.345-2.406-.29-3.04-1.435-1.436-5.255.056-8.53 3.33C4.424 14.77 3 17.37 3 19.618c0 4.3 5.513 6.913 10.907 6.913 7.07 0 11.776-4.106 11.776-7.37 0-1.97-1.66-3.09-3.15-3.55"/><path fill="#F93" d="M27.226 7.74C25.52 5.848 23 5.127 20.676 5.62h-.002c-.536.115-.88.644-.765 1.182.112.536.642.882 1.18.765 1.653-.35 3.442.164 4.66 1.508 1.212 1.346 1.542 3.18 1.02 4.787-.17.525.118 1.085.64 1.255.524.168 1.088-.118 1.256-.64v-.004c.728-2.262.268-4.84-1.44-6.732m-2.622 2.367c-.832-.922-2.058-1.272-3.192-1.03-.462.098-.756.552-.656 1.017.097.46.553.758 1.016.657v.003c.552-.117 1.15.053 1.562.502.406.453.514 1.066.338 1.606h.004c-.147.45.102.935.55 1.08.45.144.936-.102 1.08-.552.356-1.1.135-2.357-.7-3.28"/><path d="M14.16 19.87c-.15.26-.484.383-.746.275-.256-.104-.335-.393-.19-.646.15-.253.47-.376.725-.274.26.094.35.386.21.644m-1.373 1.762c-.417.665-1.308.956-1.98.65-.66-.303-.855-1.073-.44-1.722.413-.644 1.274-.932 1.94-.652.673.287.888 1.054.48 1.724m1.564-4.7c-2.046-.533-4.363.488-5.253 2.293-.904 1.84-.028 3.884 2.04 4.552 2.144.69 4.67-.368 5.55-2.354.865-1.944-.216-3.944-2.336-4.49"/></svg>