<svg xmlns="http://www.w3.org/2000/svg" viewBox="0 0 32 32"><path fill="#CA0805" d="M23.506 8.08c.645 0 1.3.073 1.967.225.547.12.937.285 1.173.495.236.21.354.5.354.868 0 .232-.043.414-.13.547-.086.13-.272.29-.56.48-.333.224-.524.49-.573.794-.05.302-.094 1.482-.134 3.54-.018 1.99-.033 3.185-.048 3.583-.015.398-.05.785-.107 1.16-.167 1.098-.504 1.958-1.01 2.582-.414.51-.946.912-1.596 1.205-.65.294-1.335.44-2.054.44-.64 0-1.278-.108-1.92-.325-.64-.22-1.197-.518-1.67-.902-.39-.315-.7-.74-.93-1.278-.23-.538-.347-1.11-.347-1.72 0-.75.184-1.37.546-1.863.362-.492.816-.738 1.363-.738.534 0 .99.207 1.362.62.375.42.56.938.56 1.555 0 .155-.033.42-.102.787-.012.075-.018.157-.018.247 0 .24.066.436.2.586.13.15.307.227.524.227.386 0 .696-.226.933-.677.234-.45.352-1.043.352-1.78l-.01-1.024-.017-2.76c-.052-1.676-.09-2.662-.116-2.96-.027-.296-.09-.538-.195-.725-.086-.15-.162-.246-.23-.29-.065-.046-.245-.117-.538-.215-.138-.038-.256-.144-.353-.315-.098-.174-.147-.357-.147-.554 0-.405.122-.73.366-.975.245-.242.644-.44 1.196-.59.62-.17 1.254-.25 1.91-.25z"/><path fill="#2A2A2A" d="M10.202 8c.593 0 1.37.19 2.33.574.114.046.207.068.275.068.058 0 .23-.068.518-.203.093-.047.19-.07.294-.07.383 0 .79.4 1.22 1.195.43.797.642 1.555.642 2.275 0 .422-.097.776-.29 1.066-.19.288-.426.434-.702.434-.23 0-.416-.06-.56-.18-.144-.12-.46-.478-.95-1.07-.69-.842-1.368-1.263-2.035-1.263-.322 0-.58.102-.772.305-.192.203-.29.47-.29.8 0 .653.44 1.146 1.32 1.476 1.192.46 1.954.793 2.287 1.003 1.467.934 2.2 2.305 2.2 4.114 0 1.6-.5 2.907-1.5 3.922C13.163 23.48 11.826 24 10.176 24c-.736 0-1.513-.115-2.33-.344-.816-.23-1.406-.497-1.77-.805-.274-.24-.523-.764-.745-1.57-.22-.81-.33-1.596-.33-2.363 0-.367.058-.646.173-.833.143-.24.324-.36.543-.36.22 0 .43.146.63.438.12.165.405.695.855 1.59.215.42.553.768 1.016 1.048.463.278.94.417 1.437.417.426 0 .77-.104 1.035-.31.265-.207.396-.472.396-.794 0-.3-.103-.56-.31-.777-.208-.22-.544-.422-1.01-.61-.823-.337-1.45-.648-1.88-.93-.433-.28-.835-.636-1.21-1.063-.908-1.053-1.362-2.246-1.362-3.583 0-.66.12-1.306.355-1.933.236-.627.57-1.17 1-1.628C7.633 8.53 8.812 8 10.203 8z"/></svg>