<svg xmlns="http://www.w3.org/2000/svg" viewBox="0 0 32 32"><path fill="#FFC808" d="M19.1 6.875s-.13.717-.293.912c-.163.197-.62.166-1.045 0-.427-.162-.85-.195-1.274-.03-.425.162-.784.134-.717-.356.065-.49.328-.98.688-1.014.36-.03 1.11-.163 1.207-.36.1-.194-.07-.456-.23-.718-.16-.26-.455-.652-.585-.555-.13.1-.49-.13-.62.262-.132.393-.85 1.403-1.373 1.958-.524.557-1.21 1.602-.85 2.253.36.654.947.688 1.733.688h1.165s.273.23.238.523c-.032.293.263 2.71.263 3.527s-.033.85.195.85h.394s-.163.652-.654 2.284c-.49 1.634-.88 2.876-1.144 3.203-.26.326-.424.588-.424 1.01 0 .428-.13 1.08-.326 1.44-.196.36-.262.883-.523 1.145-.26.262-.26.328-.358.72-.1.392-.526.882-.655 1.075-.127.197-1.817 1.486-1.915 1.848-.098.358 1.577.53 2.31.44.88-.11 1.135-.007 1.388-.436.273-.462.876-1.51 1.192-2.308.18-.457-.1-.816.294-1.34.39-.522 1.01-1.403 1.433-1.895.425-.49.425-1.078.784-1.8.36-.716.785-1.565 1.11-1.5.327.065.75.456 1.34 1.076.588.62.523.947.62 1.534.1.59.228 1.34.523 1.864.295.524.458 1.014.523 1.47.065.458-.1.88 0 1.405.098.52.556.943.816 1.37.26.42 1.272.39 2.12.42.85.035 1.635.167 1.404-.226-.232-.392-1.045-.916-1.275-1.045-.23-.13-.36-.13-.555-.818-.197-.685-.85-3.722-1.047-4.8-.195-1.078-.652-2.385-1.046-3.104-.39-.718-1.6-2.874-1.6-2.874l-.1-.293h.393s-.163-.687-.262-.85c-.098-.163-.49-1.44-.556-2.09-.065-.653-.197-1.077.13-1.044.327.03 1.568 0 2.32-.197.75-.195.686-.26.717-.88.033-.62 0-1.798-.03-2.58-.034-.784-.296-1.015-.49-1.11-.195-.1-.817.13-.914.326-.1.193-.49.488-.132.75.36.262.425.393.62.457.197.066.197.196.197.36 0 .163.13.913-.196 1.044-.324.132-1.274.034-1.664-.064-.394-.097-1.176-.815-1.502-.782-.325.033-.62-.294-.653-.72-.03-.424.59-.16.687-.814.1-.652.59-2.103-.814-2.45-.784-.192-1.373.425-1.57 1.372-.148.698-.002 1.007.587 1.465z"/><path fill="#2A2A2A" d="M15.688 6.736c-.183.46-1.135 2.4-1.135 2.4s-1.28-.712-3.423-.712c-1.877 0-3 .924-3.324 1.962-.176.562-.552 2.19 1.475 3.18 1.418.69 3.29 1.465 4.755 2.45 1.906 1.276 2.81 3.327 2.454 5.87-.41 2.92-2.444 5.56-5.473 5.822-2.403.208-6-.536-6.91-1.314.275-.816.56-1.975.78-2.634 1.005.493 2.72.936 4.185 1.11 2.758.326 4.152-.908 4.554-2.44.284-1.087.332-2.204-.12-3.013-1.093-1.96-3.375-2.244-5.392-3.24-3.016-1.492-3.69-3.54-3.308-5.774.437-2.546 1.918-3.803 4.18-4.356 2.128-.52 4.59-.305 6.704.69z"/></svg>