<svg xmlns="http://www.w3.org/2000/svg" viewBox="0 0 32 32"><path fill="#FFF" d="M13.907 19.803l-2.463 5.062c-.316.655-.974 1.035-1.656 1.035-.272 0-.545-.062-.807-.188-.914-.445-1.293-1.55-.846-2.465l2.46-5.062c.446-.914 1.55-1.293 2.464-.848.917.447 1.295 1.552.85 2.466zm-.053-7.497c-.445.444-1.055.698-1.682.698-.625 0-1.236-.254-1.678-.698-.445-.444-.7-1.054-.7-1.68 0-.626.255-1.236.7-1.68.885-.888 2.478-.888 3.36 0 .442.444.696 1.054.696 1.68 0 .626-.254 1.235-.696 1.68zm9.834 7.17c-.443 2.075-1.266 4.003-2.445 5.73-.35.517-.922.794-1.502.794-.35 0-.705-.103-1.02-.316-.826-.564-1.04-1.695-.476-2.52.912-1.34 1.55-2.835 1.896-4.448.378-1.775.378-3.654-.003-5.432-.344-1.61-.982-3.107-1.895-4.445-.564-.83-.35-1.96.48-2.525.827-.564 1.958-.35 2.522.48 1.178 1.727 2 3.655 2.443 5.73.49 2.272.49 4.675 0 6.95z"/></svg>