<svg xmlns="http://www.w3.org/2000/svg" viewBox="0 0 32 32"><g fill="#F79A30"><path d="M15.107 4s2.838 1.88 3.326 7.05c0 0 .957 12.423-5.47 14.858 0 0 .577.106 1.224.076 0 0 7.947-5.012 4.3-14.742 0 0-1.09-3.396-3.38-7.242zm4.15 8.483s-1.48-2.29.397-4.18c0 0 .658-.725 2.537-1.202 0 0 1.88-.4 2.895-2.555 0 0 2.105 2.94.81 6.807 0 0-.64 1.742-1.976 2.538-1.01.6-2.536.787-4.134-.777 0 0 4.83-2.644 5.01-4.884 0 0-1.483 3.334-5.54 4.256z"/><path d="M19.256 12.483s-1.48-2.29.398-4.18c0 0 .658-.725 2.537-1.202 0 0 1.88-.4 2.895-2.555 0 0 2.105 2.94.81 6.807 0 0-.64 1.742-1.976 2.538-1.01.6-2.536.787-4.134-.777 0 0 4.83-2.644 5.01-4.884 0 0-1.483 3.334-5.54 4.256z"/></g><path fill="#FFF" d="M20.486 19.434c0 1.19-.283 2.3-.85 3.33-.57 1.03-1.34 1.824-2.306 2.383-.967.56-2.03.84-3.186.84-1.156 0-2.22-.28-3.186-.84-.97-.56-1.736-1.354-2.305-2.383-.568-1.03-.853-2.14-.853-3.33 0-1.847.625-3.42 1.87-4.723 1.247-1.3 2.74-1.95 4.474-1.95.824 0 1.596.15 2.313.448.072-.754.336-1.456.63-2.03-.903-.326-1.88-.49-2.936-.49-2.506 0-4.582.92-6.223 2.77-1.494 1.675-2.24 3.65-2.24 5.933 0 2.3.79 4.31 2.367 6.03C9.63 27.14 11.664 28 14.15 28c2.48 0 4.508-.86 6.086-2.58 1.578-1.72 2.367-3.73 2.367-6.03 0-1.233-.22-2.374-.65-3.427-.725.445-1.412.678-1.982.797.345.816.517 1.707.517 2.674z"/></svg>