<svg xmlns="http://www.w3.org/2000/svg" viewBox="0 0 32 32"><path fill="#FFF" d="M16 27c6.074 0 11-4.926 11-11 0-6.075-4.926-11-11-11S5 9.925 5 16c0 6.074 4.926 11 11 11zm2.808-17.016c.792 0 1.434.64 1.434 1.432 0 .79-.642 1.432-1.434 1.432-.79 0-1.432-.64-1.432-1.432 0-.79.642-1.432 1.432-1.432zm-5.443 0c.79 0 1.433.64 1.433 1.432 0 .79-.642 1.432-1.433 1.432s-1.433-.64-1.433-1.432c0-.79.642-1.432 1.433-1.432zm-5.1 4.583h15.47v2.866h-.032c-.32 3.975-3.644 7.103-7.702 7.103-4.06 0-7.38-3.128-7.7-7.103h-.033v-2.866zm14.42 2.56H9.13v-1.764h13.554v1.764z"/></svg>