<svg xmlns="http://www.w3.org/2000/svg" viewBox="0 0 32 32"><circle fill="#2E6EB5" stroke="#FFF" stroke-width="2" stroke-miterlimit="10" cx="16" cy="16" r="12"/><path fill="#FFF" d="M14.47 23.09v-4.908l-3.604-5.856c-.315-.528-.538-.94-.67-1.235-.13-.294-.196-.552-.196-.77 0-.36.132-.67.398-.93.264-.26.59-.39.98-.39.41 0 .72.12.933.365.213.243.53.727.953 1.45l2.758 4.697 2.79-4.696c.17-.287.31-.53.423-.727.114-.198.24-.384.378-.556.14-.172.29-.305.46-.396.166-.09.37-.136.613-.136.376 0 .688.13.94.385.252.258.378.554.378.892 0 .273-.064.55-.19.82-.127.275-.345.655-.654 1.14l-3.694 5.94v4.91c0 .64-.14 1.118-.422 1.436-.282.317-.642.475-1.08.475-.44 0-.8-.156-1.076-.47-.275-.312-.412-.793-.412-1.44z"/></svg>