<svg xmlns="http://www.w3.org/2000/svg" viewBox="0 0 32 32"><path d="M4 9.498h1.82l2.7 10.754 2.677-10.754h1.81v12.72h-1.213V14.71c0-.26.003-.69.01-1.29.012-.6.015-1.244.015-1.93L9.14 22.216H7.88L5.173 11.49v.39c0 .31.008.786.02 1.423.013.64.02 1.108.02 1.407v7.507H4V9.497zm15.735 4.372c.604.795.907 1.966.907 3.51 0 1.495-.267 2.73-.8 3.704-.534.975-1.36 1.46-2.48 1.46-.934 0-1.677-.43-2.228-1.292-.55-.86-.825-2.02-.825-3.473 0-1.56.29-2.8.87-3.723.576-.922 1.356-1.383 2.333-1.383.877 0 1.616.4 2.22 1.194zm-.714 6.16c.28-.78.423-1.65.423-2.607 0-.863-.102-1.568-.304-2.11-.323-.853-.875-1.278-1.656-1.278-.695 0-1.2.36-1.518 1.088-.314.727-.474 1.604-.474 2.63 0 .985.16 1.808.475 2.466.316.654.817.982 1.503.982.755 0 1.27-.39 1.553-1.172zm2.937-10.575h1.118v4.615c.253-.445.554-.785.905-1.02.35-.232.73-.35 1.142-.35.854 0 1.547.397 2.08 1.19.53.796.798 1.966.798 3.512 0 1.467-.26 2.684-.788 3.654-.524.97-1.253 1.454-2.186 1.454-.52 0-.964-.17-1.323-.51-.213-.202-.44-.526-.687-.972v1.188h-1.06V9.456zm4.398 10.675c.31-.67.463-1.552.463-2.65 0-.974-.154-1.782-.463-2.423-.312-.64-.768-.96-1.368-.96-.527 0-.988.262-1.382.786-.397.525-.595 1.392-.595 2.598 0 .873.083 1.58.245 2.123.304 1.02.868 1.532 1.7 1.532.622 0 1.088-.334 1.4-1.004z" fill="#FFF"/></svg>