<?xml version="1.0" encoding="utf-8"?>
<!-- Generator: Adobe Illustrator 21.0.2, SVG Export Plug-In . SVG Version: 6.00 Build 0)  -->
<svg version="1.2" baseProfile="tiny" xmlns="http://www.w3.org/2000/svg" xmlns:xlink="http://www.w3.org/1999/xlink" x="0px"
	 y="0px" viewBox="0 0 130 112" overflow="scroll" xml:space="preserve">
<g id="Layer_2">
</g>
<g id="Layer_1" display="none">
	<circle display="inline" fill="#126585" cx="68" cy="56" r="55"/>
	<g display="inline">
		<path fill="#FFFFFF" d="M28.2,88.1c3.3-1.6,6.6-3,10-4.2c1.1-0.4,1.8-1.1,2.2-2.1c0.7-1.7,1.1-3.5,1.2-5.3
			c0.1-0.6,0.1-1.3,0.2-1.9c0-0.4,0-0.6-0.4-0.9C40.5,73,39.7,72,39,71c-1.2-2-2.4-4.1-3.7-6.1c-0.1-0.2-0.2-0.4-0.3-0.6
			c-0.2-0.7-0.5-1.2-1.3-1.5c-0.9-0.3-1.4-1.2-1.7-2.1c-1-2.4-1.7-4.9-1.7-7.5c0-1.3,0.4-1.8,1.6-2c0.5-0.1,0.6-0.3,0.6-0.8
			c-0.1-2.6,0.2-5.1,0.9-7.6c0.9-3.2,2.4-6.1,4.8-8.5c0.2-0.2,0.3-0.3,0.5-0.5c0,0,0.1-0.1,0.1-0.2c-0.2,0-0.3,0-0.4,0
			c-0.1,0-0.3,0-0.5,0c0.2-1,0.8-1.6,1.7-2.1c1.1-0.7,2.4-0.9,3.7-1c0.2,0,0.4,0,0.7,0c-0.4-1-0.2-1.9,0.3-2.7
			c0.4-0.7,0.8-1.3,1.4-1.7c0.9,1.6,2.5,2.1,4.1,2.5c2.8,0.8,5.5,1.7,8,3c3,1.5,5.2,3.8,6.8,6.7c1.4,2.5,2.1,5.2,2.5,8
			c0.2,1.4,0.1,2.8,0.1,4.2c0,0.3,0,0.5,0.4,0.6c1.6,0.2,1.8,1.4,1.6,2.7c-0.2,1.6-0.5,3.3-1,4.9c-0.3,1-0.8,2-1.3,3
			c-0.3,0.7-0.9,1-1.6,1.3c-0.2,0.1-0.4,0.2-0.4,0.4c-0.9,2.3-2.3,4.4-3.6,6.5c-0.9,1.4-1.8,2.8-3.1,3.9c-0.1,0.1-0.2,0.4-0.2,0.5
			c0,0.9,0,1.9,0.1,2.8c0.2,1.3,0.5,2.5,0.8,3.8c0.4,1.9,1.8,2.9,3.6,3.6c1.5,0.5,2.9,1.2,4.3,1.9c2.5,1.2,4.9,2.3,7.3,3.6
			c3.8,1.9,7.4,4.1,10.8,6.7c1.6,1.2,3.1,2.5,4.3,4.1c0.3,0.4,0.5,0.8,0.7,1.2c0.1,0.2,0.1,0.4-0.2,0.5c-4.3,2-8.8,3.4-13.5,4.2
			c-3.4,0.6-6.9,0.8-10.4,0.6c-3-0.1-5.9-0.5-8.8-1.2c-4.3-0.9-8.3-2.4-12.2-4.4c-3.4-1.7-6.6-3.8-9.4-6.3c-1.6-1.4-3.1-2.8-4.5-4.2
			c-0.9-0.9-1.7-1.9-2.5-2.8C28.3,88.4,28.3,88.3,28.2,88.1z"/>
		<path fill="#FFFFFF" d="M109.1,86.7c-4.3,5.7-9.5,10.2-15.5,13.8c-0.6-0.9-1.1-1.7-1.7-2.6c-1.1-1.5-2.5-2.7-3.9-3.9
			c-3.5-2.8-7.3-5.1-11.2-7.1c-0.7-0.4-1.5-0.8-2.3-1.2c1-0.4,1.9-0.8,2.8-1.2c1.5-0.6,3.1-1.2,4.6-1.7c0.9-0.3,1.4-1.1,1.7-1.9
			c0.7-1.9,1-3.8,1-5.8c0-0.2-0.1-0.5-0.2-0.6c-1-0.8-1.7-1.7-2.4-2.7c-0.9-1.5-1.8-3.1-2.8-4.7c-0.1-0.1-0.1-0.2-0.1-0.3
			c-0.2-0.7-0.5-1.2-1.3-1.5c-0.7-0.3-1-1-1.3-1.7c-0.8-2-1.4-4-1.4-6.2c0-1,0.3-1.4,1.3-1.5c0.5-0.1,0.5-0.4,0.5-0.7
			c0-1.9,0.2-3.7,0.6-5.5c0.5-2.1,1.3-4.2,2.6-5.9c0.6-0.8,1.3-1.4,1.9-2.2c0.1-0.1,0.1-0.1,0.2-0.3c-0.3,0-0.5,0-0.8-0.1
			c0.3-1.1,1.1-1.7,2-2c0.9-0.3,1.9-0.4,2.8-0.6c-0.4-1.5,0.3-2.6,1.4-3.6c0.9,1.4,2.3,1.8,3.8,2.2c2.5,0.8,5,1.6,7.3,3
			c1.8,1.1,3.2,2.6,4.2,4.4c1.3,2.2,2,4.6,2.3,7.1c0.1,1.2,0.2,2.4,0.2,3.6c0,0.3,0.1,0.5,0.5,0.6c0.8,0.1,1.3,0.7,1.2,1.6
			c-0.1,1.3-0.3,2.6-0.6,3.9c-0.2,1-0.7,1.9-1.1,2.8c-0.3,0.7-0.8,1.1-1.5,1.4c-0.2,0.1-0.3,0.2-0.4,0.4c-1.1,2.6-2.7,5-4.3,7.3
			c-0.3,0.4-0.7,0.8-1.1,1.2c-0.1,0.1-0.3,0.3-0.2,0.5c0.1,1.1,0.1,2.3,0.3,3.4c0.2,1.1,0.5,2.1,0.9,3.1c0.3,0.7,0.9,1.2,1.7,1.6
			c2.3,1,4.6,2,6.9,3C108.1,86.1,108.6,86.4,109.1,86.7z"/>
	</g>
</g>
<g id="Layer_3">
	<ellipse fill="#136685" cx="55.1" cy="22.8" rx="38.5" ry="18"/>
	<path fill="#136685" d="M93.6,28v13.7c0,0,0.6,10.9-21.8,16s-41-2.2-41-2.2s-14.2-5.1-14.3-13.8V28c0,0-0.3,8.4,15.6,14
		S66,44.8,66,44.8s13.3-1.9,19.3-6.2C85.3,38.6,93.2,34.7,93.6,28z"/>
	<path fill="#136685" d="M93.6,46.7v13.7c0,0,0.6,10.9-21.8,16c-22.4,5.1-41-2.2-41-2.2s-14.2-5.1-14.3-13.8V46.7
		c0,0-0.3,8.4,15.6,14S66,63.5,66,63.5s13.3-1.9,19.3-6.2C85.3,57.3,93.2,53.4,93.6,46.7z"/>
	<path fill="#136685" d="M93.6,65.4v13.7c0,0,0.6,10.9-21.8,16c-22.4,5.1-41-2.2-41-2.2s-14.2-5.1-14.3-13.8V65.4
		c0,0-0.3,8.4,15.6,14S66,82.1,66,82.1s13.3-1.9,19.3-6.2C85.3,76,93.2,72.1,93.6,65.4z"/>
	<path fill="#FFFFFF" d="M114.2,56.7c-6.1-7.3-15.4-1.6-19.5-1.6c-4.1,0-13.4-5.7-19.5,1.6c-6.1,7.3-5.8,17.4-2.6,23.5
		c3.2,6.1,3.5,15.2,3.6,19c0.1,3.8,2.4,9.9,6.2,9.9s7.1-17.4,12.1-17.4c5,0,8.3,17.4,12.1,17.4c3.8,0,6.1-6.1,6.2-9.9
		c0.1-3.8,0.4-12.9,3.6-19C120,74.2,120.3,64,114.2,56.7z"/>
	<path fill="#136685" d="M110.5,59.8c-5.1-6-12.8-1.3-16.2-1.3s-11.1-4.7-16.2,1.3c-5.1,6-4.8,14.5-2.1,19.5
		c2.7,5.1,2.9,12.6,3,15.8c0.1,3.2,2,8.3,5.2,8.3s5.9-14.5,10.1-14.5c4.2,0,6.9,14.5,10.1,14.5c3.2,0,5.1-5.1,5.2-8.3
		c0.1-3.2,0.4-10.7,3-15.8C115.3,74.2,115.5,65.8,110.5,59.8z"/>
</g>
</svg>
