<?xml version="1.0" encoding="utf-8"?>
<!-- Generator: Adobe Illustrator 22.1.0, SVG Export Plug-In . SVG Version: 6.00 Build 0)  -->
<svg version="1.1" id="Layer_1" xmlns="http://www.w3.org/2000/svg" xmlns:xlink="http://www.w3.org/1999/xlink" x="0px" y="0px"
	 viewBox="0 0 611 300" style="enable-background:new 0 0 611 300;" xml:space="preserve">
<style type="text/css">
	.st0{fill:#1C77BD;}
	.st1{fill:#205DB0;}
	.st2{fill:url(#SVGID_1_);}
	.st3{fill:url(#SVGID_2_);}
	.st4{fill:url(#SVGID_3_);}
	.st5{fill:url(#SVGID_4_);}
	.st6{fill:url(#SVGID_5_);}
</style>
<path class="st0" d="M115.7,222.6"/>
<path class="st1" d="M125,222.6"/>
<g id="Dentacare">
	
		<linearGradient id="SVGID_1_" gradientUnits="userSpaceOnUse" x1="143.8027" y1="-435.6756" x2="143.8027" y2="-236.8598" gradientTransform="matrix(1 0 0 1 0 486.2677)">
		<stop  offset="0" style="stop-color:#2CADE5"/>
		<stop  offset="1" style="stop-color:#23436D"/>
	</linearGradient>
	<path class="st2" d="M143.2,136.6c-9.9-13.8-32.4-21.2-43.2-4c-11,17.6,7,36,18.5,47.7c3.8,3.8,14.3,10.3,16.4,15.4
		c1.6,4-1,12.7-1.5,17.3c-1.6,13.9-7.3,38.6-26.1,36.4c-14.7-1.7-20.9-25.4-25.4-37.6c-4.7-12.5-8.4-25.4-13.9-37.6
		c-5-11.1-12.6-21-16.5-32.6c-7.2-20.7-6.2-46.4,4.5-65.9c9.2-16.5,28.2-25.3,46.7-24.8c18.6,0.6,33.7,10.6,52.5,6.4
		c14.1-3.1,28.1-8.7,42.7-5.7c19.8,4.2,35,19.6,40.2,38.8c5.6,20.7,2.4,44.8-7.2,64c-5.6,11-11.4,20.6-15.8,32.1
		c-4.6,11.8-8.8,23.9-13.7,35.6c-3.8,9.2-9.4,25.8-21,27.1c-20.7,2.2-22.8-22.9-25.2-36.8c-0.9-4.9-4-13.5-2.4-18.1
		c2.2-6.1,13.1-13.2,17.7-17.9c10.7-10.9,24.7-25.2,16.9-41.9c-5.1-10.8-20.5-15.1-31.2-9.8C150.9,127.1,147.2,132.5,143.2,136.6z"
		/>
	<g>
		<g>
			<g>
				<g>
					
						<linearGradient id="SVGID_2_" gradientUnits="userSpaceOnUse" x1="299.8819" y1="-375.9614" x2="299.8819" y2="-296.6911" gradientTransform="matrix(1 0 0 1 0 486.2677)">
						<stop  offset="0" style="stop-color:#2CADE5"/>
						<stop  offset="1" style="stop-color:#23436D"/>
					</linearGradient>
					<path class="st3" d="M325.7,183.8c-6.8,3.8-14.9,5.8-24.2,5.8c-13.1,0-23.6-3.6-31.5-10.6s-11.8-16.3-11.8-27.7
						c0-12.2,4-22.1,12-29.7s19-11.3,32.9-11.3c8.4,0,15.9,1.8,22.4,5.5c7.1,4,12.2,11.1,15.2,21.2l-13.6,6.2
						c-2.1-7.5-4.9-12.6-8.6-15.5c-3.6-2.9-8.8-4.2-15.5-4.2c-9.5,0-16.8,2.5-22,7.6c-5.1,5.1-7.7,11.8-7.7,20.2
						c0,7.8,2.4,13.8,7.1,18.1c5,4.6,11.9,7,20.9,7c6.3,0,11.8-1.3,16.3-3.9c4.6-2.6,7.9-8.4,9.7-17.3l14.3,5.6
						C338.7,171.7,333.5,179.4,325.7,183.8z"/>
				</g>
			</g>
			<g>
				<g>
					
						<linearGradient id="SVGID_3_" gradientUnits="userSpaceOnUse" x1="381.3594" y1="-375.8654" x2="381.3594" y2="-296.6911" gradientTransform="matrix(1 0 0 1 0 486.2677)">
						<stop  offset="0" style="stop-color:#2CADE5"/>
						<stop  offset="1" style="stop-color:#23436D"/>
					</linearGradient>
					<path class="st4" d="M408.8,188v-7.1c-7.2,5.8-16.6,8.6-28,8.6c-13.1,0-23.3-3.8-31-11.6c-7.1-7.2-10.7-16.5-10.7-27.7
						c0-11.6,3.6-21,10.8-28.2c7.8-7.8,18.2-11.6,31.5-11.6c10.9,0,20.2,2.8,27.4,8.3v-8.1h14.9V188L408.8,188L408.8,188z
						 M401.6,130.7c-4.8-4.8-11.8-7.1-21-7.1c-8.4,0-15.2,2.6-20,7.8c-4.4,4.9-6.6,11.1-6.6,18.9s2.2,13.9,6.6,18.6
						c4.8,5.1,11.4,7.6,20,7.6c8.5,0,15.5-2.5,20.5-7.5c5.1-5,7.7-11.2,7.7-18.8C408.8,141.9,406.4,135.5,401.6,130.7z"/>
				</g>
			</g>
			<g>
				<g>
					
						<linearGradient id="SVGID_4_" gradientUnits="userSpaceOnUse" x1="455.1115" y1="-375.8654" x2="455.1115" y2="-298.3226" gradientTransform="matrix(1 0 0 1 0 486.2677)">
						<stop  offset="0" style="stop-color:#2CADE5"/>
						<stop  offset="1" style="stop-color:#23436D"/>
					</linearGradient>
					<path class="st5" d="M452.3,133.6c-4.1,5.9-6.2,13.6-6.2,23.1v31.2h-14.9v-76H446v7c7.3-5.7,18.3-8.5,33-8.5v13.1
						C465.8,123.6,456.9,126.9,452.3,133.6z"/>
				</g>
			</g>
			<g>
				<g>
					
						<linearGradient id="SVGID_5_" gradientUnits="userSpaceOnUse" x1="518.163" y1="-375.9614" x2="518.163" y2="-296.6911" gradientTransform="matrix(1 0 0 1 0 486.2677)">
						<stop  offset="0" style="stop-color:#2CADE5"/>
						<stop  offset="1" style="stop-color:#23436D"/>
					</linearGradient>
					<path class="st6" d="M490.6,155.9c1.7,13.6,10.8,20.4,27.3,20.4c13.4,0,22.5-5.7,27.2-16.9h15.4c-4.3,12.5-10.5,20.8-18.4,24.9
						c-6.9,3.6-15.1,5.3-24.4,5.3c-13.7,0-24.3-3.6-31.7-11c-7-6.9-10.6-16.4-10.6-28.4c0-11.5,3.8-21,11.6-28.5
						c7.8-7.6,18.2-11.3,31.3-11.3c12.9,0,23.1,3.4,31,10.1s11.8,15.7,11.8,27v8.3L490.6,155.9z M538.2,130.2
						c-4.8-4.4-11.4-6.6-19.9-6.6s-15.2,2.2-20,6.6c-3.7,3.5-6.1,7.6-7.3,12.6H545C544,137.8,541.8,133.6,538.2,130.2z"/>
				</g>
			</g>
		</g>
	</g>
</g>
</svg>
