<?xml version="1.0" encoding="utf-8"?>
<!-- Generator: Adobe Illustrator 22.1.0, SVG Export Plug-In . SVG Version: 6.00 Build 0)  -->
<svg version="1.1" id="Layer_1" xmlns="http://www.w3.org/2000/svg" xmlns:xlink="http://www.w3.org/1999/xlink" x="0px" y="0px"
	 viewBox="0 0 611 300" style="enable-background:new 0 0 611 300;" xml:space="preserve">
<style type="text/css">
	.st0{fill:#1C77BD;}
	.st1{fill:#205DB0;}
</style>
<path class="st0" d="M115.7,222.6"/>
<path class="st1" d="M125,222.6"/>
<g id="Layer_1_1_">
	<g id="DentaVox">
		<g>
			<path d="M297.1,167.3c-0.1,0.2-0.1,0.3-0.1,0.5c-0.8,1.7-1.7,3.4-2.6,5.1c-0.1,0.3-0.3,0.4-0.6,0.4c-0.4,0-1,0-1.4,0
				c-6.6,0-13.1,0-19.7,0c-38.8,0-77.6,0-116.4,0c-39.1,0-78.2-0.1-117.3-0.1c-0.4,0-0.8,0-1.3,0c-0.2,0-0.4-0.2-0.4-0.4
				c0-0.1-0.1-0.2-0.1-0.3c0-1.5,0-3.1,0-4.6c0-0.1,0-0.2,0-0.3c0-0.2,0.3-0.4,0.4-0.4c0.1,0,0.3,0,0.4,0c0.4,0,0.8,0,1.3,0
				c42,0,84,0,125.9,0c0.5,0,1,0,1.6,0c0.4,0,0.6,0.2,0.6,0.6c0.1,0.7,0.1,1.3,0.1,2.1c0,0.1,0.1,0.1,0.1,0.1c0.1,0.1,0.2,0,0.3-0.1
				s0.1-0.2,0.2-0.3c0.5-0.8,0.9-1.5,1.5-2.2c0.9-0.3,1.9-0.1,2.8-0.1c14.8,0,29.7,0,44.5,0c26,0,52,0,78,0c0.5,0,1,0,1.6,0
				C296.8,167.2,296.9,167.2,297.1,167.3z"/>
			<path d="M154,101.6c9.1,0,18.2,0,27.3,0c21.7,0,43.3,0,65,0c0.4,0,1,0,1.4,0c0.2,0,0.4,0.1,0.5,0.3c0.1,0.1,0.1,0.2,0.2,0.3
				c0.9,1.7,1.8,3.3,2.7,5c0.1,0.3-0.1,0.5-0.4,0.5c-0.1,0-0.3,0-0.5,0c-0.4,0-1,0-1.4,0c-19.8,0-39.6,0-59.5,0
				c-0.7,0-1.5-0.1-2.2,0.1c-0.3,0.1-0.5,0-0.8,0s-0.6,0-1,0c-41.1,0-82.2,0-123.3,0c-0.6,0-1.2,0-1.7-0.1c-0.2,0-0.4-0.3-0.4-0.4
				c0-0.1,0-0.2,0-0.3c0-1.6,0-3.1,0-4.8c0-0.1,0-0.2,0-0.3c0-0.2,0.2-0.4,0.4-0.4c0.1,0,0.3,0,0.4,0c0.4,0,1,0,1.4,0
				C92.8,101.6,123.4,101.6,154,101.6z"/>
			<path d="M243.8,94.2c-0.1,0.1-0.3,0.1-0.4,0.1c-0.5,0-0.8,0-1.3,0c-19.4,0-38.8,0-58.2,0c-14.1,0-28.1,0.1-42.2,0.1
				c-0.6,0-1.2,0.1-1.7,0.1s-1.2,0.1-1.7,0.1c-19.3,0.1-38.7,0.1-58,0.1c-6.2,0-12.3,0-18.5,0c-0.4,0-1,0-1.4-0.1
				c-0.2,0-0.4-0.2-0.4-0.4c0-0.1,0-0.1,0-0.1c0-1.7,0-3.5,0-5.2c0-0.1,0-0.2,0.1-0.3s0.1-0.2,0.3-0.2c0.1-0.1,0.3-0.1,0.4-0.1
				c0.5,0,1,0,1.6,0c30,0,60,0,90.1,0c16.5,0,33.1,0,49.6,0c12.3,0,24.7,0,37.1,0c0.4,0,1,0,1.4,0c0.3,0,0.5,0.1,0.6,0.4
				c0.9,1.7,1.8,3.5,2.7,5.2C243.8,93.9,243.8,94,243.8,94.2z"/>
			<path d="M148.5,81.2c-28.7,0-57.5,0-86.2,0c-2.6,0-2.2,0.4-2.3-2.2c0-1.2,0-2.4,0-3.7c0-0.3,0.2-0.4,0.5-0.4c0.1,0,0.3,0,0.4,0
				c0.4,0,1,0,1.4,0c35.6,0,71.2,0,106.8,0c20.9,0,41.8,0,62.7,0c0.5,0,1,0,1.6,0c0.2,0,0.4,0.1,0.5,0.3c0.4,0.8,0.8,1.6,1.2,2.4
				c0.5,1,1,2.1,1.5,3.1c0.1,0.2-0.1,0.4-0.3,0.4c-0.5,0-1,0-1.6,0c-11.4,0-22.7-0.1-34.1,0c-8.7,0.1-17.5,0-26.3,0.1
				C165.9,81.3,157.2,81.2,148.5,81.2z"/>
			<path d="M145,67.6c-27.6,0-55.2,0-82.7,0c-0.5,0-1,0-1.6,0c-0.5,0-0.7-0.2-0.7-0.6c0-1.6,0-3.1,0-4.8c0-0.1,0-0.2,0.1-0.3
				s0.1-0.2,0.2-0.2c0.1-0.1,0.2-0.1,0.3-0.1c0.5,0,1,0,1.6,0c54.1,0,108.2,0,162.3,0c0.5,0,1,0,1.6,0c0.4,0,0.7,0.2,0.9,0.5
				c0.3,0.5,0.6,1.1,1,1.6c0.6,1.2,1.3,2.3,2,3.4c0.1,0.1-0.1,0.3-0.3,0.3c-0.1,0-0.3,0-0.4,0c-0.4,0-1,0-1.4,0
				c-14.5,0-28.9,0-43.5,0C171.2,67.6,158.1,67.6,145,67.6z"/>
			<path d="M115.8,206.7c21.9,0,43.7,0,65.6,0c0.6,0,1.3,0,1.9-0.1c0.4-0.1,0.8-0.1,1.3-0.1c7.3,0,14.6,0,21.9,0
				c0.4,0,0.7,0.1,1.1,0.1c0.1,0,0.3,0.3,0.2,0.4c-0.3,0.3-0.4,0.7-0.8,1c-1,1.2-2.1,2.4-3.1,3.6c-0.1,0.1-0.1,0.1-0.2,0.3
				c-1.3,1.5-0.9,1.3-2.8,1.3c-11.4,0-22.9-0.1-34.4-0.1c-0.7,0-1.3,0-2.1-0.1c-0.5-0.1-1-0.1-1.6-0.1c-14.2-0.1-28.4-0.1-42.6-0.1
				c-11.4,0-22.8-0.1-34.3-0.1c-0.8,0-1.7,0-2.5-0.1c-0.4-0.1-1,0-1.4,0c-10.5,0-21.1-0.1-31.7-0.1c-0.5,0-1,0-1.6-0.1
				c-0.2,0-0.4-0.2-0.4-0.4c0-0.7,0-1.5,0-2.2c0-0.8,0-1.7,0-2.5c0-0.4,0.2-0.6,0.6-0.6c0.4,0,1,0,1.4,0c21.8,0,43.6,0,65.4,0
				C115.8,206.8,115.8,206.8,115.8,206.7z"/>
			<path d="M138.7,193.9c25.5,0,51,0,76.6,0c0.5,0,1,0,1.6,0c0.2,0,0.3,0.2,0.2,0.3c-0.1,0.1-0.1,0.3-0.2,0.5c-1,1.5-2.1,3-3.1,4.6
				c-0.1,0.1-0.1,0.2-0.2,0.3c-0.2,0.2-0.4,0.3-0.6,0.4c-0.1,0-0.3,0-0.4,0c-0.4,0-0.8,0-1.3,0c-49.6,0-99.3,0-148.8,0
				c-0.6,0-1.2,0-1.7,0c-0.3,0-0.6-0.3-0.6-0.6c0-1.5,0-3.1,0-4.6c0-0.1,0-0.3,0.1-0.4s0.1-0.2,0.3-0.2c0.1-0.1,0.3-0.1,0.4-0.1
				c0.5,0,1,0,1.6,0C87.8,193.9,113.3,193.9,138.7,193.9z"/>
			<path d="M242.4,140.9c22.1,0,44.3,0,66.4,0c0.6,0,1.2,0,1.7,0.1c0.1,0,0.3,0.3,0.2,0.4c-0.4,0.8-0.8,1.5-1.2,2.2
				c-0.6,1.1-1.2,2.2-1.9,3.3c-0.1,0.3-0.4,0.4-0.6,0.4c-0.4,0-0.8,0-1.3,0c-43.1,0-86.1,0-129.2,0c-0.1,0-0.3,0-0.4,0
				c-1.5,0-1.2,0.1-1.5-1.3c0-0.1,0-0.1,0-0.1c-0.1-1.4-0.4-2.8-0.6-4.2c0-0.1,0-0.2,0-0.3c0.1-0.1,0.1-0.2,0.2-0.3
				c0.1-0.1,0.3-0.1,0.4-0.1c0.5,0,1,0,1.6,0C198.2,140.9,220.3,140.9,242.4,140.9L242.4,140.9z"/>
			<path d="M243.1,127.8c24.2,0,48.4,0,72.6,0c0.6,0,1.2,0,1.7,0.1c0.1,0,0.2,0.1,0.1,0.2c0,0.1,0,0.1-0.1,0.1
				c-0.9,1.7-1.9,3.3-2.8,4.9c-0.2,0.3-0.5,0.5-0.8,0.5c-0.5,0-1,0-1.4,0c-15.9,0-31.7,0-47.6,0c-19.7,0-39.3,0-58.9,0
				c-11.1,0-22.2,0-33.3,0c-0.2,0-0.4,0-0.6,0c-0.8,0-0.9-0.1-1.3-0.8c-0.6-1.4-1.3-2.8-2.1-4.1c-0.1-0.2-0.2-0.4-0.3-0.6
				c-0.1-0.1,0-0.2,0.1-0.3c0.1-0.1,0.3-0.1,0.4-0.1c0.4,0,1,0,1.4,0c18,0,36.1,0,54.1,0C230.8,127.8,236.9,127.8,243.1,127.8
				L243.1,127.8z"/>
			<path d="M127.3,219.9c21.7,0,43.5,0,65.2,0c0.5,0,1,0,1.6,0c0.1,0,0.2,0.1,0.2,0.2s0,0.1-0.1,0.1c-0.2,0.2-0.4,0.4-0.6,0.5
				c-2.2,1.6-4.5,3.2-6.7,4.8c-0.3,0.2-0.6,0.3-0.9,0.3c-0.4,0-1,0-1.4,0c-40.9,0-81.7,0-122.6,0c-2.4,0-2.1,0.3-2.1-2.1
				c0-1,0-1.9,0-2.8c0-0.1,0-0.3,0-0.5c0-0.3,0.3-0.5,0.5-0.5c0.6,0,1.2,0,1.7,0c21.4,0,42.8,0,64.2,0
				C126.7,219.9,127,219.9,127.3,219.9z"/>
			<path d="M236.8,160.2c-20.7,0-41.5,0-62.2,0c-0.5,0-1,0-1.6,0c-0.3,0-0.4-0.2-0.3-0.4c0.1-0.3,0.1-0.6,0.3-0.9
				c0.3-1,0.6-2.1,0.6-3.1c0-0.3,0.1-0.5,0.1-0.8c0.1-0.7,0.3-0.8,1-0.8c0.4,0,1,0,1.4,0c16.9,0,33.8,0,50.7,0c0.8,0,1.7,0,2.5,0.1
				c0.5,0.1,1,0,1.6,0c21.2,0,42.5,0,63.7,0c2.5,0,5.1,0,7.6,0c0.3,0,0.6,0,1,0.1c0.1,0,0.1,0.1,0.2,0.2c0,0.1-0.1,0.2-0.1,0.3
				c-0.7,1.6-1.5,3.1-2.2,4.8c-0.2,0.4-0.4,0.5-0.9,0.5s-1,0-1.4,0C278.2,160.2,257.5,160.2,236.8,160.2L236.8,160.2z"/>
			<path d="M76.8,127.6c18.6,0,37.2,0,55.8,0c0.5,0,1,0,1.6,0c0.3,0,0.6,0.3,0.6,0.6c0,0.8,0,1.7,0,2.5c0,0.7,0,1.3,0,2.1
				c0,0.2-0.1,0.5-0.1,0.6s-0.3,0.4-0.4,0.4c-0.1,0-0.3,0.1-0.4,0.1c-0.5,0-1,0-1.6,0c-36.9,0-73.7,0-110.6,0c-2.4,0-2.4,0-2.4-0.2
				c-0.3-0.8-0.1-1.5-0.1-2.3c-0.1-0.9,0-1.8,0-2.7c0-0.2,0-0.4,0.1-0.6c0-0.2,0.2-0.4,0.4-0.4c0.4,0,1,0,1.4,0c6.2,0,12.5,0,18.7,0
				C52,127.6,64.4,127.6,76.8,127.6z"/>
			<path d="M86,186.6c-17.9,0-35.8,0-53.7,0c-2.4,0-2.1,0.3-2.1-2.1c0-1.2,0-2.3,0-3.5c0-0.1,0.1-0.3,0.1-0.4
				c0.1-0.1,0.1-0.2,0.2-0.2c0.1-0.1,0.2-0.1,0.3-0.1c0.5,0,1,0,1.6,0c35.8,0,71.7,0,107.5,0c0.6,0,1.2,0,1.7,0.1
				c0.2,0,0.4,0.3,0.4,0.4s0.1,0.1,0.1,0.1c0,1.7,0,3.5,0,5.2c0,0.2-0.2,0.5-0.4,0.5c-0.1,0-0.3,0-0.4,0.1c-0.4,0-1,0-1.4,0
				C121.9,186.6,103.9,186.6,86,186.6z"/>
			<path d="M110.4,147.3c-16.1,0-32.3,0-48.5,0c-0.5,0-1,0-1.6-0.1c-0.2,0-0.4-0.2-0.4-0.5c0-1.8,0-3.6,0-5.4c0-0.3,0.3-0.5,0.5-0.5
				c0.1,0,0.3,0,0.4,0c0.3,0,0.6,0,1,0c32.4,0,64.9,0,97.3,0c0.4,0,1,0,1.4,0c0.2,0,0.4,0.2,0.4,0.4c0,0.1,0.1,0.2,0.1,0.3
				c0,1.7,0,3.4,0,5.1c0,0.1,0,0.2-0.1,0.3c-0.1,0.1-0.1,0.2-0.3,0.2c-0.5,0.1-1,0.1-1.6,0.1C143,147.3,126.7,147.3,110.4,147.3z"/>
			<path d="M97.6,154.2c15.9,0,31.9,0,47.9,0c0.5,0,1,0,1.6,0c0.2,0,0.4,0.2,0.4,0.4c0,1.7,0,3.5,0,5.2c0,0.3-0.3,0.5-0.5,0.5
				c-0.1,0-0.3,0.1-0.4,0.1c-0.4,0-0.8,0-1.3,0c-31.8,0-63.6,0-95.4,0c-0.6,0-1.2,0-1.7-0.1c-0.3,0-0.5-0.3-0.5-0.5
				c0-1.3,0-2.8,0-4.1c0-0.4,0-0.7,0-1.1c0-0.2,0.2-0.4,0.4-0.4c0.5,0,1,0,1.6,0c10.4,0,20.8,0,31.2,0
				C86.5,154.2,92.1,154.2,97.6,154.2z"/>
			<path d="M205.5,114.5c15.9,0,31.9,0,47.9,0c0.5,0,1,0,1.4,0c0.3,0,0.6,0.1,0.8,0.4c0.9,1.8,1.8,3.6,2.6,5.4
				c0.1,0.1,0.1,0.2,0.1,0.3c0,0.1-0.1,0.2-0.2,0.2c-0.3,0.1-0.6,0.1-1,0.1c-2.6,0-5.3,0-7.9,0c-28.1,0-56.2,0-84.3,0
				c-0.5,0-1,0-1.6,0c-0.3,0-0.6-0.1-0.8-0.3c-0.8-0.7-1.6-1.3-2.4-2.1c-1.4-1.2-2.8-2.4-4.2-3.6c-0.1-0.1-0.1-0.2-0.1-0.3
				c0.1-0.1,0.2-0.1,0.3-0.1c0.5,0,1,0,1.6,0c7.5,0,15,0,22.5,0C188.5,114.5,197,114.5,205.5,114.5z"/>
			<path d="M170.9,233.6c-0.5,0.2-0.9,0.4-1.3,0.5c-2.9,0.8-5.8,1.5-8.7,2.3c-3.2,0.8-6.4,1.7-9.6,2.6c-0.4,0.1-0.8,0.2-1.2,0.2
				s-0.8,0-1.3,0c-28.9,0-57.8,0-86.7,0c-0.5,0-1,0-1.6,0c-0.3,0-0.5-0.2-0.5-0.5c0-1.6,0-3.1,0-4.8c0-0.3,0.3-0.4,0.5-0.5
				c0.1,0,0.3,0,0.4,0c0.3,0,0.6,0,1,0c35.7,0,71.4,0,107.2,0C169.6,233.5,170.2,233.4,170.9,233.6z"/>
			<path d="M102.2,114.5c13.4,0,26.8,0,40.2,0c0.5,0,1,0,1.6,0.1c0.2,0,0.4,0.3,0.4,0.4c0,1.9,0,3.7,0,5.5c0,0.2-0.2,0.4-0.4,0.4
				c-0.1,0-0.3,0-0.4,0c-0.4,0-0.8,0-1.1,0c-26.8,0-53.7,0-80.5,0c-0.5,0-1,0-1.6,0c-0.2,0-0.4-0.2-0.4-0.4c0-1.9,0-3.7,0-5.5
				c0-0.1,0-0.1,0-0.1c0.1-0.1,0.1-0.2,0.2-0.3c0.1-0.1,0.2-0.1,0.3-0.1c0.5,0,1,0,1.6,0C75.5,114.5,88.8,114.5,102.2,114.5z"/>
			<path d="M146.8,186.5c0.1-0.1,0.1-0.2,0.3-0.2c1.2-0.5,2.4-1,3.7-1.5c1.5-0.6,3.1-1.4,4.6-2.1c1.1-0.5,2.1-1.2,3-2
				c0.3-0.3,0.6-0.4,1-0.4s0.8,0,1.1,0c19.7,0,39.4,0,59.1,0c1,0,1.9,0,2.8,0.1c0.1,0,0.3,0.1,0.4,0.1c0.1,0,0.3,0.3,0.2,0.4
				s-0.1,0.3-0.1,0.5c-0.7,1.6-1.4,3.2-2.1,4.8c-0.1,0.1-0.1,0.2-0.1,0.3c-0.1,0.2-0.3,0.3-0.5,0.3c-0.4,0-1,0-1.4,0
				c-5.8,0-11.6,0-17.4,0c-17.4,0-34.8,0-52.3,0c-0.6,0-1.2,0-1.7,0C147.1,186.6,147,186.5,146.8,186.5z"/>
			<path d="M297.1,108c-9.7,0-19.5,0-29.2,0c-0.5,0-1,0-1.6-0.1c-0.1,0-0.3-0.3-0.3-0.3c0.2-0.3,0.3-0.6,0.5-1
				c0.9-1.6,1.8-3.2,2.8-4.8c0.2-0.3,0.4-0.6,0.9-0.6c0.3,0,0.6,0,1,0c19.5,0,39.1,0,58.7,0c0.4,0,1-0.1,1.4,0.1
				c0.1,0.1,0.2,0.1,0.1,0.3c0,0.1,0,0.2-0.1,0.3c-1,1.9-1.9,3.8-2.8,5.7c0,0.1-0.1,0.1-0.1,0.1c-0.1,0.2-0.3,0.3-0.5,0.3
				c-0.5,0-1,0-1.6,0C316.6,108,306.9,108,297.1,108z"/>
			<path d="M259.2,180.2c9.8,0,19.5,0,29.3,0c0.5,0,1-0.1,1.5,0.1c0.1,0.1,0.2,0.1,0.1,0.3c0,0.1,0,0.1,0,0.1c-1,2-1.9,4-2.9,6
				c-0.1,0.2-0.3,0.3-0.5,0.4s-0.4,0.1-0.6,0.1c-0.4,0-0.8,0-1.1,0c-17.3,0-34.5,0-51.8,0c-0.4,0-0.8,0-1.1,0c-0.4,0-0.8-0.2-1-0.6
				c-1-1.9-1.9-3.9-2.9-5.8c-0.1-0.3,0-0.4,0.4-0.5c0.1,0,0.3,0,0.4,0c0.4,0,0.8,0,1.3,0C239.9,180.2,249.5,180.2,259.2,180.2z"/>
			<path d="M290.2,121c-9.7,0-19.4,0-29.2,0c-0.5,0-1,0-1.6-0.1c-0.1,0-0.2-0.1-0.1-0.2c0-0.1,0-0.1,0.1-0.1
				c0.9-1.7,1.8-3.5,2.6-5.2c0.1-0.2,0.2-0.4,0.3-0.5c0.1-0.1,0.3-0.2,0.4-0.2c0.4-0.1,1-0.1,1.4-0.1c5.4,0,10.8,0,16.2,0
				c14.1,0,28.2,0,42.3,0c0.5,0,1-0.1,1.5,0.1c0.1,0,0.2,0.1,0.1,0.2c0,0.1-0.1,0.3-0.1,0.4c-0.9,1.7-1.8,3.5-2.7,5.2
				c-0.1,0.3-0.4,0.5-0.8,0.5s-1,0-1.4,0C309.7,121,299.9,121,290.2,121z"/>
			<path d="M314.5,74.9c9.6,0,19.3,0,29,0c0.5,0,1,0,1.6,0.1c0.1,0,0.2,0.1,0.1,0.2c0,0.1-0.1,0.2-0.1,0.3c-0.9,1.6-1.8,3.2-2.8,4.8
				c-0.1,0.1-0.1,0.2-0.2,0.3c-0.3,0.4-0.6,0.6-1.2,0.6c-0.4,0-0.8,0-1.1,0c-19.2,0-38.4,0-57.5,0c-0.5,0-1,0-1.4-0.1
				c-0.3,0-0.4-0.3-0.3-0.6c0.9-1.7,1.8-3.5,2.7-5.2c0.2-0.4,0.5-0.5,0.9-0.5c0.5,0,1,0,1.4,0C295.3,74.9,304.9,74.9,314.5,74.9z"/>
			<path d="M304.3,94.3c-9.7,0-19.4,0-29.1,0c-0.5,0-1,0-1.6-0.1c-0.1,0-0.3-0.2-0.2-0.3c1-1.7,2-3.5,3-5.2c0.2-0.4,0.5-0.5,0.9-0.5
				s0.7,0,1.1,0c19.3,0,38.6,0,58,0c0.5,0,1-0.1,1.5,0.1c0.1,0.1,0.2,0.1,0.1,0.3c0,0.1-0.1,0.2-0.1,0.3c-0.8,1.7-1.6,3.3-2.4,4.9
				c-0.1,0.1-0.1,0.2-0.2,0.3s-0.3,0.2-0.4,0.2c-0.4,0-1,0-1.4,0C323.8,94.3,314,94.3,304.3,94.3z"/>
			<path d="M318.7,67.6c-9.6,0-19.2,0-28.9,0c-0.5,0-1,0.1-1.5-0.1c-0.1,0-0.3-0.3-0.2-0.4c0.1-0.1,0.1-0.3,0.2-0.4
				c0.7-1.4,1.4-2.8,2.1-4.2c0.1-0.2,0.2-0.4,0.3-0.5c0.1-0.2,0.3-0.3,0.5-0.3c0.5,0,1,0,1.4,0c8.9,0,17.7,0,26.6,0
				c10.2,0,20.2,0,30.4,0c0.3,0,0.5,0,0.8,0c1.9,0,1.8,0,1,1.5c-0.6,1.2-1.2,2.4-1.9,3.7c-0.1,0.2-0.2,0.4-0.3,0.5
				c-0.1,0.1-0.3,0.3-0.4,0.3c-0.4,0.1-1,0.1-1.4,0.1c-6,0-12.1,0-18.2,0C325.7,67.6,322.2,67.6,318.7,67.6z"/>
			<path d="M259.1,193.5c7.3,0,14.7,0,22,0c0.4,0,1,0,1.4,0c0.6,0,0.8,0.2,0.5,0.7c-0.8,1.5-1.6,3.1-2.4,4.6c-0.2,0.3-0.4,0.6-0.6,1
				c-0.1,0.1-0.3,0.2-0.4,0.3c-0.1,0.1-0.2,0-0.3,0c-0.4,0-0.7,0-1.1,0c-12.7,0-25.3,0-38,0c-2.1,0-1.8,0.2-2.8-1.7
				c-0.7-1.3-1.4-2.6-2.1-3.9c-0.1-0.3-0.2-0.5-0.3-0.7c-0.1-0.1,0-0.2,0.1-0.3c0.1,0,0.2-0.1,0.3-0.1c0.4,0,1,0,1.4,0
				C244.4,193.5,251.8,193.5,259.1,193.5z"/>
			<path d="M259.2,206.8c5.1,0,10.2,0,15.4,0c0.4,0,0.8,0,1.3,0s0.5,0.3,0.3,0.6c-0.2,0.4-0.5,0.8-0.6,1.3c-0.7,1.3-1.4,2.7-2.1,4
				c-0.1,0.2-0.2,0.4-0.3,0.5c-0.1,0.1-0.2,0.1-0.3,0.1c-0.3,0.1-0.6,0.1-1,0.1c-8.3,0-16.6,0-24.9,0c-0.3,0-0.5,0-0.8,0
				c-0.2,0-0.4-0.1-0.5-0.3c-0.1-0.1-0.2-0.3-0.3-0.4c-1-1.7-2-3.5-3-5.2c-0.1-0.2-0.1-0.4-0.2-0.6l0.1-0.1c0.1-0.1,0.2-0.1,0.3-0.1
				c0.4,0,1,0,1.4,0C249,206.8,254.1,206.8,259.2,206.8z"/>
			<path d="M259.5,219.8c3,0,5.9,0,8.9,0c0.3,0,0.6,0,1,0.1c0.1,0,0.2,0.1,0.1,0.3s-0.1,0.3-0.2,0.4c-0.8,1.7-1.7,3.4-2.5,5.1
				c-0.1,0.2-0.2,0.4-0.3,0.5c-0.1,0.1-0.3,0.2-0.4,0.3c-0.2,0.1-0.5,0.1-0.6,0.1c-4,0-7.9,0-11.9,0c-0.2,0-0.4,0-0.6-0.1
				c-0.1-0.1-0.3-0.1-0.4-0.3c-0.3-0.5-0.6-0.9-0.8-1.3c-0.8-1.4-1.5-2.8-2.2-4.2c-0.1-0.2-0.2-0.4-0.3-0.6c0-0.1,0.1-0.2,0.2-0.2
				c0.4,0,0.7-0.1,1.1-0.1C253.5,219.8,256.5,219.8,259.5,219.8z"/>
			<path d="M550.2,155.1c-0.1,2-0.3,4.5-0.7,6.9c-0.3,1.9-0.8,3.6-1.6,5.3c-1.3,2.5-3.2,4.4-6,5.3c-0.7,0.3-1.5,0.4-2.3,0.5
				c-0.9,0-2,0.1-2.9,0c-2.5-0.3-4.8-1.3-6.4-3.4c-1.7-2.3-2.7-4.8-3-7.4c-0.7-4.4-0.8-6.4-0.5-10.7c0.1-2.7,0.5-5.4,1.3-8.1
				c0.4-1.5,1.1-2.8,2-4.1c1.9-2.8,4.5-4,7.7-4.1c1.1,0,2.1,0,3.2,0.3c3.6,0.9,6,3,7.3,6.5c0.8,2,1.3,4.1,1.5,6.4
				c0,1.1,0.3,2.1,0.4,3.2C550.1,152.4,550.2,153.5,550.2,155.1z M532.1,154.2L532.1,154.2c0,0.8,0,1.5,0,2.3
				c-0.1,2.3,0.3,4.4,0.7,6.5c0.3,1.3,0.8,2.5,1.6,3.6c0.9,1.3,2.1,2.1,3.8,2.1c0.3,0,0.4,0,0.7,0c1.9,0,3.2-0.8,4-2.4
				c0.4-0.7,0.7-1.3,0.9-2.1c0.8-2.5,1.1-5,1.2-7.7c0.1-1.5,0-2.8,0-4.2c0.1-2.3-0.4-4.4-0.7-6.5c-0.1-1.2-0.7-2.3-1.2-3.3
				c-1.1-1.7-2.5-2.7-4.5-2.7c-1.9,0-3.3,0.8-4.4,2.4c-0.5,0.9-1.1,1.9-1.3,2.9c-0.4,1.9-0.9,3.8-0.8,5.8
				C532.1,151.9,532.1,153,532.1,154.2z"/>
			<path d="M507.6,162.1c0.3-0.9,0.7-1.9,0.8-2.8c0.8-3.8,1.6-7.7,2.4-11.5c0.7-2.7,1.1-5.3,1.6-8c0.3-1.2,0.5-2.4,0.8-3.4
				c0-0.1,0.5-0.5,0.8-0.5c1.2,0,2.4,0,3.6,0c0.7,0,1.1,0.7,0.9,1.5c-0.5,2.7-1.1,5.3-1.7,8c-1.1,4.8-2.1,9.5-3.2,14.3
				c-0.8,4-1.7,7.8-2.7,11.8c-0.1,0.3-0.3,0.7-0.4,0.9c-0.3,0.4-0.5,0.7-0.9,0.8c-0.3,0-0.4,0-0.7,0c-1.1,0-2.1,0-3.3,0
				c-1.1,0-1.5-0.5-1.7-1.6c-0.9-4.6-2-9.4-3-14.1c-1.1-4.6-2-9.3-3-14.1c-0.3-1.3-0.7-2.5-0.9-3.8c-0.1-0.7-0.3-1.3-0.4-1.9
				c-0.1-1.2,0.3-1.9,1.6-1.9c0.9,0,2,0,2.9,0.1c0.3,0,0.7,0.4,0.7,0.7c0.4,2,0.9,4,1.3,6.1c1.2,5.6,2.3,11,3.4,16.6
				c0.3,0.9,0.4,1.9,0.7,2.8C507.4,162,507.4,162.1,507.6,162.1z"/>
			<path d="M568.8,160.3c-1.2,2.5-2.3,5.2-3.4,7.7c-0.1,0.4-0.3,0.8-0.5,1.2c-1.9,4-0.9,3.3-6,3.2c-0.5,0-0.9-0.8-0.7-1.2
				c0.3-0.7,0.7-1.3,0.9-2.1c1.9-4,3.8-7.8,5.7-11.8c0.5-1.1,0.9-2.1,1.5-3c0-0.9-0.4-1.5-0.7-2c-2.1-4.5-4.4-9-6.5-13.5
				c-0.1-0.4-0.4-0.8-0.5-1.2c-0.4-0.9,0.1-1.7,1.2-1.7c0.4,0,0.9,0,1.3,0c2.8,0,2.4-0.1,3.6,2.4c1.3,3,2.7,6,4,8.9
				c0.1,0.1,0.3,0.3,0.5,0.3c0.1,0,0.4-0.1,0.5-0.3s0.1-0.4,0.3-0.5c1.3-2.9,2.5-5.8,3.8-8.6c0.3-0.5,0.5-0.9,0.7-1.5
				c0.1-0.3,0.4-0.5,0.8-0.5c1.2,0,2.4,0,3.6,0c0.7,0,1.2,0.8,0.9,1.5c-0.1,0.4-0.3,0.8-0.5,1.2c-0.9,1.9-1.9,3.7-2.7,5.6
				c-1.2,2.5-2.3,4.9-3.4,7.4c-1.5,3.2-1.5,2,0.1,5.3c2,4.4,4.1,8.6,6.2,13c0.3,0.5,0.4,1.1,0.7,1.5c0.1,0.3-0.3,0.9-0.5,1.1
				c-0.3,0-0.4,0.1-0.7,0.1c-1.1,0-2.1,0-3.3,0c-0.4,0-0.8-0.3-1.1-0.7c-0.3-0.5-0.5-0.9-0.7-1.5c-1.3-3-2.7-6.2-4.1-9.3
				C569.7,160.7,569.5,160.3,568.8,160.3z"/>
			<path d="M428.7,154.7c0,5.2,0,10.2,0,15.4c0,0.5,0,1.1-0.1,1.6c0,0.1-0.3,0.4-0.4,0.4c-0.3,0.1-0.7,0.1-0.9,0.1
				c-0.4,0-0.8-0.1-1.1-0.7c-0.3-0.5-0.5-0.9-0.7-1.5c-3.6-9-7.2-18-10.7-27c-0.3-0.5-0.4-1.1-0.7-1.5c-0.1-0.1-0.4-0.3-0.5-0.3
				l-0.1,0.1c0,0.9-0.1,1.7-0.1,2.7c0,8,0,15.9,0,23.9c0,0.9,0,2-0.1,2.9c0,0.4-0.4,0.8-0.9,0.8c-0.1,0-0.3,0-0.3,0
				c-0.5,0-0.9-0.4-0.9-0.8c0-0.5-0.1-1.1-0.1-1.6c0-10.1,0-20.3,0-30.4c0-0.5,0-1.1,0-1.6s0.4-0.9,1.1-0.9c0.5,0,1.1,0,1.6,0
				c0.3,0,0.7,0.3,0.8,0.5c0.1,0.4,0.4,0.8,0.5,1.2c3.3,8.5,6.8,17,10.1,25.5c0.1,0.4,0.4,0.8,0.7,1.1c0,0,0.1,0,0.3,0
				c0.1-0.1,0.1-0.1,0.1-0.3c0-0.9,0.1-2,0.1-2.9c0-7.3,0-14.6,0-21.9c0-0.8,0-1.5,0-2.3c0-0.5,0.4-0.9,1.1-0.9c0.3,0,0.4,0,0.7,0
				c0.3,0,0.7,0.4,0.7,0.7c0,0.7,0.1,1.3,0.1,2C428.7,144.4,428.7,149.5,428.7,154.7z"/>
			<path d="M351.9,154c0-5,0-9.9,0-15c0-0.7,0-1.3,0.1-2c0-0.1,0.3-0.4,0.4-0.4c0.1-0.1,0.4-0.1,0.7-0.1c2.7,0,5.2-0.1,7.8,0
				c4.4,0.1,7.6,2.7,8.9,6.4c0.7,2,1.2,4,1.3,6c0.1,3.4,0.3,6.9,0,10.5c-0.1,2.7-0.8,5.2-2,7.6c-0.4,0.9-0.9,1.7-1.7,2.4
				c-1.6,1.6-3.6,2.4-5.8,2.5c-2.9,0.1-5.8,0-8.7,0c-0.4,0-0.8-0.4-0.8-0.8c0-0.9,0-1.7,0-2.7C351.9,163.6,351.9,158.8,351.9,154z
				 M354.2,154c0,4.4,0,8.7,0,13.1c0,0.7,0,1.3,0,2c0,0.3,0.4,0.7,0.7,0.7c2.1,0,4.1,0.1,6.2,0c3.6-0.4,5.7-2.3,6.6-5.4
				c0.4-1.5,0.8-2.9,0.8-4.5c0-1.5,0.3-2.8,0.3-4.2c0-0.9,0-2,0-2.9c-0.1-1.5-0.3-3-0.4-4.5c0-1.6-0.4-3-0.9-4.5
				c-0.5-1.9-1.7-3.3-3.6-4.1c-0.9-0.4-2.1-0.8-3-0.9c-2.1-0.1-4.1,0-6.2,0c-0.1,0-0.4,0.3-0.4,0.4c-0.1,0.5-0.1,1.1-0.1,1.6
				C354.2,145.2,354.2,149.5,354.2,154z"/>
			<path d="M489.9,171.4c-0.7,0.7-1.5,0.5-2.1,0.3c-0.1,0-0.4-0.3-0.4-0.4c-0.1-0.4-0.4-0.8-0.5-1.2c-0.8-2.7-1.5-5.2-2.3-7.8
				c-0.1-0.5-0.7-0.9-1.2-0.9c-3.3,0-6.8,0-10.1,0c-0.5,0-1.1,0.4-1.2,0.9c-0.5,1.7-1.1,3.3-1.5,5c-0.4,1.2-0.8,2.5-1.2,3.7
				c-0.3,0.8-0.5,0.9-1.5,0.9c-0.3,0-0.4,0-0.7,0s-0.7-0.4-0.5-0.7c1.2-4,2.5-7.8,3.7-11.8c2.3-6.9,4.4-13.9,6.6-20.8
				c0.3-0.8,0.4-1.7,0.9-2.4c0,0,0.1-0.1,0.3-0.1c0.1,0,0.3,0,0.3,0.1c0.1,0.1,0.3,0.4,0.4,0.5c1.5,4.5,2.9,9.1,4.4,13.7
				c2.1,6.4,4.1,12.9,6.2,19.2C489.7,170.1,489.8,170.7,489.9,171.4z M478.4,158.9c1.5,0,3-0.1,4.5-0.1c0.3,0,0.5-0.5,0.5-0.8
				c-1.6-5-3-9.9-4.6-15c0-0.1-0.3-0.3-0.5-0.4c-0.1-0.1-0.3,0.1-0.4,0.4c-1.2,4-2.4,8-3.7,11.8c-0.3,1.1-0.5,2.1-0.9,3.2
				c0,0.3,0.3,0.8,0.5,0.8C475.4,158.8,476.8,158.8,478.4,158.9z"/>
			<path d="M382.7,153.9c0-4.8,0-9.5,0-14.3c0-0.8,0-1.5,0.1-2.3c0-0.4,0.5-0.8,0.9-0.8c0.3,0,0.4,0,0.7,0c4.6,0,9.4,0,14.1,0
				c0.3,0,0.7,0,0.9,0.1c0.1,0,0.5,0.5,0.5,0.7c0,0.7-0.3,1.2-0.8,1.2c-1.1,0-2.1,0-3.3,0.1c-3.3,0-6.8,0-10.1,0.1
				c-0.3,0-0.7,0.4-0.7,0.5s0,0.3,0,0.3c0,4,0,8.1,0,12.1c0,0.8,0.4,1.1,1.3,1.1c2.4,0,4.8,0,7.2,0c0.5,0,1.1,0,1.6,0.1
				c0.3,0,0.7,0.4,0.7,0.7c0,0.3,0,0.7-0.1,0.9c0,0.1-0.3,0.3-0.5,0.4c-0.5,0.1-1.1,0.1-1.6,0.1c-2.5,0-5,0-7.6,0
				c-0.7,0-0.9,0.4-0.9,1.1c0,4.4,0,8.7,0,13c0,0.4,0.4,0.8,0.8,0.8c1.2,0,2.4,0,3.6,0c3,0,6.1,0,9.1,0c0.4,0,0.8,0.1,1.3,0.1
				c0.1,0,0.5,0.5,0.5,0.8c0,0.5-0.3,0.9-0.5,1.1c-0.3,0-0.4,0.1-0.7,0.1c-5,0-10.1,0-15,0c-0.1,0-0.3,0-0.3,0
				c-0.7,0-1.1-0.4-1.1-0.9c0-0.9,0-1.7,0-2.7C382.7,163.4,382.7,158.7,382.7,153.9z"/>
			<path d="M447.7,155c0-4.1,0-8.2,0-12.5c0-0.9,0-1.7,0-2.7s-0.1-1.5-1.3-1.5c-1.9,0-3.7,0-5.6,0c-0.8,0-1.5,0-2.3,0
				c-0.5,0-0.9-0.5-0.8-1.2c0-0.3,0.4-0.7,0.5-0.8c0.3,0,0.7-0.1,0.9-0.1c6.5,0,13.1,0,19.6,0c0.3,0,0.4,0,0.7,0
				c0.4,0,0.7,0.5,0.7,0.9s-0.3,0.9-0.7,0.9c-0.5,0-1.1,0.1-1.6,0.1c-2,0-4,0-5.8,0c-1.6,0-1.7,0.1-1.7,1.9c0,4,0,8.1,0,12.1
				c0,5.4,0,10.9,0,16.3c0,0.8,0,1.5-0.1,2.3c0,0.3-0.4,0.7-0.7,0.7c-0.4,0-0.9,0-1.3,0c-0.1,0-0.4-0.3-0.4-0.4
				c-0.1-0.7-0.1-1.3-0.1-2C447.7,164.5,447.7,159.7,447.7,155z"/>
			<path d="M259.3,233.1c1,0,2.1,0.1,3.1,0.1c0.1,0,0.3,0.3,0.2,0.4c-0.1,0.2-0.2,0.4-0.3,0.6c-0.3,0.5-0.5,1-0.8,1.5
				c-0.7,1.3-1.3,2.6-2.1,3.9c-0.1,0.3-0.4,0.3-0.5,0.1c-1.1-2.1-2.2-4-3.3-6.1c-0.1-0.1,0.1-0.3,0.3-0.3c0.2,0,0.5-0.1,0.6-0.1
				C257.5,233.1,258.4,233.1,259.3,233.1L259.3,233.1z"/>
		</g>
	</g>
</g>
</svg>
