<?xml version="1.0" encoding="utf-8"?>
<!-- Generator: Adobe Illustrator 21.0.2, SVG Export Plug-In . SVG Version: 6.00 Build 0)  -->
<svg version="1.2" baseProfile="tiny" xmlns="http://www.w3.org/2000/svg" xmlns:xlink="http://www.w3.org/1999/xlink" x="0px"
	 y="0px" viewBox="0 0 164 104" overflow="scroll" xml:space="preserve">
<g id="Layer_1" display="none">
	<polygon display="inline" fill="none" stroke="#136685" stroke-miterlimit="10" points="19.1,3.9 27.3,3.9 27.3,38.9 22.4,38.9 	
		"/>
	<path id="XMLID_1_" display="inline" fill="#166584" d="M111.4,43.3c-7.7,10.8-22.7,13.4-33.5,5.7c-5.3-3.8-8.6-9.4-9.7-15.4
		c-1.1-6.1,0.2-12.7,4.1-18.2c7.7-10.8,22.7-13.4,33.5-5.7S119.1,32.5,111.4,43.3z"/>
	<path display="inline" fill="#FFFFFF" d="M77.8,29.5l-9.6,4.3c0,0,0,3.7,3.7,9.2l7.3-5l4.9-3.4l5.3-3.8c0,0,1.7-1.2,1.8-1.2
		l0.2-0.1c0,0,0.1,0,0.1,0l0.1,0l0,0c0,0,0,0,0.1,0l0,0l0,0.1l0,0.2l-0.2,0.6l-0.3,1.2l-1.4,4.5l-1.2,3.9l-1.8,6l-1.2,4.3l-0.7,2.3
		c0,0,4.7,1.7,10.5,0.7l0.1-5.3l0.3-3.8l0.6-4.3l0.6-3.7l0.7-3.3l0.9-3.1l0.9-3l1-3.4l1.2-3.5l1.3-3.4l1.4-3.8l0.6-1.9L102,13
		l-4.3,3.3l-3.3,2.5l-3.8,2.7l-3.1,2.2l-3.2,2l-3.2,1.8L77.8,29.5z"/>
	<path display="inline" fill="#FFFFFF" stroke="#FFFFFF" stroke-miterlimit="10" d="M52.2,18.3c0,0,5.5,2.4,12.1,6.8l13.9,7.8
		c0,0,2.9,1.5,3.3,4.6c0,0,0.6,2.4-1,5.5c0,0-2.1,4.5-7.9,4.4L45.5,39"/>
	<path display="inline" fill="#FFFFFF" stroke="#136685" stroke-miterlimit="10" d="M31.3,7h3.3l20.6-5.8c0,0,2.1-0.5,5.8,0
		S77.2,4,77.2,4L64.4,19.1h-4.6c0,0-3.9,0.9-2.6,4.4c0,0,0.4,1.2,1.7,1.7c0,0,3.6,1.6,8,4.5l9.2,5.1c0,0,1.8,1.2,2,3.3
		c0,0,0.2,1.2-0.5,3.4c0,0-1.1,3.4-5.3,2.9l-17.9-5.6c0,0-5.1-1.8-6.7-3.3c0,0-4.2-5.1-5.4-4.6c0,0-0.2-0.3-3.7,0.4l-7.4,2V7z"/>
	<polygon display="inline" fill="none" stroke="#136685" stroke-miterlimit="10" points="145.8,103 114.1,103 114.1,98.6 
		145.8,95.7 	"/>
	<path display="inline" fill="none" stroke="#136685" stroke-miterlimit="10" d="M116,96l26.6-2.5c0,0-6.5-18.4-9.5-21.2
		c0,0-3.9-6.6-13.2-6.7H94.7c0,0-4.1,0.3-4.2,4.6c0,0-0.2,3.7,4,4.7h12.6c0,0,1.2,0.4,1.2,1.6c0,0-0.1,1-1.2,1.3
		c-1.1,0.3-19.7,0-19.7,0s-4.2-0.4-6.3-1.9c-2.1-1.5-6.3-4.2-6.3-4.2s-1.9-1.5-4.8-3.5l-4.5-3c0,0-3.5-1.9-6.2,1.2
		c-2.7,3.1-0.2,6.3-0.2,6.3s3.2,3,3.9,3.5c0.7,0.5,9.7,8.7,9.7,8.7s5.7,5.6,12.4,6.4h23.1C108.3,91.3,113.6,91.4,116,96z"/>
	<path display="inline" fill="#FFFFFF" stroke="#136685" stroke-miterlimit="10" d="M42.3,50.7"/>
</g>
<g id="Layer_2" display="none">
	<path id="XMLID_2_" display="inline" fill="#166584" d="M113.3,53.3c-0.5,28.3-23.8,50.8-51.9,50.3c-13.9-0.2-26.4-6.1-35.5-15.3
		C16.6,78.9,11,65.8,11.2,51.5C11.7,23.2,35,0.6,63.2,1.1S113.8,25,113.3,53.3z"/>
	<path display="inline" fill="#FFFFFF" d="M37.7,69.5L26.1,88.6c0,0,4.5,6.4,17.6,11.6l6.7-17.6l4.5-11.8l4.7-13
		c0,0,1.6-4.3,1.6-4.3l0.2-0.5c0,0,0.1-0.2,0.1-0.2l0.1-0.1l0.1-0.1c0,0,0.1-0.1,0.1-0.1l0.1,0l0.1,0.1l0.2,0.4l0.4,1.3l0.8,2.5
		l3,9.4l2.6,8.3l4,12.7l3.1,9l1.6,4.9c0,0,10.3-2.7,19.2-11.4l-6.2-9.5l-4-7.1L82.8,65l-3.4-7.2l-2.7-6.6l-2.2-6.5l-2-6.4l-2.2-7.2
		l-2.1-7.6L66.2,16L64,7.6l-1.2-4.2l-2.5,7.9l-3.5,11L54,30.7l-3.3,9.3L48,47.7l-3.1,7.3l-3.3,7L37.7,69.5z"/>
	<path display="inline" fill="none" stroke="#136685" stroke-miterlimit="10" d="M114.8,17.1c0,0,1.6-1,2.8-1.1
		c1.3-0.1,12.4,1.1,12.4,1.1l3,0.3c0,0,3.8,0.9,6.4,3.2c1.7,1.7,2.4,2.9,2.4,2.9l17.3,23.2c0,0,2.4,3.5-0.5,6.7
		c-1.6,1.5-21.5,16.1-21.5,16.1s-3.1,2.2-6.5-0.4l-18.8-25.3c0,0-2.6-2.8-2.4-8.6l2.7-13.1l3.2,2.4c0,0,0.8,4.5,5.6,3.2
		c1.9-0.7,2.6-2.4,2.6-2.4s1.3-3.6-2.3-5.6c0,0-1.8-0.7-3.3,0L114.8,17.1z"/>
	<path display="inline" fill="none" stroke="#136685" stroke-miterlimit="10" d="M119.2,22.5l-1.3,1.7l-9.7-7.2c0,0-3.6-2.1-6.7,0.7
		c0,0-3.8,4.3,0.8,8.3l-1.4,1.8c0,0-1.9-1.1-2.9-4c0,0-1.2-3.2,0.5-5.8s3.4-3.3,3.4-3.3s2.3-1.4,5.9-0.4c1,0.5,1.8,0.7,3,1.7
		C111.9,17,119.2,22.5,119.2,22.5z"/>
	
		<text transform="matrix(0.596 0.803 -0.803 0.596 122.5944 34.893)" display="inline" fill="#231F20" font-family="'Poppins-Bold'" font-size="12.972px">20%</text>
</g>
<g id="Layer_3">
	<path fill="none" stroke="#166584" stroke-miterlimit="10" d="M40.8,101.6h-9.2c-2.3,0-4.3-1.9-4.3-4.3v-30c0-2.3,1.9-4.3,4.3-4.3
		h9.2c2.3,0,4.3,1.9,4.3,4.3v30C45.1,99.7,43.2,101.6,40.8,101.6z"/>
	<path fill="none" stroke="#166584" stroke-miterlimit="10" d="M66.4,101.6h-9.2c-2.3,0-4.3-1.9-4.3-4.3v-45c0-2.3,1.9-4.3,4.3-4.3
		h9.2c2.3,0,4.3,1.9,4.3,4.3v45C70.7,99.7,68.8,101.6,66.4,101.6z"/>
	<path fill="#FFFFFF" stroke="#166584" stroke-miterlimit="10" d="M106.3,30.3c0,0-15.9-25.9-17.5-28.3s-3.5,0-3.5,0
		S69.6,27.4,68,30c-1.6,2.5,1,3.4,1,3.4h8.9h0h0.2v65.7c0,1.4,1.2,2.6,2.6,2.6h12.7c1.4,0,2.6-1.2,2.6-2.6V33.5c4.3,0,8,0,8.9-0.2
		C107.5,33,106.3,30.3,106.3,30.3z"/>
	<path id="XMLID_3_" fill="#FFFFFF" d="M153.6,78.4c-0.3,18.1-15.2,32.6-33.3,32.3c-8.9-0.2-16.9-3.9-22.7-9.8
		c-5.9-6.1-9.5-14.4-9.4-23.6c0.3-18.1,15.2-32.6,33.3-32.3S153.9,60.3,153.6,78.4z"/>
	<path id="XMLID_4_" fill="#166584" d="M146.7,78.3c-0.3,14.3-12,25.8-26.3,25.5c-7.1-0.1-13.4-3.1-18-7.8
		c-4.7-4.8-7.5-11.4-7.4-18.7c0.3-14.3,12-25.8,26.3-25.5C135.6,52.1,147,64,146.7,78.3z"/>
	<path fill="#FFFFFF" d="M108.4,86.5l-5.9,9.7c0,0,2.3,3.2,8.9,5.9l3.4-8.9l2.3-6l2.4-6.6c0,0,0.8-2.2,0.8-2.2l0.1-0.2
		c0,0,0-0.1,0.1-0.1l0.1-0.1l0,0c0,0,0,0,0.1,0l0.1,0l0.1,0l0.1,0.2l0.2,0.6l0.4,1.3l1.5,4.8l1.3,4.2l2,6.5l1.6,4.6l0.8,2.5
		c0,0,5.2-1.4,9.7-5.8l-3.1-4.8l-2-3.6l-2.1-4.2l-1.7-3.7l-1.4-3.3l-1.1-3.3l-1-3.2l-1.1-3.6l-1.1-3.8l-1-3.8l-1.1-4.2l-0.6-2.1
		l-1.3,4l-1.8,5.6l-1.4,4.2l-1.7,4.7l-1.4,3.9l-1.6,3.7l-1.7,3.5L108.4,86.5z"/>
</g>
</svg>
