<?xml version="1.0" encoding="utf-8"?>
<!-- Generator: Adobe Illustrator 21.0.2, SVG Export Plug-In . SVG Version: 6.00 Build 0)  -->
<svg version="1.2" baseProfile="tiny" id="Layer_1" xmlns="http://www.w3.org/2000/svg" xmlns:xlink="http://www.w3.org/1999/xlink"
	 x="0px" y="0px" viewBox="0 0 164 104" xml:space="preserve">
<polygon fill="none" stroke="#136685" stroke-miterlimit="10" points="19.1,3.9 27.3,3.9 27.3,38.9 22.4,38.9 "/>
<path id="XMLID_1_" fill="#166584" d="M111.4,43.3c-7.7,10.8-22.7,13.4-33.5,5.7c-5.3-3.8-8.6-9.4-9.7-15.4
	c-1.1-6.1,0.2-12.7,4.1-18.2c7.7-10.8,22.7-13.4,33.5-5.7S119.1,32.5,111.4,43.3z"/>
<path fill="#FFFFFF" d="M77.8,29.5l-9.6,4.3c0,0,0,3.7,3.7,9.2l7.3-5l4.9-3.4l5.3-3.8c0,0,1.7-1.2,1.8-1.2l0.2-0.1c0,0,0.1,0,0.1,0
	l0.1,0l0,0c0,0,0,0,0.1,0l0,0l0,0.1l0,0.2l-0.2,0.6l-0.3,1.2l-1.4,4.5l-1.2,3.9l-1.8,6l-1.2,4.3l-0.7,2.3c0,0,4.7,1.7,10.5,0.7
	l0.1-5.3l0.3-3.8l0.6-4.3l0.6-3.7l0.7-3.3l0.9-3.1l0.9-3l1-3.4l1.2-3.5l1.3-3.4l1.4-3.8l0.6-1.9L102,13l-4.3,3.3l-3.3,2.5l-3.8,2.7
	l-3.1,2.2l-3.2,2l-3.2,1.8L77.8,29.5z"/>
<path fill="#FFFFFF" stroke="#FFFFFF" stroke-miterlimit="10" d="M52.2,18.3c0,0,5.5,2.4,12.1,6.8l13.9,7.8c0,0,2.9,1.5,3.3,4.6
	c0,0,0.6,2.4-1,5.5c0,0-2.1,4.5-7.9,4.4L45.5,39"/>
<path fill="#FFFFFF" stroke="#136685" stroke-miterlimit="10" d="M31.3,7h3.3l20.6-5.8c0,0,2.1-0.5,5.8,0S77.2,4,77.2,4L64.4,19.1
	h-4.6c0,0-3.9,0.9-2.6,4.4c0,0,0.4,1.2,1.7,1.7c0,0,3.6,1.6,8,4.5l9.2,5.1c0,0,1.8,1.2,2,3.3c0,0,0.2,1.2-0.5,3.4
	c0,0-1.1,3.4-5.3,2.9l-17.9-5.6c0,0-5.1-1.8-6.7-3.3c0,0-4.2-5.1-5.4-4.6c0,0-0.2-0.3-3.7,0.4l-7.4,2V7z"/>
<polygon fill="none" stroke="#136685" stroke-miterlimit="10" points="145.8,103 114.1,103 114.1,98.6 145.8,95.7 "/>
<path fill="none" stroke="#136685" stroke-miterlimit="10" d="M116,96l26.6-2.5c0,0-6.5-18.4-9.5-21.2c0,0-3.9-6.6-13.2-6.7H94.7
	c0,0-4.1,0.3-4.2,4.6c0,0-0.2,3.7,4,4.7h12.6c0,0,1.2,0.4,1.2,1.6c0,0-0.1,1-1.2,1.3c-1.1,0.3-19.7,0-19.7,0s-4.2-0.4-6.3-1.9
	c-2.1-1.5-6.3-4.2-6.3-4.2s-1.9-1.5-4.8-3.5l-4.5-3c0,0-3.5-1.9-6.2,1.2c-2.7,3.1-0.2,6.3-0.2,6.3s3.2,3,3.9,3.5
	c0.7,0.5,9.7,8.7,9.7,8.7s5.7,5.6,12.4,6.4h23.1C108.3,91.3,113.6,91.4,116,96z"/>
<path fill="#FFFFFF" stroke="#136685" stroke-miterlimit="10" d="M42.3,50.7"/>
</svg>
