<?xml version="1.0" encoding="utf-8"?>
<!-- Generator: Adobe Illustrator 21.0.2, SVG Export Plug-In . SVG Version: 6.00 Build 0)  -->
<svg version="1.0" id="Layer_1" xmlns="http://www.w3.org/2000/svg" xmlns:xlink="http://www.w3.org/1999/xlink" x="0px" y="0px"
	 viewBox="0 0 611 300" enable-background="new 0 0 611 300" xml:space="preserve">
<polygon fill="#77CBED" points="124.9,68.9 124.9,86.9 155.9,104.8 169.3,94.7 "/>
<polygon fill="#4BB8E3" points="115.8,68.9 115.8,86.9 76,110.4 60,101.1 "/>
<polygon fill="#0096C8" points="55.5,109 70.9,118.1 70.9,163.6 55.5,172.7 "/>
<polygon fill="#1C77BD" points="59,180.8 74.4,172 115.7,195.6 115.7,214 "/>
<polygon fill="#205DB0" points="125,214 125,195.9 166.3,171.8 182.1,181 "/>
<polygon fill="#152D73" points="185.2,116.3 185.2,172.4 169.7,163.3 169.7,133.4 "/>
<polygon points="106.8,129.5 92.4,144 121.1,173.5 207.8,76.8 121.5,144.3 "/>
<g>
	<linearGradient id="SVGID_1_" gradientUnits="userSpaceOnUse" x1="220.0791" y1="125.1815" x2="220.0791" y2="157.7871">
		<stop  offset="0" style="stop-color:#0071C9"/>
		<stop  offset="1" style="stop-color:#003B75"/>
	</linearGradient>
	<path fill="url(#SVGID_1_)" d="M232.3,130.8h-9v27h-6.4v-27h-9v-5.6h24.4V130.8z"/>
	<linearGradient id="SVGID_2_" gradientUnits="userSpaceOnUse" x1="241.095" y1="133.588" x2="241.095" y2="157.7871">
		<stop  offset="0" style="stop-color:#0071C9"/>
		<stop  offset="1" style="stop-color:#003B75"/>
	</linearGradient>
	<path fill="url(#SVGID_2_)" d="M249.6,136.6l-3.1,5c-0.6-0.6-1.2-1.2-1.9-1.7c-0.7-0.5-1.4-0.7-2.1-0.7c-0.4,0-0.8,0.1-1.2,0.3
		c-0.4,0.2-0.9,0.5-1.3,0.9c-0.4,0.4-0.7,0.9-1,1.6c-0.3,0.7-0.4,1.5-0.4,2.5v13.3h-5.9v-23.6h5.9v2.5c0.7-1,1.5-1.8,2.3-2.3
		c0.9-0.5,1.8-0.8,2.9-0.8c1,0,2,0.3,3,0.8C247.8,135,248.7,135.7,249.6,136.6z"/>
	<linearGradient id="SVGID_3_" gradientUnits="userSpaceOnUse" x1="261.8863" y1="134.2001" x2="261.8863" y2="158.3584">
		<stop  offset="0" style="stop-color:#0071C9"/>
		<stop  offset="1" style="stop-color:#003B75"/>
	</linearGradient>
	<path fill="url(#SVGID_3_)" d="M272.5,157.8h-5.9V156c-0.4,0.4-0.8,0.7-1.3,1c-0.5,0.3-1,0.5-1.6,0.7c-0.6,0.2-1.1,0.4-1.7,0.5
		c-0.6,0.1-1.1,0.2-1.7,0.2c-1.2,0-2.3-0.2-3.4-0.6c-1.1-0.4-2.1-1-2.9-1.8c-0.8-0.8-1.5-1.8-2-3.1c-0.5-1.3-0.8-2.7-0.8-4.4v-14.3
		h5.9v14c0,0.8,0.1,1.6,0.4,2.2c0.3,0.6,0.6,1.2,1,1.6c0.4,0.4,0.9,0.7,1.5,0.9c0.6,0.2,1.1,0.3,1.7,0.3c1.9,0,3.6-0.7,4.9-2v-17.1
		h5.9V157.8z"/>
	<linearGradient id="SVGID_4_" gradientUnits="userSpaceOnUse" x1="285.6767" y1="133.588" x2="285.6767" y2="158.4401">
		<stop  offset="0" style="stop-color:#0071C9"/>
		<stop  offset="1" style="stop-color:#003B75"/>
	</linearGradient>
	<path fill="url(#SVGID_4_)" d="M294.7,151.2c0,1.2-0.3,2.2-0.8,3.1c-0.5,0.9-1.3,1.7-2.1,2.3c-0.9,0.6-1.9,1.1-2.9,1.4
		c-1.1,0.3-2.2,0.5-3.2,0.5c-1.8,0-3.5-0.3-5-1c-1.5-0.7-2.8-1.7-4-3.2l3.6-3.6c0.7,0.9,1.5,1.6,2.4,2.1c0.9,0.5,1.9,0.8,3,0.8
		c0.9,0,1.7-0.2,2.3-0.5c0.6-0.3,0.9-0.8,0.9-1.5c0-0.7-0.4-1.3-1.3-1.8c-0.9-0.5-2.1-0.9-3.7-1.4c-0.9-0.3-1.8-0.6-2.7-1
		c-0.9-0.4-1.6-0.9-2.3-1.6c-0.7-0.6-1.2-1.3-1.6-2.1c-0.4-0.8-0.6-1.7-0.6-2.7c0-1.1,0.3-2.2,0.8-3.1c0.5-0.9,1.2-1.7,2.1-2.3
		s1.8-1.1,2.9-1.4c1.1-0.3,2.2-0.5,3.3-0.5c3.6,0,6.5,1.4,8.8,4.1l-3.5,3.6c-0.7-0.8-1.5-1.5-2.3-2c-0.9-0.5-1.8-0.7-2.9-0.7
		c-0.4,0-0.7,0-1.1,0.1c-0.4,0.1-0.8,0.2-1.1,0.4c-0.3,0.2-0.6,0.4-0.8,0.7c-0.2,0.3-0.3,0.6-0.3,1c0,0.6,0.4,1.2,1.2,1.6
		c0.8,0.5,2,0.9,3.6,1.4c1,0.3,2,0.7,2.9,1.1c0.9,0.5,1.7,1,2.4,1.6c0.7,0.6,1.2,1.3,1.6,2.1C294.5,149.3,294.7,150.2,294.7,151.2z"
		/>
	<linearGradient id="SVGID_5_" gradientUnits="userSpaceOnUse" x1="304.0196" y1="127.2627" x2="304.0196" y2="158.3992">
		<stop  offset="0" style="stop-color:#0071C9"/>
		<stop  offset="1" style="stop-color:#003B75"/>
	</linearGradient>
	<path fill="url(#SVGID_5_)" d="M311.5,157.3c-0.6,0.4-1.3,0.7-2.1,0.9c-0.8,0.2-1.6,0.3-2.4,0.3c-1.4,0-2.6-0.2-3.5-0.5
		c-1-0.3-1.7-0.9-2.3-1.6c-0.6-0.7-1-1.6-1.2-2.7c-0.3-1.1-0.4-2.4-0.4-3.8v-10.3h-3.1v-2.7c1.9-0.8,3.4-2,4.6-3.5
		c1.2-1.6,2-3.6,2.4-6h1.9v6.9h6v5.3h-6v10.7c0,0.6,0.1,1.1,0.2,1.5c0.1,0.4,0.3,0.7,0.6,0.9c0.2,0.2,0.5,0.4,0.8,0.4
		c0.3,0.1,0.6,0.1,1,0.1c0.5,0,1-0.1,1.7-0.2c0.7-0.2,1.2-0.4,1.7-0.8V157.3z"/>
	<linearGradient id="SVGID_6_" gradientUnits="userSpaceOnUse" x1="326.7494" y1="133.588" x2="326.7494" y2="158.3992">
		<stop  offset="0" style="stop-color:#0071C9"/>
		<stop  offset="1" style="stop-color:#003B75"/>
	</linearGradient>
	<path fill="url(#SVGID_6_)" d="M339.3,146c0,0.4,0,0.8-0.1,1.2s-0.1,0.8-0.1,1.3h-18.9c0.2,0.7,0.5,1.3,0.9,1.9
		c0.4,0.6,0.9,1.1,1.4,1.6c0.6,0.4,1.2,0.8,1.9,1.1c0.7,0.3,1.5,0.4,2.4,0.4c1.1,0,2.1-0.2,3.2-0.6c1.1-0.4,1.9-0.9,2.7-1.5l3.7,3.7
		c-1.6,1.2-3.2,2.1-4.8,2.6c-1.6,0.5-3.2,0.8-5,0.8c-1.8,0-3.4-0.3-5-1c-1.5-0.7-2.9-1.5-4-2.7c-1.1-1.1-2-2.4-2.7-3.9
		c-0.7-1.5-1-3.1-1-4.8s0.3-3.3,1-4.8c0.7-1.5,1.6-2.8,2.7-3.9c1.1-1.1,2.5-2,4-2.7c1.5-0.7,3.2-1,4.9-1c1.7,0,3.3,0.3,4.8,0.9
		c1.5,0.6,2.9,1.5,4,2.6c1.2,1.1,2.1,2.4,2.8,3.9C339,142.5,339.3,144.1,339.3,146z M333.2,143.7c-0.5-1.5-1.3-2.7-2.5-3.6
		c-1.2-0.9-2.5-1.4-4-1.4c-1.5,0-2.8,0.5-4,1.4c-1.2,0.9-2,2.1-2.4,3.6H333.2z"/>
	<linearGradient id="SVGID_7_" gradientUnits="userSpaceOnUse" x1="353.5399" y1="123.9165" x2="353.5399" y2="158.3584">
		<stop  offset="0" style="stop-color:#0071C9"/>
		<stop  offset="1" style="stop-color:#003B75"/>
	</linearGradient>
	<path fill="url(#SVGID_7_)" d="M364.9,157.8h-6v-1.2c-0.8,0.6-1.6,1.1-2.5,1.4c-0.9,0.3-1.9,0.4-2.9,0.4c-1.7,0-3.2-0.3-4.6-1
		c-1.4-0.7-2.6-1.6-3.6-2.7c-1-1.1-1.8-2.4-2.3-3.9c-0.6-1.5-0.8-3.1-0.8-4.7c0-1.8,0.3-3.4,1-4.9c0.6-1.5,1.5-2.8,2.6-3.9
		c1.1-1.1,2.3-2,3.6-2.6c1.4-0.6,2.8-1,4.2-1c1,0,2,0.1,2.9,0.4c1,0.3,1.8,0.7,2.4,1.1v-11.2h6V157.8z M359,151.5v-11.3
		c-0.3-0.2-0.6-0.4-0.9-0.6c-0.4-0.2-0.7-0.3-1.1-0.4c-0.4-0.1-0.8-0.2-1.1-0.3c-0.4-0.1-0.7-0.1-1-0.1c-1,0-1.9,0.2-2.7,0.5
		c-0.8,0.3-1.5,0.8-2.1,1.5c-0.6,0.6-1.1,1.4-1.4,2.3c-0.3,0.9-0.5,1.9-0.5,3c0,1.1,0.2,2,0.5,2.9c0.3,0.9,0.8,1.6,1.4,2.3
		c0.6,0.6,1.3,1.1,2.1,1.5c0.8,0.4,1.7,0.5,2.6,0.5C356.2,153.2,357.6,152.6,359,151.5z"/>
</g>
<g>
	<linearGradient id="SVGID_8_" gradientUnits="userSpaceOnUse" x1="393.8805" y1="125.1407" x2="393.8805" y2="157.7871">
		<stop  offset="0" style="stop-color:#5BA1C2"/>
		<stop  offset="1" style="stop-color:#104777"/>
	</linearGradient>
	<path fill="url(#SVGID_8_)" d="M406.1,157.8h-7l-2.3-7.4c-0.2-0.8-0.5-1.6-0.9-2.2c-0.4-0.7-0.8-1.3-1.3-1.8
		c-0.5-0.5-1.1-0.9-1.9-1.1c-0.7-0.3-1.6-0.4-2.5-0.4h-2.4v13h-6.2v-32.6l12.9,0c1.4,0,2.7,0.2,3.9,0.7c1.2,0.5,2.2,1.1,3.1,2
		c0.9,0.8,1.5,1.8,2,3c0.5,1.1,0.7,2.4,0.7,3.7c0,1-0.1,1.9-0.4,2.8c-0.3,0.9-0.7,1.7-1.3,2.5c-0.5,0.8-1.2,1.4-1.9,2
		c-0.7,0.6-1.6,1-2.5,1.3c1,0.4,1.9,0.9,2.5,1.7c0.6,0.7,1.2,1.6,1.5,2.6c0.2,0.5,0.4,0.9,0.5,1.4c0.2,0.5,0.3,0.9,0.5,1.4
		c0.2,0.5,0.4,1,0.6,1.6c0.2,0.6,0.4,1.2,0.7,1.9c0.3,0.9,0.6,1.7,0.8,2.3C405.6,156.7,405.8,157.3,406.1,157.8z M397.9,135
		c0-0.8-0.1-1.5-0.4-2.1c-0.3-0.6-0.7-1.2-1.2-1.6c-0.5-0.5-1.1-0.8-1.7-1.1c-0.7-0.3-1.4-0.4-2.1-0.4h-4.6V140h4.6
		c0.8,0,1.5-0.1,2.1-0.3c0.7-0.2,1.2-0.6,1.7-1c0.5-0.4,0.9-1,1.2-1.6C397.8,136.4,397.9,135.7,397.9,135z"/>
	<linearGradient id="SVGID_9_" gradientUnits="userSpaceOnUse" x1="421.0175" y1="133.588" x2="421.0175" y2="158.3992">
		<stop  offset="0" style="stop-color:#5BA1C2"/>
		<stop  offset="1" style="stop-color:#104777"/>
	</linearGradient>
	<path fill="url(#SVGID_9_)" d="M433.6,146c0,0.4,0,0.8-0.1,1.2s-0.1,0.8-0.1,1.3h-18.9c0.2,0.7,0.5,1.3,0.9,1.9
		c0.4,0.6,0.9,1.1,1.4,1.6c0.6,0.4,1.2,0.8,1.9,1.1c0.7,0.3,1.5,0.4,2.4,0.4c1.1,0,2.1-0.2,3.2-0.6c1.1-0.4,1.9-0.9,2.7-1.5l3.7,3.7
		c-1.6,1.2-3.2,2.1-4.8,2.6c-1.6,0.5-3.2,0.8-5,0.8c-1.8,0-3.4-0.3-5-1c-1.5-0.7-2.9-1.5-4-2.7c-1.1-1.1-2-2.4-2.7-3.9
		c-0.7-1.5-1-3.1-1-4.8s0.3-3.3,1-4.8c0.7-1.5,1.6-2.8,2.7-3.9c1.1-1.1,2.5-2,4-2.7c1.5-0.7,3.2-1,4.9-1c1.7,0,3.3,0.3,4.8,0.9
		c1.5,0.6,2.9,1.5,4,2.6c1.2,1.1,2.1,2.4,2.8,3.9C433.3,142.5,433.6,144.1,433.6,146z M427.4,143.7c-0.5-1.5-1.3-2.7-2.5-3.6
		c-1.2-0.9-2.5-1.4-4-1.4c-1.5,0-2.8,0.5-4,1.4c-1.2,0.9-2,2.1-2.4,3.6H427.4z"/>
	<linearGradient id="SVGID_10_" gradientUnits="userSpaceOnUse" x1="447.216" y1="134.2001" x2="447.216" y2="157.8279">
		<stop  offset="0" style="stop-color:#5BA1C2"/>
		<stop  offset="1" style="stop-color:#104777"/>
	</linearGradient>
	<path fill="url(#SVGID_10_)" d="M459,134.2l-8.9,23.6h-5.8l-8.9-23.6h6.4l5.3,15.8l5.3-15.8H459z"/>
	<linearGradient id="SVGID_11_" gradientUnits="userSpaceOnUse" x1="464.7016" y1="123.9573" x2="464.7016" y2="157.7871">
		<stop  offset="0" style="stop-color:#5BA1C2"/>
		<stop  offset="1" style="stop-color:#104777"/>
	</linearGradient>
	<path fill="url(#SVGID_11_)" d="M467.8,130.1h-6.1V124h6.1V130.1z M467.7,157.8h-6v-23.6h6V157.8z"/>
	<linearGradient id="SVGID_12_" gradientUnits="userSpaceOnUse" x1="484.8403" y1="133.588" x2="484.8403" y2="158.3992">
		<stop  offset="0" style="stop-color:#5BA1C2"/>
		<stop  offset="1" style="stop-color:#104777"/>
	</linearGradient>
	<path fill="url(#SVGID_12_)" d="M497.4,146c0,0.4,0,0.8-0.1,1.2s-0.1,0.8-0.1,1.3h-18.9c0.2,0.7,0.5,1.3,0.9,1.9
		c0.4,0.6,0.9,1.1,1.4,1.6c0.6,0.4,1.2,0.8,1.9,1.1c0.7,0.3,1.5,0.4,2.4,0.4c1.1,0,2.1-0.2,3.2-0.6c1.1-0.4,1.9-0.9,2.7-1.5l3.7,3.7
		c-1.6,1.2-3.2,2.1-4.8,2.6c-1.6,0.5-3.2,0.8-5,0.8c-1.8,0-3.4-0.3-5-1c-1.5-0.7-2.9-1.5-4-2.7c-1.1-1.1-2-2.4-2.7-3.9
		c-0.7-1.5-1-3.1-1-4.8s0.3-3.3,1-4.8c0.7-1.5,1.6-2.8,2.7-3.9c1.1-1.1,2.5-2,4-2.7c1.5-0.7,3.2-1,4.9-1c1.7,0,3.3,0.3,4.8,0.9
		c1.5,0.6,2.9,1.5,4,2.6c1.2,1.1,2.1,2.4,2.8,3.9C497.1,142.5,497.4,144.1,497.4,146z M491.3,143.7c-0.5-1.5-1.3-2.7-2.5-3.6
		c-1.2-0.9-2.5-1.4-4-1.4c-1.5,0-2.8,0.5-4,1.4c-1.2,0.9-2,2.1-2.4,3.6H491.3z"/>
	<linearGradient id="SVGID_13_" gradientUnits="userSpaceOnUse" x1="516.9971" y1="134.1593" x2="516.9971" y2="157.8279">
		<stop  offset="0" style="stop-color:#5BA1C2"/>
		<stop  offset="1" style="stop-color:#104777"/>
	</linearGradient>
	<path fill="url(#SVGID_13_)" d="M534.7,134.2l-7.9,23.7h-5.1l-4.7-14.1l-4.7,14.1h-5.1l-8-23.7h6.2l4.4,14.8l4.4-14.8h5.2l4.5,14.8
		l4.4-14.8H534.7z"/>
	<linearGradient id="SVGID_14_" gradientUnits="userSpaceOnUse" x1="545.6236" y1="133.588" x2="545.6236" y2="158.4401">
		<stop  offset="0" style="stop-color:#5BA1C2"/>
		<stop  offset="1" style="stop-color:#104777"/>
	</linearGradient>
	<path fill="url(#SVGID_14_)" d="M554.7,151.2c0,1.2-0.3,2.2-0.8,3.1c-0.5,0.9-1.3,1.7-2.1,2.3s-1.9,1.1-2.9,1.4
		c-1.1,0.3-2.2,0.5-3.2,0.5c-1.8,0-3.5-0.3-5-1c-1.5-0.7-2.8-1.7-4-3.2l3.6-3.6c0.7,0.9,1.5,1.6,2.4,2.1c0.9,0.5,1.9,0.8,3,0.8
		c0.9,0,1.7-0.2,2.3-0.5c0.6-0.3,0.9-0.8,0.9-1.5c0-0.7-0.4-1.3-1.3-1.8c-0.9-0.5-2.1-0.9-3.7-1.4c-0.9-0.3-1.8-0.6-2.7-1
		c-0.9-0.4-1.6-0.9-2.3-1.6c-0.7-0.6-1.2-1.3-1.6-2.1c-0.4-0.8-0.6-1.7-0.6-2.7c0-1.1,0.3-2.2,0.8-3.1c0.5-0.9,1.2-1.7,2.1-2.3
		s1.8-1.1,2.9-1.4c1.1-0.3,2.2-0.5,3.3-0.5c3.6,0,6.5,1.4,8.8,4.1l-3.5,3.6c-0.7-0.8-1.5-1.5-2.3-2c-0.9-0.5-1.8-0.7-2.9-0.7
		c-0.4,0-0.7,0-1.1,0.1c-0.4,0.1-0.8,0.2-1.1,0.4c-0.3,0.2-0.6,0.4-0.8,0.7c-0.2,0.3-0.3,0.6-0.3,1c0,0.6,0.4,1.2,1.2,1.6
		c0.8,0.5,2,0.9,3.6,1.4c1,0.3,2,0.7,2.9,1.1c0.9,0.5,1.7,1,2.4,1.6c0.7,0.6,1.2,1.3,1.6,2.1C554.5,149.3,554.7,150.2,554.7,151.2z"
		/>
</g>
<g>
	<path d="M211.2,106.1c-0.1-0.1-0.1-0.2-0.1-0.3v-2c0-0.2,0-0.3,0.1-0.4c0.1-0.1,0.2-0.1,0.4-0.1h1.8c0.9,0,1.7-0.2,2.5-0.7
		c0.8-0.4,1.4-1,1.8-1.8c0.4-0.8,0.7-1.6,0.7-2.5c0-0.9-0.2-1.7-0.7-2.5c-0.4-0.8-1-1.4-1.8-1.8c-0.8-0.4-1.6-0.7-2.5-0.7h-1.8
		c-0.1,0-0.1,0-0.2,0.1c-0.1,0.1-0.1,0.1-0.1,0.2V95c0,0.1,0,0.2-0.1,0.3c-0.1,0.1-0.2,0.1-0.4,0.1h-2c-0.1,0-0.2,0-0.3-0.1
		c-0.1-0.1-0.1-0.2-0.1-0.3v-4.1c0-0.1,0-0.3,0.1-0.4c0.1-0.1,0.2-0.1,0.3-0.1h4.6c1.4,0,2.8,0.4,4,1.1c1.2,0.7,2.2,1.7,2.9,2.9
		c0.7,1.2,1.1,2.5,1.1,4c0,1.4-0.4,2.8-1.1,4c-0.7,1.2-1.7,2.2-2.9,2.9s-2.5,1.1-4,1.1h-1.8C211.4,106.2,211.3,106.2,211.2,106.1z"
		/>
	<path d="M224.6,106.1c-0.1-0.1-0.1-0.2-0.1-0.3V90.8c0-0.1,0-0.2,0.1-0.3s0.2-0.1,0.3-0.1h10.2c0.1,0,0.2,0,0.3,0.1
		c0.1,0.1,0.1,0.2,0.1,0.3v1.9c0,0.1,0,0.2-0.1,0.3c-0.1,0.1-0.2,0.1-0.3,0.1h-7.3c-0.1,0-0.2,0-0.3,0.1c-0.1,0.1-0.1,0.2-0.1,0.3
		v3.3V97c0,0.1,0,0.2,0.1,0.3c0.1,0.1,0.2,0.1,0.4,0.1h5.7c0.1,0,0.2,0,0.3,0.1c0.1,0.1,0.1,0.2,0.1,0.3v1.9c0,0.1,0,0.2-0.1,0.3
		c-0.1,0.1-0.2,0.1-0.3,0.1h-5.7c-0.2,0-0.3,0.1-0.4,0.2c-0.1,0.1-0.1,0.2-0.1,0.4v2.4c0,0.2,0,0.3,0.1,0.4c0.1,0.1,0.3,0.2,0.5,0.2
		h7.3c0.1,0,0.2,0,0.3,0.1c0.1,0.1,0.1,0.2,0.1,0.3v1.9c0,0.1,0,0.2-0.1,0.3c-0.1,0.1-0.2,0.1-0.3,0.1h-10.3
		C224.8,106.2,224.7,106.1,224.6,106.1z"/>
	<path d="M239.2,106.1c-0.1-0.1-0.1-0.1-0.1-0.2V90.7c0-0.1,0-0.2,0.1-0.2c0.1-0.1,0.1-0.1,0.2-0.1h2.3c0.1,0,0.2,0.1,0.2,0.2
		l5.4,9.1c0.2,0.3,0.3,0.5,0.4,0.5c0.1,0,0.2-0.2,0.2-0.5l0-8.9c0-0.1,0-0.2,0.1-0.2c0.1-0.1,0.1-0.1,0.2-0.1h2.4
		c0.1,0,0.2,0,0.2,0.1c0.1,0.1,0.1,0.1,0.1,0.2v15.2c0,0.1,0,0.2-0.1,0.2c-0.1,0.1-0.1,0.1-0.2,0.1H249c-0.3,0-0.5,0-0.6-0.1
		c-0.1,0-0.2-0.2-0.3-0.4l-5.7-9.1c-0.1-0.1-0.2-0.2-0.2-0.2c-0.1,0-0.2,0.1-0.2,0.3l0,9.1c0,0.1,0,0.2-0.1,0.2
		c-0.1,0.1-0.1,0.1-0.2,0.1h-2.3C239.3,106.2,239.3,106.2,239.2,106.1z"/>
	<path d="M259.2,106.2c-0.1-0.1-0.1-0.1-0.1-0.2V93.7c0-0.1-0.1-0.3-0.2-0.4c-0.1-0.1-0.2-0.2-0.4-0.2h-3.8c-0.1,0-0.1,0-0.2-0.1
		c-0.1-0.1-0.1-0.1-0.1-0.2v-2.2c0-0.1,0-0.1,0.1-0.2c0.1,0,0.1-0.1,0.2-0.1h12c0.1,0,0.2,0,0.2,0.1s0.1,0.1,0.1,0.2v2.1
		c0,0.1,0,0.1-0.1,0.2c-0.1,0.1-0.1,0.1-0.2,0.1h-3.8c-0.2,0-0.3,0.1-0.4,0.2c-0.1,0.1-0.2,0.2-0.2,0.4V106c0,0.1,0,0.1-0.1,0.2
		c-0.1,0.1-0.1,0.1-0.2,0.1h-2.7C259.3,106.3,259.2,106.2,259.2,106.2z"/>
	<path d="M267.8,106.2c0-0.1-0.1-0.1,0-0.2l4-15.3c0-0.1,0.1-0.2,0.2-0.2c0.1-0.1,0.2-0.1,0.3-0.1h4.7c0.1,0,0.2,0,0.3,0.1
		c0.1,0.1,0.2,0.1,0.2,0.2l4,15.3v0.1c0,0.2-0.1,0.2-0.2,0.2h-2.2c-0.1,0-0.2,0-0.3-0.1c-0.1-0.1-0.2-0.1-0.2-0.2l-1.1-4.2
		c0-0.1-0.1-0.2-0.2-0.3s-0.2-0.1-0.4-0.1h-4.4c-0.1,0-0.3,0-0.4,0.1s-0.2,0.2-0.2,0.3l-1.1,4.2c0,0.1-0.1,0.2-0.2,0.3
		c-0.1,0.1-0.2,0.1-0.3,0.1h-2.2C267.9,106.3,267.8,106.2,267.8,106.2z M276,98.8c0.2,0,0.3-0.1,0.4-0.2c0.1-0.1,0.1-0.2,0.1-0.4
		l-1.3-4.7c0-0.1-0.1-0.2-0.2-0.3c-0.1-0.1-0.2-0.1-0.4-0.1h-0.1c-0.1,0-0.3,0-0.4,0.1s-0.2,0.2-0.2,0.3l-1.2,4.7l0,0.1
		c0,0.1,0,0.2,0.1,0.3s0.2,0.1,0.3,0.1H276z"/>
	<path d="M287.1,105.4c-1.2-0.7-2.2-1.7-2.9-3c-0.7-1.2-1.1-2.6-1.1-4.1c0-1.5,0.4-2.8,1.1-4.1c0.7-1.2,1.7-2.2,2.9-3
		c1.2-0.7,2.6-1.1,4-1.1c1.1,0,2.2,0.2,3.2,0.7c1,0.5,1.9,1.1,2.7,2c0.1,0.1,0.1,0.2,0.1,0.3c0,0.1-0.1,0.2-0.2,0.3
		c-0.3,0.3-0.6,0.5-1,0.8c-0.3,0.3-0.5,0.5-0.7,0.6c-0.1,0.1-0.2,0.1-0.3,0.1c-0.1,0-0.2,0-0.3-0.1c-0.5-0.5-1-0.9-1.7-1.2
		c-0.6-0.3-1.3-0.4-2-0.4c-0.9,0-1.8,0.2-2.5,0.7s-1.4,1.1-1.8,1.9c-0.5,0.8-0.7,1.6-0.7,2.6c0,0.9,0.2,1.8,0.7,2.6s1.1,1.4,1.8,1.9
		s1.6,0.7,2.5,0.7c0.7,0,1.3-0.1,1.9-0.4c0.6-0.3,1.1-0.6,1.6-1.1c0.2-0.1,0.3-0.2,0.5-0.2c0.2,0,0.3,0,0.4,0.1
		c0.2,0.1,0.4,0.3,0.6,0.5c0.3,0.2,0.5,0.4,0.7,0.6c0.2,0.1,0.2,0.3,0.2,0.5c0,0.1,0,0.2-0.1,0.3c-0.8,0.8-1.6,1.4-2.6,1.9
		c-1,0.4-2.1,0.7-3.2,0.7C289.7,106.5,288.4,106.1,287.1,105.4z"/>
	<path d="M301.5,103.8c-0.7-0.8-1.3-1.8-1.6-2.8l0-0.1c-0.3-0.8-0.4-1.7-0.4-2.5c0-0.9,0.2-1.9,0.5-2.8c0.3-0.9,0.8-1.7,1.4-2.5
		c0.8-0.9,1.7-1.6,2.5-2.1c0.9-0.5,1.9-0.8,3.2-0.8h0.1c1.3-0.1,2.5,0.2,3.7,0.7c0.8,0.3,1.5,0.8,2.2,1.5c0.7,0.6,1.2,1.3,1.5,1.9
		c0.7,1.2,1.1,2.6,1.1,4c0,0.8-0.1,1.7-0.4,2.5c-0.3,0.8-0.6,1.6-1.1,2.3c-0.4,0.5-0.8,1-1.2,1.4c-0.4,0.4-1,0.8-1.6,1.1
		c-1.2,0.6-2.4,0.9-3.8,0.9c-1.2,0-2.2-0.2-3.3-0.7C303.2,105.3,302.3,104.6,301.5,103.8z M311.4,101.8c0.4-0.5,0.7-0.9,0.9-1.3
		c0.3-0.7,0.5-1.4,0.5-2.1c0-1-0.3-1.9-0.8-2.8c-0.5-0.9-1.3-1.5-2.2-1.9c-0.7-0.3-1.4-0.5-2.2-0.5c-0.7,0-1.3,0.1-1.9,0.4
		c-0.6,0.2-1.2,0.6-1.6,1.1l-0.4,0.4c-0.4,0.5-0.7,1-0.9,1.6c-0.2,0.6-0.3,1.2-0.3,1.8c0,0.8,0.2,1.5,0.5,2.2
		c0.3,0.7,0.8,1.3,1.4,1.8c1,0.8,2.1,1.2,3.4,1.2c0.8,0,1.6-0.2,2.3-0.5C310.5,102.6,311,102.2,311.4,101.8z"/>
	<path d="M319.5,106.1c-0.1-0.1-0.1-0.2-0.1-0.3V90.8c0-0.1,0-0.2,0.1-0.3s0.2-0.1,0.3-0.1h2.4c0.1,0,0.2,0,0.3,0.1s0.1,0.2,0.1,0.3
		v15.1c0,0.1,0,0.2-0.1,0.3c-0.1,0.1-0.2,0.1-0.3,0.1h-2.4C319.7,106.3,319.6,106.2,319.5,106.1z"/>
	<path d="M327.3,106.1c-0.1-0.1-0.1-0.1-0.1-0.2V90.7c0-0.1,0-0.2,0.1-0.2s0.1-0.1,0.2-0.1h2.3c0.1,0,0.2,0.1,0.3,0.2l5.4,9.1
		c0.2,0.3,0.3,0.5,0.4,0.5c0.1,0,0.2-0.2,0.2-0.5l0-8.9c0-0.1,0-0.2,0.1-0.2c0.1-0.1,0.1-0.1,0.2-0.1h2.4c0.1,0,0.2,0,0.2,0.1
		c0.1,0.1,0.1,0.1,0.1,0.2v15.2c0,0.1,0,0.2-0.1,0.2c-0.1,0.1-0.1,0.1-0.2,0.1h-1.6c-0.3,0-0.5,0-0.6-0.1c-0.1,0-0.2-0.2-0.3-0.4
		l-5.7-9.1c-0.1-0.1-0.2-0.2-0.2-0.2c-0.1,0-0.2,0.1-0.2,0.3l0,9.1c0,0.1,0,0.2-0.1,0.2c-0.1,0.1-0.1,0.1-0.2,0.1h-2.3
		C327.4,106.2,327.4,106.2,327.3,106.1z"/>
</g>
<linearGradient id="SVGID_15_" gradientUnits="userSpaceOnUse" x1="344.1567" y1="96.958" x2="554.2147" y2="96.958">
	<stop  offset="0" style="stop-color:#000000"/>
	<stop  offset="1" style="stop-color:#FFFFFF"/>
</linearGradient>
<rect x="344.2" y="95.9" fill="url(#SVGID_15_)" width="210.1" height="2.2"/>
</svg>
