<?xml version="1.0" encoding="utf-8"?>
<!-- Generator: Adobe Illustrator 22.1.0, SVG Export Plug-In . SVG Version: 6.00 Build 0)  -->
<svg version="1.1" id="Layer_1" xmlns="http://www.w3.org/2000/svg" xmlns:xlink="http://www.w3.org/1999/xlink" x="0px" y="0px"
	 viewBox="0 0 627 627" style="enable-background:new 0 0 627 627;" xml:space="preserve">
<style type="text/css">
	.st0{display:none;}
	.st1{display:inline;}
	.st2{display:inline;fill:#77CBED;}
	.st3{display:inline;fill:#4BB8E3;}
	.st4{display:inline;fill:#0096C8;}
	.st5{display:inline;fill:#1C77BD;}
	.st6{display:inline;fill:#205DB0;}
	.st7{display:inline;fill:#152D73;}
	.st8{fill:url(#SVGID_1_);}
	.st9{fill:url(#SVGID_2_);}
	.st10{fill:url(#SVGID_3_);}
	.st11{fill:url(#SVGID_4_);}
	.st12{fill:url(#SVGID_5_);}
	.st13{fill:url(#SVGID_6_);}
	.st14{fill:url(#SVGID_7_);}
	.st15{fill:url(#SVGID_8_);}
	.st16{fill:url(#SVGID_9_);}
	.st17{fill:url(#SVGID_10_);}
	.st18{fill:url(#SVGID_11_);}
	.st19{fill:url(#SVGID_12_);}
	.st20{fill:url(#SVGID_13_);}
	.st21{fill:url(#SVGID_14_);}
	.st22{display:inline;fill:url(#SVGID_15_);}
	.st23{fill:#77CBED;}
	.st24{fill:#4BB8E3;}
	.st25{fill:#1C77BD;}
	.st26{fill:#205DB0;}
	.st27{fill:#152D73;}
	.st28{fill:url(#SVGID_16_);}
	.st29{fill:url(#SVGID_17_);}
	.st30{fill:url(#SVGID_18_);}
	.st31{fill:url(#SVGID_19_);}
	.st32{fill:url(#SVGID_20_);}
	.st33{fill:url(#SVGID_21_);}
	.st34{fill:url(#SVGID_22_);}
	.st35{fill:url(#SVGID_23_);}
	.st36{fill:url(#SVGID_24_);}
	.st37{fill:url(#SVGID_25_);}
	.st38{fill:url(#SVGID_26_);}
	.st39{fill:url(#SVGID_27_);}
	.st40{fill:url(#SVGID_28_);}
	.st41{fill:url(#SVGID_29_);}
	.st42{fill:url(#SVGID_30_);}
</style>
<g id="Layer_1_1_" class="st0">
	<g id="DentaVox" class="st1">
		<g>
			<path d="M311,310c-0.1,0.2-0.1,0.3-0.1,0.5c-0.8,1.7-1.7,3.4-2.6,5.1c-0.1,0.3-0.3,0.4-0.6,0.4c-0.4,0-1,0-1.4,0
				c-6.6,0-13.1,0-19.7,0c-38.8,0-77.6,0-116.4,0c-39.1,0-78.2-0.1-117.3-0.1c-0.4,0-0.8,0-1.3,0c-0.2,0-0.4-0.2-0.4-0.4
				c0-0.1-0.1-0.2-0.1-0.3c0-1.5,0-3.1,0-4.6c0-0.1,0-0.2,0-0.3c0-0.2,0.3-0.4,0.4-0.4c0.1,0,0.3,0,0.4,0c0.4,0,0.8,0,1.3,0
				c42,0,84,0,125.9,0c0.5,0,1,0,1.6,0c0.4,0,0.6,0.2,0.6,0.6c0.1,0.7,0.1,1.3,0.1,2.1c0,0.1,0.1,0.1,0.1,0.1c0.1,0.1,0.2,0,0.3-0.1
				s0.1-0.2,0.2-0.3c0.5-0.8,0.9-1.5,1.5-2.2c0.9-0.3,1.9-0.1,2.8-0.1c14.8,0,29.7,0,44.5,0c26,0,52,0,78,0c0.5,0,1,0,1.6,0
				C310.7,309.9,310.8,309.9,311,310z"/>
			<path d="M167.9,244.3c9.1,0,18.2,0,27.3,0c21.7,0,43.3,0,65,0c0.4,0,1,0,1.4,0c0.2,0,0.4,0.1,0.5,0.3c0.1,0.1,0.1,0.2,0.2,0.3
				c0.9,1.7,1.8,3.3,2.7,5c0.1,0.3-0.1,0.5-0.4,0.5c-0.1,0-0.3,0-0.5,0c-0.4,0-1,0-1.4,0c-19.8,0-39.6,0-59.5,0
				c-0.7,0-1.5-0.1-2.2,0.1c-0.3,0.1-0.5,0-0.8,0s-0.6,0-1,0c-41.1,0-82.2,0-123.3,0c-0.6,0-1.2,0-1.7-0.1c-0.2,0-0.4-0.3-0.4-0.4
				c0-0.1,0-0.2,0-0.3c0-1.6,0-3.1,0-4.8c0-0.1,0-0.2,0-0.3c0-0.2,0.2-0.4,0.4-0.4c0.1,0,0.3,0,0.4,0c0.4,0,1,0,1.4,0
				C106.7,244.3,137.3,244.3,167.9,244.3z"/>
			<path d="M257.7,236.9c-0.1,0.1-0.3,0.1-0.4,0.1c-0.5,0-0.8,0-1.3,0c-19.4,0-38.8,0-58.2,0c-14.1,0-28.1,0.1-42.2,0.1
				c-0.6,0-1.2,0.1-1.7,0.1s-1.2,0.1-1.7,0.1c-19.3,0.1-38.7,0.1-58,0.1c-6.2,0-12.3,0-18.5,0c-0.4,0-1,0-1.4-0.1
				c-0.2,0-0.4-0.2-0.4-0.4c0-0.1,0-0.1,0-0.1c0-1.7,0-3.5,0-5.2c0-0.1,0-0.2,0.1-0.3s0.1-0.2,0.3-0.2c0.1-0.1,0.3-0.1,0.4-0.1
				c0.5,0,1,0,1.6,0c30,0,60,0,90.1,0c16.5,0,33.1,0,49.6,0c12.3,0,24.7,0,37.1,0c0.4,0,1,0,1.4,0c0.3,0,0.5,0.1,0.6,0.4
				c0.9,1.7,1.8,3.5,2.7,5.2C257.7,236.6,257.7,236.7,257.7,236.9z"/>
			<path d="M162.4,223.9c-28.7,0-57.5,0-86.2,0c-2.6,0-2.2,0.4-2.3-2.2c0-1.2,0-2.4,0-3.7c0-0.3,0.2-0.4,0.5-0.4c0.1,0,0.3,0,0.4,0
				c0.4,0,1,0,1.4,0c35.6,0,71.2,0,106.8,0c20.9,0,41.8,0,62.7,0c0.5,0,1,0,1.6,0c0.2,0,0.4,0.1,0.5,0.3c0.4,0.8,0.8,1.6,1.2,2.4
				c0.5,1,1,2.1,1.5,3.1c0.1,0.2-0.1,0.4-0.3,0.4c-0.5,0-1,0-1.6,0c-11.4,0-22.7-0.1-34.1,0c-8.7,0.1-17.5,0-26.3,0.1
				C179.8,224,171.1,223.9,162.4,223.9z"/>
			<path d="M158.9,210.3c-27.6,0-55.2,0-82.7,0c-0.5,0-1,0-1.6,0c-0.5,0-0.7-0.2-0.7-0.6c0-1.6,0-3.1,0-4.8c0-0.1,0-0.2,0.1-0.3
				s0.1-0.2,0.2-0.2c0.1-0.1,0.2-0.1,0.3-0.1c0.5,0,1,0,1.6,0c54.1,0,108.2,0,162.3,0c0.5,0,1,0,1.6,0c0.4,0,0.7,0.2,0.9,0.5
				c0.3,0.5,0.6,1.1,1,1.6c0.6,1.2,1.3,2.3,2,3.4c0.1,0.1-0.1,0.3-0.3,0.3c-0.1,0-0.3,0-0.4,0c-0.4,0-1,0-1.4,0
				c-14.5,0-28.9,0-43.5,0C185.1,210.3,172,210.3,158.9,210.3z"/>
			<path d="M129.7,349.4c21.9,0,43.7,0,65.6,0c0.6,0,1.3,0,1.9-0.1c0.4-0.1,0.8-0.1,1.3-0.1c7.3,0,14.6,0,21.9,0
				c0.4,0,0.7,0.1,1.1,0.1c0.1,0,0.3,0.3,0.2,0.4c-0.3,0.3-0.4,0.7-0.8,1c-1,1.2-2.1,2.4-3.1,3.6c-0.1,0.1-0.1,0.1-0.2,0.3
				c-1.3,1.5-0.9,1.3-2.8,1.3c-11.4,0-22.9-0.1-34.4-0.1c-0.7,0-1.3,0-2.1-0.1c-0.5-0.1-1-0.1-1.6-0.1c-14.2-0.1-28.4-0.1-42.6-0.1
				c-11.4,0-22.8-0.1-34.3-0.1c-0.8,0-1.7,0-2.5-0.1c-0.4-0.1-1,0-1.4,0c-10.5,0-21.1-0.1-31.7-0.1c-0.5,0-1,0-1.6-0.1
				c-0.2,0-0.4-0.2-0.4-0.4c0-0.7,0-1.5,0-2.2c0-0.8,0-1.7,0-2.5c0-0.4,0.2-0.6,0.6-0.6c0.4,0,1,0,1.4,0c21.8,0,43.6,0,65.4,0
				C129.7,349.5,129.7,349.5,129.7,349.4z"/>
			<path d="M152.6,336.6c25.5,0,51,0,76.6,0c0.5,0,1,0,1.6,0c0.2,0,0.3,0.2,0.2,0.3c-0.1,0.1-0.1,0.3-0.2,0.5c-1,1.5-2.1,3-3.1,4.6
				c-0.1,0.1-0.1,0.2-0.2,0.3c-0.2,0.2-0.4,0.3-0.6,0.4c-0.1,0-0.3,0-0.4,0c-0.4,0-0.8,0-1.3,0c-49.6,0-99.3,0-148.8,0
				c-0.6,0-1.2,0-1.7,0c-0.3,0-0.6-0.3-0.6-0.6c0-1.5,0-3.1,0-4.6c0-0.1,0-0.3,0.1-0.4s0.1-0.2,0.3-0.2c0.1-0.1,0.3-0.1,0.4-0.1
				c0.5,0,1,0,1.6,0C101.7,336.6,127.2,336.6,152.6,336.6z"/>
			<path d="M256.3,283.6c22.1,0,44.3,0,66.4,0c0.6,0,1.2,0,1.7,0.1c0.1,0,0.3,0.3,0.2,0.4c-0.4,0.8-0.8,1.5-1.2,2.2
				c-0.6,1.1-1.2,2.2-1.9,3.3c-0.1,0.3-0.4,0.4-0.6,0.4c-0.4,0-0.8,0-1.3,0c-43.1,0-86.1,0-129.2,0c-0.1,0-0.3,0-0.4,0
				c-1.5,0-1.2,0.1-1.5-1.3c0-0.1,0-0.1,0-0.1c-0.1-1.4-0.4-2.8-0.6-4.2c0-0.1,0-0.2,0-0.3c0.1-0.1,0.1-0.2,0.2-0.3
				c0.1-0.1,0.3-0.1,0.4-0.1c0.5,0,1,0,1.6,0C212.1,283.6,234.2,283.6,256.3,283.6L256.3,283.6z"/>
			<path d="M257,270.5c24.2,0,48.4,0,72.6,0c0.6,0,1.2,0,1.7,0.1c0.1,0,0.2,0.1,0.1,0.2c0,0.1,0,0.1-0.1,0.1
				c-0.9,1.7-1.9,3.3-2.8,4.9c-0.2,0.3-0.5,0.5-0.8,0.5c-0.5,0-1,0-1.4,0c-15.9,0-31.7,0-47.6,0c-19.7,0-39.3,0-58.9,0
				c-11.1,0-22.2,0-33.3,0c-0.2,0-0.4,0-0.6,0c-0.8,0-0.9-0.1-1.3-0.8c-0.6-1.4-1.3-2.8-2.1-4.1c-0.1-0.2-0.2-0.4-0.3-0.6
				c-0.1-0.1,0-0.2,0.1-0.3c0.1-0.1,0.3-0.1,0.4-0.1c0.4,0,1,0,1.4,0c18,0,36.1,0,54.1,0C244.7,270.5,250.8,270.5,257,270.5
				L257,270.5z"/>
			<path d="M141.2,362.6c21.7,0,43.5,0,65.2,0c0.5,0,1,0,1.6,0c0.1,0,0.2,0.1,0.2,0.2s0,0.1-0.1,0.1c-0.2,0.2-0.4,0.4-0.6,0.5
				c-2.2,1.6-4.5,3.2-6.7,4.8c-0.3,0.2-0.6,0.3-0.9,0.3c-0.4,0-1,0-1.4,0c-40.9,0-81.7,0-122.6,0c-2.4,0-2.1,0.3-2.1-2.1
				c0-1,0-1.9,0-2.8c0-0.1,0-0.3,0-0.5c0-0.3,0.3-0.5,0.5-0.5c0.6,0,1.2,0,1.7,0c21.4,0,42.8,0,64.2,0
				C140.6,362.6,140.9,362.6,141.2,362.6z"/>
			<path d="M250.7,302.9c-20.7,0-41.5,0-62.2,0c-0.5,0-1,0-1.6,0c-0.3,0-0.4-0.2-0.3-0.4c0.1-0.3,0.1-0.6,0.3-0.9
				c0.3-1,0.6-2.1,0.6-3.1c0-0.3,0.1-0.5,0.1-0.8c0.1-0.7,0.3-0.8,1-0.8c0.4,0,1,0,1.4,0c16.9,0,33.8,0,50.7,0c0.8,0,1.7,0,2.5,0.1
				c0.5,0.1,1,0,1.6,0c21.2,0,42.5,0,63.7,0c2.5,0,5.1,0,7.6,0c0.3,0,0.6,0,1,0.1c0.1,0,0.1,0.1,0.2,0.2c0,0.1-0.1,0.2-0.1,0.3
				c-0.7,1.6-1.5,3.1-2.2,4.8c-0.2,0.4-0.4,0.5-0.9,0.5s-1,0-1.4,0C292.1,302.9,271.4,302.9,250.7,302.9L250.7,302.9z"/>
			<path d="M90.7,270.3c18.6,0,37.2,0,55.8,0c0.5,0,1,0,1.6,0c0.3,0,0.6,0.3,0.6,0.6c0,0.8,0,1.7,0,2.5c0,0.7,0,1.3,0,2.1
				c0,0.2-0.1,0.5-0.1,0.6s-0.3,0.4-0.4,0.4c-0.1,0-0.3,0.1-0.4,0.1c-0.5,0-1,0-1.6,0c-36.9,0-73.7,0-110.6,0c-2.4,0-2.4,0-2.4-0.2
				c-0.3-0.8-0.1-1.5-0.1-2.3c-0.1-0.9,0-1.8,0-2.7c0-0.2,0-0.4,0.1-0.6c0-0.2,0.2-0.4,0.4-0.4c0.4,0,1,0,1.4,0c6.2,0,12.5,0,18.7,0
				C65.9,270.3,78.3,270.3,90.7,270.3z"/>
			<path d="M99.9,329.3c-17.9,0-35.8,0-53.7,0c-2.4,0-2.1,0.3-2.1-2.1c0-1.2,0-2.3,0-3.5c0-0.1,0.1-0.3,0.1-0.4
				c0.1-0.1,0.1-0.2,0.2-0.2c0.1-0.1,0.2-0.1,0.3-0.1c0.5,0,1,0,1.6,0c35.8,0,71.7,0,107.5,0c0.6,0,1.2,0,1.7,0.1
				c0.2,0,0.4,0.3,0.4,0.4s0.1,0.1,0.1,0.1c0,1.7,0,3.5,0,5.2c0,0.2-0.2,0.5-0.4,0.5c-0.1,0-0.3,0-0.4,0.1c-0.4,0-1,0-1.4,0
				C135.8,329.3,117.8,329.3,99.9,329.3z"/>
			<path d="M124.3,290c-16.1,0-32.3,0-48.5,0c-0.5,0-1,0-1.6-0.1c-0.2,0-0.4-0.2-0.4-0.5c0-1.8,0-3.6,0-5.4c0-0.3,0.3-0.5,0.5-0.5
				c0.1,0,0.3,0,0.4,0c0.3,0,0.6,0,1,0c32.4,0,64.9,0,97.3,0c0.4,0,1,0,1.4,0c0.2,0,0.4,0.2,0.4,0.4c0,0.1,0.1,0.2,0.1,0.3
				c0,1.7,0,3.4,0,5.1c0,0.1,0,0.2-0.1,0.3c-0.1,0.1-0.1,0.2-0.3,0.2c-0.5,0.1-1,0.1-1.6,0.1C156.9,290,140.6,290,124.3,290z"/>
			<path d="M111.5,296.9c15.9,0,31.9,0,47.9,0c0.5,0,1,0,1.6,0c0.2,0,0.4,0.2,0.4,0.4c0,1.7,0,3.5,0,5.2c0,0.3-0.3,0.5-0.5,0.5
				c-0.1,0-0.3,0.1-0.4,0.1c-0.4,0-0.8,0-1.3,0c-31.8,0-63.6,0-95.4,0c-0.6,0-1.2,0-1.7-0.1c-0.3,0-0.5-0.3-0.5-0.5
				c0-1.3,0-2.8,0-4.1c0-0.4,0-0.7,0-1.1c0-0.2,0.2-0.4,0.4-0.4c0.5,0,1,0,1.6,0c10.4,0,20.8,0,31.2,0
				C100.4,296.9,106,296.9,111.5,296.9z"/>
			<path d="M219.4,257.2c15.9,0,31.9,0,47.9,0c0.5,0,1,0,1.4,0c0.3,0,0.6,0.1,0.8,0.4c0.9,1.8,1.8,3.6,2.6,5.4
				c0.1,0.1,0.1,0.2,0.1,0.3c0,0.1-0.1,0.2-0.2,0.2c-0.3,0.1-0.6,0.1-1,0.1c-2.6,0-5.3,0-7.9,0c-28.1,0-56.2,0-84.3,0
				c-0.5,0-1,0-1.6,0c-0.3,0-0.6-0.1-0.8-0.3c-0.8-0.7-1.6-1.3-2.4-2.1c-1.4-1.2-2.8-2.4-4.2-3.6c-0.1-0.1-0.1-0.2-0.1-0.3
				c0.1-0.1,0.2-0.1,0.3-0.1c0.5,0,1,0,1.6,0c7.5,0,15,0,22.5,0C202.4,257.2,210.9,257.2,219.4,257.2z"/>
			<path d="M184.8,376.3c-0.5,0.2-0.9,0.4-1.3,0.5c-2.9,0.8-5.8,1.5-8.7,2.3c-3.2,0.8-6.4,1.7-9.6,2.6c-0.4,0.1-0.8,0.2-1.2,0.2
				s-0.8,0-1.3,0c-28.9,0-57.8,0-86.7,0c-0.5,0-1,0-1.6,0c-0.3,0-0.5-0.2-0.5-0.5c0-1.6,0-3.1,0-4.8c0-0.3,0.3-0.4,0.5-0.5
				c0.1,0,0.3,0,0.4,0c0.3,0,0.6,0,1,0c35.7,0,71.4,0,107.2,0C183.5,376.2,184.1,376.1,184.8,376.3z"/>
			<path d="M116.1,257.2c13.4,0,26.8,0,40.2,0c0.5,0,1,0,1.6,0.1c0.2,0,0.4,0.3,0.4,0.4c0,1.9,0,3.7,0,5.5c0,0.2-0.2,0.4-0.4,0.4
				c-0.1,0-0.3,0-0.4,0c-0.4,0-0.8,0-1.1,0c-26.8,0-53.7,0-80.5,0c-0.5,0-1,0-1.6,0c-0.2,0-0.4-0.2-0.4-0.4c0-1.9,0-3.7,0-5.5
				c0-0.1,0-0.1,0-0.1c0.1-0.1,0.1-0.2,0.2-0.3c0.1-0.1,0.2-0.1,0.3-0.1c0.5,0,1,0,1.6,0C89.4,257.2,102.7,257.2,116.1,257.2z"/>
			<path d="M160.7,329.2c0.1-0.1,0.1-0.2,0.3-0.2c1.2-0.5,2.4-1,3.7-1.5c1.5-0.6,3.1-1.4,4.6-2.1c1.1-0.5,2.1-1.2,3-2
				c0.3-0.3,0.6-0.4,1-0.4s0.8,0,1.1,0c19.7,0,39.4,0,59.1,0c1,0,1.9,0,2.8,0.1c0.1,0,0.3,0.1,0.4,0.1c0.1,0,0.3,0.3,0.2,0.4
				s-0.1,0.3-0.1,0.5c-0.7,1.6-1.4,3.2-2.1,4.8c-0.1,0.1-0.1,0.2-0.1,0.3c-0.1,0.2-0.3,0.3-0.5,0.3c-0.4,0-1,0-1.4,0
				c-5.8,0-11.6,0-17.4,0c-17.4,0-34.8,0-52.3,0c-0.6,0-1.2,0-1.7,0C161,329.3,160.9,329.2,160.7,329.2z"/>
			<path d="M311,250.7c-9.7,0-19.5,0-29.2,0c-0.5,0-1,0-1.6-0.1c-0.1,0-0.3-0.3-0.3-0.3c0.2-0.3,0.3-0.6,0.5-1
				c0.9-1.6,1.8-3.2,2.8-4.8c0.2-0.3,0.4-0.6,0.9-0.6c0.3,0,0.6,0,1,0c19.5,0,39.1,0,58.7,0c0.4,0,1-0.1,1.4,0.1
				c0.1,0.1,0.2,0.1,0.1,0.3c0,0.1,0,0.2-0.1,0.3c-1,1.9-1.9,3.8-2.8,5.7c0,0.1-0.1,0.1-0.1,0.1c-0.1,0.2-0.3,0.3-0.5,0.3
				c-0.5,0-1,0-1.6,0C330.5,250.7,320.8,250.7,311,250.7z"/>
			<path d="M273.1,322.9c9.8,0,19.5,0,29.3,0c0.5,0,1-0.1,1.5,0.1c0.1,0.1,0.2,0.1,0.1,0.3c0,0.1,0,0.1,0,0.1c-1,2-1.9,4-2.9,6
				c-0.1,0.2-0.3,0.3-0.5,0.4s-0.4,0.1-0.6,0.1c-0.4,0-0.8,0-1.1,0c-17.3,0-34.5,0-51.8,0c-0.4,0-0.8,0-1.1,0c-0.4,0-0.8-0.2-1-0.6
				c-1-1.9-1.9-3.9-2.9-5.8c-0.1-0.3,0-0.4,0.4-0.5c0.1,0,0.3,0,0.4,0c0.4,0,0.8,0,1.3,0C253.8,322.9,263.4,322.9,273.1,322.9z"/>
			<path d="M304.1,263.7c-9.7,0-19.4,0-29.2,0c-0.5,0-1,0-1.6-0.1c-0.1,0-0.2-0.1-0.1-0.2c0-0.1,0-0.1,0.1-0.1
				c0.9-1.7,1.8-3.5,2.6-5.2c0.1-0.2,0.2-0.4,0.3-0.5c0.1-0.1,0.3-0.2,0.4-0.2c0.4-0.1,1-0.1,1.4-0.1c5.4,0,10.8,0,16.2,0
				c14.1,0,28.2,0,42.3,0c0.5,0,1-0.1,1.5,0.1c0.1,0,0.2,0.1,0.1,0.2c0,0.1-0.1,0.3-0.1,0.4c-0.9,1.7-1.8,3.5-2.7,5.2
				c-0.1,0.3-0.4,0.5-0.8,0.5s-1,0-1.4,0C323.6,263.7,313.8,263.7,304.1,263.7z"/>
			<path d="M328.4,217.6c9.6,0,19.3,0,29,0c0.5,0,1,0,1.6,0.1c0.1,0,0.2,0.1,0.1,0.2c0,0.1-0.1,0.2-0.1,0.3
				c-0.9,1.6-1.8,3.2-2.8,4.8c-0.1,0.1-0.1,0.2-0.2,0.3c-0.3,0.4-0.6,0.6-1.2,0.6c-0.4,0-0.8,0-1.1,0c-19.2,0-38.4,0-57.5,0
				c-0.5,0-1,0-1.4-0.1c-0.3,0-0.4-0.3-0.3-0.6c0.9-1.7,1.8-3.5,2.7-5.2c0.2-0.4,0.5-0.5,0.9-0.5c0.5,0,1,0,1.4,0
				C309.2,217.6,318.8,217.6,328.4,217.6z"/>
			<path d="M318.2,237c-9.7,0-19.4,0-29.1,0c-0.5,0-1,0-1.6-0.1c-0.1,0-0.3-0.2-0.2-0.3c1-1.7,2-3.5,3-5.2c0.2-0.4,0.5-0.5,0.9-0.5
				s0.7,0,1.1,0c19.3,0,38.6,0,58,0c0.5,0,1-0.1,1.5,0.1c0.1,0.1,0.2,0.1,0.1,0.3c0,0.1-0.1,0.2-0.1,0.3c-0.8,1.7-1.6,3.3-2.4,4.9
				c-0.1,0.1-0.1,0.2-0.2,0.3s-0.3,0.2-0.4,0.2c-0.4,0-1,0-1.4,0C337.7,237,327.9,237,318.2,237z"/>
			<path d="M332.6,210.3c-9.6,0-19.2,0-28.9,0c-0.5,0-1,0.1-1.5-0.1c-0.1,0-0.3-0.3-0.2-0.4c0.1-0.1,0.1-0.3,0.2-0.4
				c0.7-1.4,1.4-2.8,2.1-4.2c0.1-0.2,0.2-0.4,0.3-0.5c0.1-0.2,0.3-0.3,0.5-0.3c0.5,0,1,0,1.4,0c8.9,0,17.7,0,26.6,0
				c10.2,0,20.2,0,30.4,0c0.3,0,0.5,0,0.8,0c1.9,0,1.8,0,1,1.5c-0.6,1.2-1.2,2.4-1.9,3.7c-0.1,0.2-0.2,0.4-0.3,0.5
				c-0.1,0.1-0.3,0.3-0.4,0.3c-0.4,0.1-1,0.1-1.4,0.1c-6,0-12.1,0-18.2,0C339.6,210.3,336.1,210.3,332.6,210.3z"/>
			<path d="M273,336.2c7.3,0,14.7,0,22,0c0.4,0,1,0,1.4,0c0.6,0,0.8,0.2,0.5,0.7c-0.8,1.5-1.6,3.1-2.4,4.6c-0.2,0.3-0.4,0.6-0.6,1
				c-0.1,0.1-0.3,0.2-0.4,0.3c-0.1,0.1-0.2,0-0.3,0c-0.4,0-0.7,0-1.1,0c-12.7,0-25.3,0-38,0c-2.1,0-1.8,0.2-2.8-1.7
				c-0.7-1.3-1.4-2.6-2.1-3.9c-0.1-0.3-0.2-0.5-0.3-0.7c-0.1-0.1,0-0.2,0.1-0.3c0.1,0,0.2-0.1,0.3-0.1c0.4,0,1,0,1.4,0
				C258.3,336.2,265.7,336.2,273,336.2z"/>
			<path d="M273.1,349.5c5.1,0,10.2,0,15.4,0c0.4,0,0.8,0,1.3,0s0.5,0.3,0.3,0.6c-0.2,0.4-0.5,0.8-0.6,1.3c-0.7,1.3-1.4,2.7-2.1,4
				c-0.1,0.2-0.2,0.4-0.3,0.5c-0.1,0.1-0.2,0.1-0.3,0.1c-0.3,0.1-0.6,0.1-1,0.1c-8.3,0-16.6,0-24.9,0c-0.3,0-0.5,0-0.8,0
				c-0.2,0-0.4-0.1-0.5-0.3c-0.1-0.1-0.2-0.3-0.3-0.4c-1-1.7-2-3.5-3-5.2c-0.1-0.2-0.1-0.4-0.2-0.6l0.1-0.1c0.1-0.1,0.2-0.1,0.3-0.1
				c0.4,0,1,0,1.4,0C262.9,349.5,268,349.5,273.1,349.5z"/>
			<path d="M273.4,362.5c3,0,5.9,0,8.9,0c0.3,0,0.6,0,1,0.1c0.1,0,0.2,0.1,0.1,0.3s-0.1,0.3-0.2,0.4c-0.8,1.7-1.7,3.4-2.5,5.1
				c-0.1,0.2-0.2,0.4-0.3,0.5c-0.1,0.1-0.3,0.2-0.4,0.3c-0.2,0.1-0.5,0.1-0.6,0.1c-4,0-7.9,0-11.9,0c-0.2,0-0.4,0-0.6-0.1
				c-0.1-0.1-0.3-0.1-0.4-0.3c-0.3-0.5-0.6-0.9-0.8-1.3c-0.8-1.4-1.5-2.8-2.2-4.2c-0.1-0.2-0.2-0.4-0.3-0.6c0-0.1,0.1-0.2,0.2-0.2
				c0.4,0,0.7-0.1,1.1-0.1C267.4,362.5,270.4,362.5,273.4,362.5z"/>
			<path d="M564.1,297.8c-0.1,2-0.3,4.5-0.7,6.9c-0.3,1.9-0.8,3.6-1.6,5.3c-1.3,2.5-3.2,4.4-6,5.3c-0.7,0.3-1.5,0.4-2.3,0.5
				c-0.9,0-2,0.1-2.9,0c-2.5-0.3-4.8-1.3-6.4-3.4c-1.7-2.3-2.7-4.8-3-7.4c-0.7-4.4-0.8-6.4-0.5-10.7c0.1-2.7,0.5-5.4,1.3-8.1
				c0.4-1.5,1.1-2.8,2-4.1c1.9-2.8,4.5-4,7.7-4.1c1.1,0,2.1,0,3.2,0.3c3.6,0.9,6,3,7.3,6.5c0.8,2,1.3,4.1,1.5,6.4
				c0,1.1,0.3,2.1,0.4,3.2C564,295.1,564.1,296.2,564.1,297.8z M546,296.9L546,296.9c0,0.8,0,1.5,0,2.3c-0.1,2.3,0.3,4.4,0.7,6.5
				c0.3,1.3,0.8,2.5,1.6,3.6c0.9,1.3,2.1,2.1,3.8,2.1c0.3,0,0.4,0,0.7,0c1.9,0,3.2-0.8,4-2.4c0.4-0.7,0.7-1.3,0.9-2.1
				c0.8-2.5,1.1-5,1.2-7.7c0.1-1.5,0-2.8,0-4.2c0.1-2.3-0.4-4.4-0.7-6.5c-0.1-1.2-0.7-2.3-1.2-3.3c-1.1-1.7-2.5-2.7-4.5-2.7
				c-1.9,0-3.3,0.8-4.4,2.4c-0.5,0.9-1.1,1.9-1.3,2.9c-0.4,1.9-0.9,3.8-0.8,5.8C546,294.6,546,295.7,546,296.9z"/>
			<path d="M521.5,304.8c0.3-0.9,0.7-1.9,0.8-2.8c0.8-3.8,1.6-7.7,2.4-11.5c0.7-2.7,1.1-5.3,1.6-8c0.3-1.2,0.5-2.4,0.8-3.4
				c0-0.1,0.5-0.5,0.8-0.5c1.2,0,2.4,0,3.6,0c0.7,0,1.1,0.7,0.9,1.5c-0.5,2.7-1.1,5.3-1.7,8c-1.1,4.8-2.1,9.5-3.2,14.3
				c-0.8,4-1.7,7.8-2.7,11.8c-0.1,0.3-0.3,0.7-0.4,0.9c-0.3,0.4-0.5,0.7-0.9,0.8c-0.3,0-0.4,0-0.7,0c-1.1,0-2.1,0-3.3,0
				c-1.1,0-1.5-0.5-1.7-1.6c-0.9-4.6-2-9.4-3-14.1c-1.1-4.6-2-9.3-3-14.1c-0.3-1.3-0.7-2.5-0.9-3.8c-0.1-0.7-0.3-1.3-0.4-1.9
				c-0.1-1.2,0.3-1.9,1.6-1.9c0.9,0,2,0,2.9,0.1c0.3,0,0.7,0.4,0.7,0.7c0.4,2,0.9,4,1.3,6.1c1.2,5.6,2.3,11,3.4,16.6
				c0.3,0.9,0.4,1.9,0.7,2.8C521.3,304.7,521.3,304.8,521.5,304.8z"/>
			<path d="M582.7,303c-1.2,2.5-2.3,5.2-3.4,7.7c-0.1,0.4-0.3,0.8-0.5,1.2c-1.9,4-0.9,3.3-6,3.2c-0.5,0-0.9-0.8-0.7-1.2
				c0.3-0.7,0.7-1.3,0.9-2.1c1.9-4,3.8-7.8,5.7-11.8c0.5-1.1,0.9-2.1,1.5-3c0-0.9-0.4-1.5-0.7-2c-2.1-4.5-4.4-9-6.5-13.5
				c-0.1-0.4-0.4-0.8-0.5-1.2c-0.4-0.9,0.1-1.7,1.2-1.7c0.4,0,0.9,0,1.3,0c2.8,0,2.4-0.1,3.6,2.4c1.3,3,2.7,6,4,8.9
				c0.1,0.1,0.3,0.3,0.5,0.3c0.1,0,0.4-0.1,0.5-0.3s0.1-0.4,0.3-0.5c1.3-2.9,2.5-5.8,3.8-8.6c0.3-0.5,0.5-0.9,0.7-1.5
				c0.1-0.3,0.4-0.5,0.8-0.5c1.2,0,2.4,0,3.6,0c0.7,0,1.2,0.8,0.9,1.5c-0.1,0.4-0.3,0.8-0.5,1.2c-0.9,1.9-1.9,3.7-2.7,5.6
				c-1.2,2.5-2.3,4.9-3.4,7.4c-1.5,3.2-1.5,2,0.1,5.3c2,4.4,4.1,8.6,6.2,13c0.3,0.5,0.4,1.1,0.7,1.5c0.1,0.3-0.3,0.9-0.5,1.1
				c-0.3,0-0.4,0.1-0.7,0.1c-1.1,0-2.1,0-3.3,0c-0.4,0-0.8-0.3-1.1-0.7c-0.3-0.5-0.5-0.9-0.7-1.5c-1.3-3-2.7-6.2-4.1-9.3
				C583.6,303.4,583.4,303,582.7,303z"/>
			<path d="M442.6,297.4c0,5.2,0,10.2,0,15.4c0,0.5,0,1.1-0.1,1.6c0,0.1-0.3,0.4-0.4,0.4c-0.3,0.1-0.7,0.1-0.9,0.1
				c-0.4,0-0.8-0.1-1.1-0.7c-0.3-0.5-0.5-0.9-0.7-1.5c-3.6-9-7.2-18-10.7-27c-0.3-0.5-0.4-1.1-0.7-1.5c-0.1-0.1-0.4-0.3-0.5-0.3
				l-0.1,0.1c0,0.9-0.1,1.7-0.1,2.7c0,8,0,15.9,0,23.9c0,0.9,0,2-0.1,2.9c0,0.4-0.4,0.8-0.9,0.8c-0.1,0-0.3,0-0.3,0
				c-0.5,0-0.9-0.4-0.9-0.8c0-0.5-0.1-1.1-0.1-1.6c0-10.1,0-20.3,0-30.4c0-0.5,0-1.1,0-1.6s0.4-0.9,1.1-0.9c0.5,0,1.1,0,1.6,0
				c0.3,0,0.7,0.3,0.8,0.5c0.1,0.4,0.4,0.8,0.5,1.2c3.3,8.5,6.8,17,10.1,25.5c0.1,0.4,0.4,0.8,0.7,1.1c0,0,0.1,0,0.3,0
				c0.1-0.1,0.1-0.1,0.1-0.3c0-0.9,0.1-2,0.1-2.9c0-7.3,0-14.6,0-21.9c0-0.8,0-1.5,0-2.3c0-0.5,0.4-0.9,1.1-0.9c0.3,0,0.4,0,0.7,0
				c0.3,0,0.7,0.4,0.7,0.7c0,0.7,0.1,1.3,0.1,2C442.6,287.1,442.6,292.2,442.6,297.4z"/>
			<path d="M365.8,296.7c0-5,0-9.9,0-15c0-0.7,0-1.3,0.1-2c0-0.1,0.3-0.4,0.4-0.4c0.1-0.1,0.4-0.1,0.7-0.1c2.7,0,5.2-0.1,7.8,0
				c4.4,0.1,7.6,2.7,8.9,6.4c0.7,2,1.2,4,1.3,6c0.1,3.4,0.3,6.9,0,10.5c-0.1,2.7-0.8,5.2-2,7.6c-0.4,0.9-0.9,1.7-1.7,2.4
				c-1.6,1.6-3.6,2.4-5.8,2.5c-2.9,0.1-5.8,0-8.7,0c-0.4,0-0.8-0.4-0.8-0.8c0-0.9,0-1.7,0-2.7C365.8,306.3,365.8,301.5,365.8,296.7z
				 M368.1,296.7c0,4.4,0,8.7,0,13.1c0,0.7,0,1.3,0,2c0,0.3,0.4,0.7,0.7,0.7c2.1,0,4.1,0.1,6.2,0c3.6-0.4,5.7-2.3,6.6-5.4
				c0.4-1.5,0.8-2.9,0.8-4.5c0-1.5,0.3-2.8,0.3-4.2c0-0.9,0-2,0-2.9c-0.1-1.5-0.3-3-0.4-4.5c0-1.6-0.4-3-0.9-4.5
				c-0.5-1.9-1.7-3.3-3.6-4.1c-0.9-0.4-2.1-0.8-3-0.9c-2.1-0.1-4.1,0-6.2,0c-0.1,0-0.4,0.3-0.4,0.4c-0.1,0.5-0.1,1.1-0.1,1.6
				C368.1,287.9,368.1,292.2,368.1,296.7z"/>
			<path d="M503.8,314.1c-0.7,0.7-1.5,0.5-2.1,0.3c-0.1,0-0.4-0.3-0.4-0.4c-0.1-0.4-0.4-0.8-0.5-1.2c-0.8-2.7-1.5-5.2-2.3-7.8
				c-0.1-0.5-0.7-0.9-1.2-0.9c-3.3,0-6.8,0-10.1,0c-0.5,0-1.1,0.4-1.2,0.9c-0.5,1.7-1.1,3.3-1.5,5c-0.4,1.2-0.8,2.5-1.2,3.7
				c-0.3,0.8-0.5,0.9-1.5,0.9c-0.3,0-0.4,0-0.7,0s-0.7-0.4-0.5-0.7c1.2-4,2.5-7.8,3.7-11.8c2.3-6.9,4.4-13.9,6.6-20.8
				c0.3-0.8,0.4-1.7,0.9-2.4c0,0,0.1-0.1,0.3-0.1c0.1,0,0.3,0,0.3,0.1c0.1,0.1,0.3,0.4,0.4,0.5c1.5,4.5,2.9,9.1,4.4,13.7
				c2.1,6.4,4.1,12.9,6.2,19.2C503.6,312.8,503.7,313.4,503.8,314.1z M492.3,301.6c1.5,0,3-0.1,4.5-0.1c0.3,0,0.5-0.5,0.5-0.8
				c-1.6-5-3-9.9-4.6-15c0-0.1-0.3-0.3-0.5-0.4c-0.1-0.1-0.3,0.1-0.4,0.4c-1.2,4-2.4,8-3.7,11.8c-0.3,1.1-0.5,2.1-0.9,3.2
				c0,0.3,0.3,0.8,0.5,0.8C489.3,301.5,490.7,301.5,492.3,301.6z"/>
			<path d="M396.6,296.6c0-4.8,0-9.5,0-14.3c0-0.8,0-1.5,0.1-2.3c0-0.4,0.5-0.8,0.9-0.8c0.3,0,0.4,0,0.7,0c4.6,0,9.4,0,14.1,0
				c0.3,0,0.7,0,0.9,0.1c0.1,0,0.5,0.5,0.5,0.7c0,0.7-0.3,1.2-0.8,1.2c-1.1,0-2.1,0-3.3,0.1c-3.3,0-6.8,0-10.1,0.1
				c-0.3,0-0.7,0.4-0.7,0.5s0,0.3,0,0.3c0,4,0,8.1,0,12.1c0,0.8,0.4,1.1,1.3,1.1c2.4,0,4.8,0,7.2,0c0.5,0,1.1,0,1.6,0.1
				c0.3,0,0.7,0.4,0.7,0.7c0,0.3,0,0.7-0.1,0.9c0,0.1-0.3,0.3-0.5,0.4c-0.5,0.1-1.1,0.1-1.6,0.1c-2.5,0-5,0-7.6,0
				c-0.7,0-0.9,0.4-0.9,1.1c0,4.4,0,8.7,0,13c0,0.4,0.4,0.8,0.8,0.8c1.2,0,2.4,0,3.6,0c3,0,6.1,0,9.1,0c0.4,0,0.8,0.1,1.3,0.1
				c0.1,0,0.5,0.5,0.5,0.8c0,0.5-0.3,0.9-0.5,1.1c-0.3,0-0.4,0.1-0.7,0.1c-5,0-10.1,0-15,0c-0.1,0-0.3,0-0.3,0
				c-0.7,0-1.1-0.4-1.1-0.9c0-0.9,0-1.7,0-2.7C396.6,306.1,396.6,301.4,396.6,296.6z"/>
			<path d="M461.6,297.7c0-4.1,0-8.2,0-12.5c0-0.9,0-1.7,0-2.7s-0.1-1.5-1.3-1.5c-1.9,0-3.7,0-5.6,0c-0.8,0-1.5,0-2.3,0
				c-0.5,0-0.9-0.5-0.8-1.2c0-0.3,0.4-0.7,0.5-0.8c0.3,0,0.7-0.1,0.9-0.1c6.5,0,13.1,0,19.6,0c0.3,0,0.4,0,0.7,0
				c0.4,0,0.7,0.5,0.7,0.9s-0.3,0.9-0.7,0.9c-0.5,0-1.1,0.1-1.6,0.1c-2,0-4,0-5.8,0c-1.6,0-1.7,0.1-1.7,1.9c0,4,0,8.1,0,12.1
				c0,5.4,0,10.9,0,16.3c0,0.8,0,1.5-0.1,2.3c0,0.3-0.4,0.7-0.7,0.7c-0.4,0-0.9,0-1.3,0c-0.1,0-0.4-0.3-0.4-0.4
				c-0.1-0.7-0.1-1.3-0.1-2C461.6,307.2,461.6,302.4,461.6,297.7z"/>
			<path d="M273.2,375.8c1,0,2.1,0.1,3.1,0.1c0.1,0,0.3,0.3,0.2,0.4c-0.1,0.2-0.2,0.4-0.3,0.6c-0.3,0.5-0.5,1-0.8,1.5
				c-0.7,1.3-1.3,2.6-2.1,3.9c-0.1,0.3-0.4,0.3-0.5,0.1c-1.1-2.1-2.2-4-3.3-6.1c-0.1-0.1,0.1-0.3,0.3-0.3c0.2,0,0.5-0.1,0.6-0.1
				C271.4,375.8,272.3,375.8,273.2,375.8L273.2,375.8z"/>
		</g>
	</g>
</g>
<g id="TrustedRev" class="st0">
	<polygon class="st2" points="147.5,205 147.5,228 187.2,250.9 204.3,238 	"/>
	<polygon class="st3" points="135.8,205 135.8,228 84.9,258.1 64.4,246.2 	"/>
	<polygon class="st4" points="58.7,256.3 78.4,268 78.4,326.2 58.7,337.8 	"/>
	<polygon class="st5" points="63.2,348.2 82.9,336.9 135.7,367.1 135.7,390.7 	"/>
	<polygon class="st6" points="147.6,390.7 147.6,367.5 200.5,336.7 220.7,348.5 	"/>
	<polygon class="st7" points="224.7,265.7 224.7,337.5 204.8,325.8 204.8,287.5 	"/>
	<polygon class="st1" points="124.3,282.6 105.9,301.1 142.6,338.9 253.6,215.1 143.1,301.5 	"/>
	<g class="st1">
		
			<linearGradient id="SVGID_1_" gradientUnits="userSpaceOnUse" x1="256.1" y1="-190.4229" x2="256.1" y2="-157.8229" gradientTransform="matrix(1 0 0 1 0 486.2677)">
			<stop  offset="0" style="stop-color:#0071C9"/>
			<stop  offset="1" style="stop-color:#003B75"/>
		</linearGradient>
		<path class="st8" d="M268.3,301.4h-9v27h-6.4v-27h-9v-5.6h24.4V301.4z"/>
		
			<linearGradient id="SVGID_2_" gradientUnits="userSpaceOnUse" x1="277.15" y1="-182.0229" x2="277.15" y2="-157.8229" gradientTransform="matrix(1 0 0 1 0 486.2677)">
			<stop  offset="0" style="stop-color:#0071C9"/>
			<stop  offset="1" style="stop-color:#003B75"/>
		</linearGradient>
		<path class="st9" d="M285.6,307.2l-3.1,5c-0.6-0.6-1.2-1.2-1.9-1.7c-0.7-0.5-1.4-0.7-2.1-0.7c-0.4,0-0.8,0.1-1.2,0.3
			c-0.4,0.2-0.9,0.5-1.3,0.9s-0.7,0.9-1,1.6s-0.4,1.5-0.4,2.5v13.3h-5.9v-23.6h5.9v2.5c0.7-1,1.5-1.8,2.3-2.3
			c0.9-0.5,1.8-0.8,2.9-0.8c1,0,2,0.3,3,0.8C283.8,305.6,284.7,306.3,285.6,307.2z"/>
		
			<linearGradient id="SVGID_3_" gradientUnits="userSpaceOnUse" x1="297.85" y1="-181.4228" x2="297.85" y2="-157.2645" gradientTransform="matrix(1 0 0 1 0 486.2677)">
			<stop  offset="0" style="stop-color:#0071C9"/>
			<stop  offset="1" style="stop-color:#003B75"/>
		</linearGradient>
		<path class="st10" d="M308.5,328.4h-5.9v-1.8c-0.4,0.4-0.8,0.7-1.3,1s-1,0.5-1.6,0.7s-1.1,0.4-1.7,0.5s-1.1,0.2-1.7,0.2
			c-1.2,0-2.3-0.2-3.4-0.6s-2.1-1-2.9-1.8s-1.5-1.8-2-3.1c-0.5-1.3-0.8-2.7-0.8-4.4v-14.3h5.9v14c0,0.8,0.1,1.6,0.4,2.2
			s0.6,1.2,1,1.6s0.9,0.7,1.5,0.9c0.6,0.2,1.1,0.3,1.7,0.3c1.9,0,3.6-0.7,4.9-2v-17.1h5.9V328.4z"/>
		
			<linearGradient id="SVGID_4_" gradientUnits="userSpaceOnUse" x1="321.7" y1="-182.0349" x2="321.7" y2="-157.1828" gradientTransform="matrix(1 0 0 1 0 486.2677)">
			<stop  offset="0" style="stop-color:#0071C9"/>
			<stop  offset="1" style="stop-color:#003B75"/>
		</linearGradient>
		<path class="st11" d="M330.7,321.8c0,1.2-0.3,2.2-0.8,3.1s-1.3,1.7-2.1,2.3c-0.9,0.6-1.9,1.1-2.9,1.4c-1.1,0.3-2.2,0.5-3.2,0.5
			c-1.8,0-3.5-0.3-5-1s-2.8-1.7-4-3.2l3.6-3.6c0.7,0.9,1.5,1.6,2.4,2.1s1.9,0.8,3,0.8c0.9,0,1.7-0.2,2.3-0.5
			c0.6-0.3,0.9-0.8,0.9-1.5s-0.4-1.3-1.3-1.8s-2.1-0.9-3.7-1.4c-0.9-0.3-1.8-0.6-2.7-1c-0.9-0.4-1.6-0.9-2.3-1.6
			c-0.7-0.6-1.2-1.3-1.6-2.1c-0.4-0.8-0.6-1.7-0.6-2.7c0-1.1,0.3-2.2,0.8-3.1s1.2-1.7,2.1-2.3s1.8-1.1,2.9-1.4s2.2-0.5,3.3-0.5
			c3.6,0,6.5,1.4,8.8,4.1l-3.5,3.6c-0.7-0.8-1.5-1.5-2.3-2c-0.9-0.5-1.8-0.7-2.9-0.7c-0.4,0-0.7,0-1.1,0.1s-0.8,0.2-1.1,0.4
			c-0.3,0.2-0.6,0.4-0.8,0.7c-0.2,0.3-0.3,0.6-0.3,1c0,0.6,0.4,1.2,1.2,1.6c0.8,0.5,2,0.9,3.6,1.4c1,0.3,2,0.7,2.9,1.1
			c0.9,0.5,1.7,1,2.4,1.6c0.7,0.6,1.2,1.3,1.6,2.1C330.5,319.9,330.7,320.8,330.7,321.8z"/>
		
			<linearGradient id="SVGID_5_" gradientUnits="userSpaceOnUse" x1="340" y1="-188.3602" x2="340" y2="-157.2237" gradientTransform="matrix(1 0 0 1 0 486.2677)">
			<stop  offset="0" style="stop-color:#0071C9"/>
			<stop  offset="1" style="stop-color:#003B75"/>
		</linearGradient>
		<path class="st12" d="M347.5,327.9c-0.6,0.4-1.3,0.7-2.1,0.9c-0.8,0.2-1.6,0.3-2.4,0.3c-1.4,0-2.6-0.2-3.5-0.5
			c-1-0.3-1.7-0.9-2.3-1.6c-0.6-0.7-1-1.6-1.2-2.7c-0.3-1.1-0.4-2.4-0.4-3.8v-10.3h-3.1v-2.7c1.9-0.8,3.4-2,4.6-3.5
			c1.2-1.6,2-3.6,2.4-6h1.9v6.9h6v5.3h-6v10.7c0,0.6,0.1,1.1,0.2,1.5s0.3,0.7,0.6,0.9c0.2,0.2,0.5,0.4,0.8,0.4
			c0.3,0.1,0.6,0.1,1,0.1c0.5,0,1-0.1,1.7-0.2c0.7-0.2,1.2-0.4,1.7-0.8L347.5,327.9L347.5,327.9z"/>
		
			<linearGradient id="SVGID_6_" gradientUnits="userSpaceOnUse" x1="362.6" y1="-182.0349" x2="362.6" y2="-157.2349" gradientTransform="matrix(1 0 0 1 0 486.2677)">
			<stop  offset="0" style="stop-color:#0071C9"/>
			<stop  offset="1" style="stop-color:#003B75"/>
		</linearGradient>
		<path class="st13" d="M375.3,316.6c0,0.4,0,0.8-0.1,1.2s-0.1,0.8-0.1,1.3h-18.9c0.2,0.7,0.5,1.3,0.9,1.9s0.9,1.1,1.4,1.6
			c0.6,0.4,1.2,0.8,1.9,1.1c0.7,0.3,1.5,0.4,2.4,0.4c1.1,0,2.1-0.2,3.2-0.6s1.9-0.9,2.7-1.5l3.7,3.7c-1.6,1.2-3.2,2.1-4.8,2.6
			c-1.6,0.5-3.2,0.8-5,0.8s-3.4-0.3-5-1c-1.5-0.7-2.9-1.5-4-2.7c-1.1-1.1-2-2.4-2.7-3.9s-1-3.1-1-4.8c0-1.7,0.3-3.3,1-4.8
			s1.6-2.8,2.7-3.9s2.5-2,4-2.7s3.2-1,4.9-1c1.7,0,3.3,0.3,4.8,0.9s2.9,1.5,4,2.6c1.2,1.1,2.1,2.4,2.8,3.9
			C375,313.1,375.3,314.7,375.3,316.6z M369.2,314.3c-0.5-1.5-1.3-2.7-2.5-3.6s-2.5-1.4-4-1.4s-2.8,0.5-4,1.4s-2,2.1-2.4,3.6H369.2z
			"/>
		
			<linearGradient id="SVGID_7_" gradientUnits="userSpaceOnUse" x1="389.55" y1="-191.7064" x2="389.55" y2="-157.2645" gradientTransform="matrix(1 0 0 1 0 486.2677)">
			<stop  offset="0" style="stop-color:#0071C9"/>
			<stop  offset="1" style="stop-color:#003B75"/>
		</linearGradient>
		<path class="st14" d="M400.9,328.4h-6v-1.2c-0.8,0.6-1.6,1.1-2.5,1.4s-1.9,0.4-2.9,0.4c-1.7,0-3.2-0.3-4.6-1s-2.6-1.6-3.6-2.7
			s-1.8-2.4-2.3-3.9c-0.6-1.5-0.8-3.1-0.8-4.7c0-1.8,0.3-3.4,1-4.9c0.6-1.5,1.5-2.8,2.6-3.9s2.3-2,3.6-2.6c1.4-0.6,2.8-1,4.2-1
			c1,0,2,0.1,2.9,0.4c1,0.3,1.8,0.7,2.4,1.1v-11.2h6L400.9,328.4L400.9,328.4z M395,322.1v-11.3c-0.3-0.2-0.6-0.4-0.9-0.6
			c-0.4-0.2-0.7-0.3-1.1-0.4s-0.8-0.2-1.1-0.3c-0.4-0.1-0.7-0.1-1-0.1c-1,0-1.9,0.2-2.7,0.5c-0.8,0.3-1.5,0.8-2.1,1.5
			c-0.6,0.6-1.1,1.4-1.4,2.3s-0.5,1.9-0.5,3s0.2,2,0.5,2.9s0.8,1.6,1.4,2.3c0.6,0.6,1.3,1.1,2.1,1.5c0.8,0.4,1.7,0.5,2.6,0.5
			C392.2,323.8,393.6,323.2,395,322.1z"/>
	</g>
	<g class="st1">
		
			<linearGradient id="SVGID_8_" gradientUnits="userSpaceOnUse" x1="429.85" y1="-190.4821" x2="429.85" y2="-157.8358" gradientTransform="matrix(1 0 0 1 0 486.2677)">
			<stop  offset="0" style="stop-color:#5BA1C2"/>
			<stop  offset="1" style="stop-color:#104777"/>
		</linearGradient>
		<path class="st15" d="M442.1,328.4h-7l-2.3-7.4c-0.2-0.8-0.5-1.6-0.9-2.2c-0.4-0.7-0.8-1.3-1.3-1.8s-1.1-0.9-1.9-1.1
			c-0.7-0.3-1.6-0.4-2.5-0.4h-2.4v13h-6.2v-32.6h12.9c1.4,0,2.7,0.2,3.9,0.7c1.2,0.5,2.2,1.1,3.1,2c0.9,0.8,1.5,1.8,2,3
			c0.5,1.1,0.7,2.4,0.7,3.7c0,1-0.1,1.9-0.4,2.8s-0.7,1.7-1.3,2.5c-0.5,0.8-1.2,1.4-1.9,2c-0.7,0.6-1.6,1-2.5,1.3
			c1,0.4,1.9,0.9,2.5,1.7c0.6,0.7,1.2,1.6,1.5,2.6c0.2,0.5,0.4,0.9,0.5,1.4c0.2,0.5,0.3,0.9,0.5,1.4s0.4,1,0.6,1.6s0.4,1.2,0.7,1.9
			c0.3,0.9,0.6,1.7,0.8,2.3C441.6,327.3,441.8,327.9,442.1,328.4z M433.9,305.6c0-0.8-0.1-1.5-0.4-2.1s-0.7-1.2-1.2-1.6
			c-0.5-0.5-1.1-0.8-1.7-1.1c-0.7-0.3-1.4-0.4-2.1-0.4h-4.6v10.2h4.6c0.8,0,1.5-0.1,2.1-0.3c0.7-0.2,1.2-0.6,1.7-1s0.9-1,1.2-1.6
			C433.8,307,433.9,306.3,433.9,305.6z"/>
		
			<linearGradient id="SVGID_9_" gradientUnits="userSpaceOnUse" x1="456.9" y1="-182.0349" x2="456.9" y2="-157.2349" gradientTransform="matrix(1 0 0 1 0 486.2677)">
			<stop  offset="0" style="stop-color:#5BA1C2"/>
			<stop  offset="1" style="stop-color:#104777"/>
		</linearGradient>
		<path class="st16" d="M469.6,316.6c0,0.4,0,0.8-0.1,1.2s-0.1,0.8-0.1,1.3h-18.9c0.2,0.7,0.5,1.3,0.9,1.9s0.9,1.1,1.4,1.6
			c0.6,0.4,1.2,0.8,1.9,1.1c0.7,0.3,1.5,0.4,2.4,0.4c1.1,0,2.1-0.2,3.2-0.6s1.9-0.9,2.7-1.5l3.7,3.7c-1.6,1.2-3.2,2.1-4.8,2.6
			c-1.6,0.5-3.2,0.8-5,0.8s-3.4-0.3-5-1c-1.5-0.7-2.9-1.5-4-2.7c-1.1-1.1-2-2.4-2.7-3.9s-1-3.1-1-4.8c0-1.7,0.3-3.3,1-4.8
			s1.6-2.8,2.7-3.9s2.5-2,4-2.7s3.2-1,4.9-1c1.7,0,3.3,0.3,4.8,0.9s2.9,1.5,4,2.6c1.2,1.1,2.1,2.4,2.8,3.9
			C469.3,313.1,469.6,314.7,469.6,316.6z M463.4,314.3c-0.5-1.5-1.3-2.7-2.5-3.6s-2.5-1.4-4-1.4s-2.8,0.5-4,1.4s-2,2.1-2.4,3.6
			H463.4z"/>
		
			<linearGradient id="SVGID_10_" gradientUnits="userSpaceOnUse" x1="483.2" y1="-181.4229" x2="483.2" y2="-157.7951" gradientTransform="matrix(1 0 0 1 0 486.2677)">
			<stop  offset="0" style="stop-color:#5BA1C2"/>
			<stop  offset="1" style="stop-color:#104777"/>
		</linearGradient>
		<path class="st17" d="M495,304.8l-8.9,23.6h-5.8l-8.9-23.6h6.4l5.3,15.8l5.3-15.8H495z"/>
		
			<linearGradient id="SVGID_11_" gradientUnits="userSpaceOnUse" x1="500.75" y1="-191.6677" x2="500.75" y2="-157.8677" gradientTransform="matrix(1 0 0 1 0 486.2677)">
			<stop  offset="0" style="stop-color:#5BA1C2"/>
			<stop  offset="1" style="stop-color:#104777"/>
		</linearGradient>
		<path class="st18" d="M503.8,300.7h-6.1v-6.1h6.1V300.7z M503.7,328.4h-6v-23.6h6V328.4z"/>
		
			<linearGradient id="SVGID_12_" gradientUnits="userSpaceOnUse" x1="520.7001" y1="-182.0349" x2="520.7001" y2="-157.2349" gradientTransform="matrix(1 0 0 1 0 486.2677)">
			<stop  offset="0" style="stop-color:#5BA1C2"/>
			<stop  offset="1" style="stop-color:#104777"/>
		</linearGradient>
		<path class="st19" d="M533.4,316.6c0,0.4,0,0.8-0.1,1.2c-0.1,0.4-0.1,0.8-0.1,1.3h-18.9c0.2,0.7,0.5,1.3,0.9,1.9s0.9,1.1,1.4,1.6
			c0.6,0.4,1.2,0.8,1.9,1.1c0.7,0.3,1.5,0.4,2.4,0.4c1.1,0,2.1-0.2,3.2-0.6c1.1-0.4,1.9-0.9,2.7-1.5l3.7,3.7
			c-1.6,1.2-3.2,2.1-4.8,2.6s-3.2,0.8-5,0.8s-3.4-0.3-5-1c-1.5-0.7-2.9-1.5-4-2.7c-1.1-1.1-2-2.4-2.7-3.9s-1-3.1-1-4.8
			c0-1.7,0.3-3.3,1-4.8s1.6-2.8,2.7-3.9c1.1-1.1,2.5-2,4-2.7s3.2-1,4.9-1s3.3,0.3,4.8,0.9s2.9,1.5,4,2.6c1.2,1.1,2.1,2.4,2.8,3.9
			C533.1,313.1,533.4,314.7,533.4,316.6z M527.3,314.3c-0.5-1.5-1.3-2.7-2.5-3.6s-2.5-1.4-4-1.4s-2.8,0.5-4,1.4s-2,2.1-2.4,3.6
			H527.3z"/>
		
			<linearGradient id="SVGID_13_" gradientUnits="userSpaceOnUse" x1="552.95" y1="-181.4677" x2="552.95" y2="-157.7991" gradientTransform="matrix(1 0 0 1 0 486.2677)">
			<stop  offset="0" style="stop-color:#5BA1C2"/>
			<stop  offset="1" style="stop-color:#104777"/>
		</linearGradient>
		<path class="st20" d="M570.7,304.8l-7.9,23.7h-5.1l-4.7-14.1l-4.7,14.1h-5.1l-8-23.7h6.2l4.4,14.8l4.4-14.8h5.2l4.5,14.8l4.4-14.8
			H570.7z"/>
		
			<linearGradient id="SVGID_14_" gradientUnits="userSpaceOnUse" x1="581.7" y1="-182.0349" x2="581.7" y2="-157.1828" gradientTransform="matrix(1 0 0 1 0 486.2677)">
			<stop  offset="0" style="stop-color:#5BA1C2"/>
			<stop  offset="1" style="stop-color:#104777"/>
		</linearGradient>
		<path class="st21" d="M590.7,321.8c0,1.2-0.3,2.2-0.8,3.1s-1.3,1.7-2.1,2.3s-1.9,1.1-2.9,1.4c-1.1,0.3-2.2,0.5-3.2,0.5
			c-1.8,0-3.5-0.3-5-1s-2.8-1.7-4-3.2l3.6-3.6c0.7,0.9,1.5,1.6,2.4,2.1s1.9,0.8,3,0.8c0.9,0,1.7-0.2,2.3-0.5s0.9-0.8,0.9-1.5
			s-0.4-1.3-1.3-1.8c-0.9-0.5-2.1-0.9-3.7-1.4c-0.9-0.3-1.8-0.6-2.7-1s-1.6-0.9-2.3-1.6c-0.7-0.6-1.2-1.3-1.6-2.1
			c-0.4-0.8-0.6-1.7-0.6-2.7c0-1.1,0.3-2.2,0.8-3.1s1.2-1.7,2.1-2.3s1.8-1.1,2.9-1.4c1.1-0.3,2.2-0.5,3.3-0.5c3.6,0,6.5,1.4,8.8,4.1
			l-3.5,3.6c-0.7-0.8-1.5-1.5-2.3-2c-0.9-0.5-1.8-0.7-2.9-0.7c-0.4,0-0.7,0-1.1,0.1c-0.4,0.1-0.8,0.2-1.1,0.4
			c-0.3,0.2-0.6,0.4-0.8,0.7c-0.2,0.3-0.3,0.6-0.3,1c0,0.6,0.4,1.2,1.2,1.6c0.8,0.5,2,0.9,3.6,1.4c1,0.3,2,0.7,2.9,1.1
			c0.9,0.5,1.7,1,2.4,1.6s1.2,1.3,1.6,2.1C590.5,319.9,590.7,320.8,590.7,321.8z"/>
	</g>
	<g class="st1">
		<path d="M247.2,276.7c-0.1-0.1-0.1-0.2-0.1-0.3v-2c0-0.2,0-0.3,0.1-0.4s0.2-0.1,0.4-0.1h1.8c0.9,0,1.7-0.2,2.5-0.7
			c0.8-0.4,1.4-1,1.8-1.8c0.4-0.8,0.7-1.6,0.7-2.5s-0.2-1.7-0.7-2.5c-0.4-0.8-1-1.4-1.8-1.8s-1.6-0.7-2.5-0.7h-1.8
			c-0.1,0-0.1,0-0.2,0.1c-0.1,0.1-0.1,0.1-0.1,0.2v1.4c0,0.1,0,0.2-0.1,0.3c-0.1,0.1-0.2,0.1-0.4,0.1h-2c-0.1,0-0.2,0-0.3-0.1
			s-0.1-0.2-0.1-0.3v-4.1c0-0.1,0-0.3,0.1-0.4s0.2-0.1,0.3-0.1h4.6c1.4,0,2.8,0.4,4,1.1s2.2,1.7,2.9,2.9c0.7,1.2,1.1,2.5,1.1,4
			c0,1.4-0.4,2.8-1.1,4c-0.7,1.2-1.7,2.2-2.9,2.9c-1.2,0.7-2.5,1.1-4,1.1h-1.8C247.4,276.8,247.3,276.8,247.2,276.7z"/>
		<path d="M260.6,276.7c-0.1-0.1-0.1-0.2-0.1-0.3v-15c0-0.1,0-0.2,0.1-0.3s0.2-0.1,0.3-0.1h10.2c0.1,0,0.2,0,0.3,0.1
			s0.1,0.2,0.1,0.3v1.9c0,0.1,0,0.2-0.1,0.3s-0.2,0.1-0.3,0.1h-7.3c-0.1,0-0.2,0-0.3,0.1s-0.1,0.2-0.1,0.3v3.3v0.2
			c0,0.1,0,0.2,0.1,0.3c0.1,0.1,0.2,0.1,0.4,0.1h5.7c0.1,0,0.2,0,0.3,0.1s0.1,0.2,0.1,0.3v1.9c0,0.1,0,0.2-0.1,0.3s-0.2,0.1-0.3,0.1
			h-5.7c-0.2,0-0.3,0.1-0.4,0.2s-0.1,0.2-0.1,0.4v2.4c0,0.2,0,0.3,0.1,0.4s0.3,0.2,0.5,0.2h7.3c0.1,0,0.2,0,0.3,0.1
			c0.1,0.1,0.1,0.2,0.1,0.3v1.9c0,0.1,0,0.2-0.1,0.3s-0.2,0.1-0.3,0.1H261C260.8,276.8,260.7,276.7,260.6,276.7z"/>
		<path d="M275.2,276.7c-0.1-0.1-0.1-0.1-0.1-0.2v-15.2c0-0.1,0-0.2,0.1-0.2c0.1-0.1,0.1-0.1,0.2-0.1h2.3c0.1,0,0.2,0.1,0.2,0.2
			l5.4,9.1c0.2,0.3,0.3,0.5,0.4,0.5s0.2-0.2,0.2-0.5v-8.9c0-0.1,0-0.2,0.1-0.2c0.1-0.1,0.1-0.1,0.2-0.1h2.4c0.1,0,0.2,0,0.2,0.1
			c0.1,0.1,0.1,0.1,0.1,0.2v15.2c0,0.1,0,0.2-0.1,0.2c-0.1,0.1-0.1,0.1-0.2,0.1H285c-0.3,0-0.5,0-0.6-0.1c-0.1,0-0.2-0.2-0.3-0.4
			l-5.7-9.1c-0.1-0.1-0.2-0.2-0.2-0.2c-0.1,0-0.2,0.1-0.2,0.3v9.1c0,0.1,0,0.2-0.1,0.2c-0.1,0.1-0.1,0.1-0.2,0.1h-2.3
			C275.3,276.8,275.3,276.8,275.2,276.7z"/>
		<path d="M295.2,276.8c-0.1-0.1-0.1-0.1-0.1-0.2v-12.3c0-0.1-0.1-0.3-0.2-0.4s-0.2-0.2-0.4-0.2h-3.8c-0.1,0-0.1,0-0.2-0.1
			s-0.1-0.1-0.1-0.2v-2.2c0-0.1,0-0.1,0.1-0.2c0.1,0,0.1-0.1,0.2-0.1h12c0.1,0,0.2,0,0.2,0.1s0.1,0.1,0.1,0.2v2.1
			c0,0.1,0,0.1-0.1,0.2s-0.1,0.1-0.2,0.1h-3.8c-0.2,0-0.3,0.1-0.4,0.2s-0.2,0.2-0.2,0.4v12.4c0,0.1,0,0.1-0.1,0.2s-0.1,0.1-0.2,0.1
			L295.2,276.8C295.3,276.9,295.2,276.8,295.2,276.8z"/>
		<path d="M303.8,276.8c0-0.1-0.1-0.1,0-0.2l4-15.3c0-0.1,0.1-0.2,0.2-0.2c0.1-0.1,0.2-0.1,0.3-0.1h4.7c0.1,0,0.2,0,0.3,0.1
			c0.1,0.1,0.2,0.1,0.2,0.2l4,15.3v0.1c0,0.2-0.1,0.2-0.2,0.2h-2.2c-0.1,0-0.2,0-0.3-0.1c-0.1-0.1-0.2-0.1-0.2-0.2l-1.1-4.2
			c0-0.1-0.1-0.2-0.2-0.3s-0.2-0.1-0.4-0.1h-4.4c-0.1,0-0.3,0-0.4,0.1s-0.2,0.2-0.2,0.3l-1.1,4.2c0,0.1-0.1,0.2-0.2,0.3
			c-0.1,0.1-0.2,0.1-0.3,0.1h-2.2C303.9,276.9,303.8,276.8,303.8,276.8z M312,269.4c0.2,0,0.3-0.1,0.4-0.2s0.1-0.2,0.1-0.4l-1.3-4.7
			c0-0.1-0.1-0.2-0.2-0.3s-0.2-0.1-0.4-0.1h-0.1c-0.1,0-0.3,0-0.4,0.1s-0.2,0.2-0.2,0.3l-1.2,4.7v0.1c0,0.1,0,0.2,0.1,0.3
			s0.2,0.1,0.3,0.1h2.9L312,269.4L312,269.4z"/>
		<path d="M323.1,276c-1.2-0.7-2.2-1.7-2.9-3c-0.7-1.2-1.1-2.6-1.1-4.1s0.4-2.8,1.1-4.1c0.7-1.2,1.7-2.2,2.9-3
			c1.2-0.7,2.6-1.1,4-1.1c1.1,0,2.2,0.2,3.2,0.7s1.9,1.1,2.7,2c0.1,0.1,0.1,0.2,0.1,0.3s-0.1,0.2-0.2,0.3c-0.3,0.3-0.6,0.5-1,0.8
			c-0.3,0.3-0.5,0.5-0.7,0.6c-0.1,0.1-0.2,0.1-0.3,0.1c-0.1,0-0.2,0-0.3-0.1c-0.5-0.5-1-0.9-1.7-1.2c-0.6-0.3-1.3-0.4-2-0.4
			c-0.9,0-1.8,0.2-2.5,0.7s-1.4,1.1-1.8,1.9c-0.5,0.8-0.7,1.6-0.7,2.6c0,0.9,0.2,1.8,0.7,2.6c0.5,0.8,1.1,1.4,1.8,1.9
			s1.6,0.7,2.5,0.7c0.7,0,1.3-0.1,1.9-0.4s1.1-0.6,1.6-1.1c0.2-0.1,0.3-0.2,0.5-0.2s0.3,0,0.4,0.1c0.2,0.1,0.4,0.3,0.6,0.5
			c0.3,0.2,0.5,0.4,0.7,0.6c0.2,0.1,0.2,0.3,0.2,0.5c0,0.1,0,0.2-0.1,0.3c-0.8,0.8-1.6,1.4-2.6,1.9c-1,0.4-2.1,0.7-3.2,0.7
			C325.7,277.1,324.4,276.7,323.1,276z"/>
		<path d="M337.5,274.4c-0.7-0.8-1.3-1.8-1.6-2.8v-0.1c-0.3-0.8-0.4-1.7-0.4-2.5c0-0.9,0.2-1.9,0.5-2.8s0.8-1.7,1.4-2.5
			c0.8-0.9,1.7-1.6,2.5-2.1c0.9-0.5,1.9-0.8,3.2-0.8h0.1c1.3-0.1,2.5,0.2,3.7,0.7c0.8,0.3,1.5,0.8,2.2,1.5c0.7,0.6,1.2,1.3,1.5,1.9
			c0.7,1.2,1.1,2.6,1.1,4c0,0.8-0.1,1.7-0.4,2.5s-0.6,1.6-1.1,2.3c-0.4,0.5-0.8,1-1.2,1.4c-0.4,0.4-1,0.8-1.6,1.1
			c-1.2,0.6-2.4,0.9-3.8,0.9c-1.2,0-2.2-0.2-3.3-0.7C339.2,275.9,338.3,275.2,337.5,274.4z M347.4,272.4c0.4-0.5,0.7-0.9,0.9-1.3
			c0.3-0.7,0.5-1.4,0.5-2.1c0-1-0.3-1.9-0.8-2.8s-1.3-1.5-2.2-1.9c-0.7-0.3-1.4-0.5-2.2-0.5c-0.7,0-1.3,0.1-1.9,0.4
			c-0.6,0.2-1.2,0.6-1.6,1.1l-0.4,0.4c-0.4,0.5-0.7,1-0.9,1.6c-0.2,0.6-0.3,1.2-0.3,1.8c0,0.8,0.2,1.5,0.5,2.2s0.8,1.3,1.4,1.8
			c1,0.8,2.1,1.2,3.4,1.2c0.8,0,1.6-0.2,2.3-0.5C346.5,273.2,347,272.8,347.4,272.4z"/>
		<path d="M355.5,276.7c-0.1-0.1-0.1-0.2-0.1-0.3v-15c0-0.1,0-0.2,0.1-0.3s0.2-0.1,0.3-0.1h2.4c0.1,0,0.2,0,0.3,0.1s0.1,0.2,0.1,0.3
			v15.1c0,0.1,0,0.2-0.1,0.3s-0.2,0.1-0.3,0.1h-2.4C355.7,276.9,355.6,276.8,355.5,276.7z"/>
		<path d="M363.3,276.7c-0.1-0.1-0.1-0.1-0.1-0.2v-15.2c0-0.1,0-0.2,0.1-0.2s0.1-0.1,0.2-0.1h2.3c0.1,0,0.2,0.1,0.3,0.2l5.4,9.1
			c0.2,0.3,0.3,0.5,0.4,0.5s0.2-0.2,0.2-0.5v-8.9c0-0.1,0-0.2,0.1-0.2c0.1-0.1,0.1-0.1,0.2-0.1h2.4c0.1,0,0.2,0,0.2,0.1
			c0.1,0.1,0.1,0.1,0.1,0.2v15.2c0,0.1,0,0.2-0.1,0.2c-0.1,0.1-0.1,0.1-0.2,0.1h-1.6c-0.3,0-0.5,0-0.6-0.1c-0.1,0-0.2-0.2-0.3-0.4
			l-5.7-9.1c-0.1-0.1-0.2-0.2-0.2-0.2c-0.1,0-0.2,0.1-0.2,0.3v9.1c0,0.1,0,0.2-0.1,0.2c-0.1,0.1-0.1,0.1-0.2,0.1h-2.3
			C363.4,276.8,363.4,276.8,363.3,276.7z"/>
	</g>
	
		<linearGradient id="SVGID_15_" gradientUnits="userSpaceOnUse" x1="380.2" y1="-218.6677" x2="590.3" y2="-218.6677" gradientTransform="matrix(1 0 0 1 0 486.2677)">
		<stop  offset="0" style="stop-color:#000000"/>
		<stop  offset="1" style="stop-color:#FFFFFF"/>
	</linearGradient>
	<rect x="380.2" y="266.5" class="st22" width="210.1" height="2.2"/>
</g>
<polygon class="st23" points="113,205 113,225.2 147.9,245.3 162.9,233.9 "/>
<polygon class="st24" points="102.8,205 102.8,225.2 58.1,251.6 40.1,241.1 "/>
<polygon class="st25" points="39,330.7 56.3,320.8 102.7,347.3 102.7,368 "/>
<polygon class="st26" points="113.2,368 113.2,347.7 159.6,320.6 177.3,330.9 "/>
<polygon class="st27" points="180.8,258.2 180.8,321.3 163.4,311 163.4,277.4 "/>
<polygon points="92.7,273.1 76.5,289.3 108.8,322.5 206.2,213.8 109.2,289.7 "/>
<g>
	
		<linearGradient id="SVGID_16_" gradientUnits="userSpaceOnUse" x1="220.0222" y1="357.5136" x2="220.0222" y2="320.8822" gradientTransform="matrix(1 0 0 -1 0 625.7323)">
		<stop  offset="0" style="stop-color:#0071C9"/>
		<stop  offset="1" style="stop-color:#003B75"/>
	</linearGradient>
	<path class="st28" d="M233.7,274.5h-10.1v30.3h-7.2v-30.3h-10.1v-6.3h27.4V274.5z"/>
	
		<linearGradient id="SVGID_17_" gradientUnits="userSpaceOnUse" x1="243.6753" y1="348.0748" x2="243.6753" y2="320.8821" gradientTransform="matrix(1 0 0 -1 0 625.7323)">
		<stop  offset="0" style="stop-color:#0071C9"/>
		<stop  offset="1" style="stop-color:#003B75"/>
	</linearGradient>
	<path class="st29" d="M253.2,281l-3.5,5.6c-0.7-0.7-1.3-1.3-2.1-1.9c-0.8-0.6-1.6-0.8-2.4-0.8c-0.4,0-0.9,0.1-1.3,0.3s-1,0.6-1.5,1
		c-0.4,0.4-0.8,1-1.1,1.8c-0.3,0.8-0.4,1.7-0.4,2.8v14.9h-6.6v-26.5h6.6v2.8c0.8-1.1,1.7-2,2.6-2.6c1-0.6,2-0.9,3.3-0.9
		c1.1,0,2.2,0.3,3.4,0.9C251.1,279.2,252.2,280,253.2,281z"/>
	
		<linearGradient id="SVGID_18_" gradientUnits="userSpaceOnUse" x1="266.9352" y1="347.4005" x2="266.9352" y2="320.2547" gradientTransform="matrix(1 0 0 -1 0 625.7323)">
		<stop  offset="0" style="stop-color:#0071C9"/>
		<stop  offset="1" style="stop-color:#003B75"/>
	</linearGradient>
	<path class="st30" d="M278.9,304.9h-6.6v-2c-0.4,0.4-0.9,0.8-1.5,1.1s-1.1,0.6-1.8,0.8c-0.7,0.2-1.2,0.4-1.9,0.6
		c-0.7,0.1-1.2,0.2-1.9,0.2c-1.3,0-2.6-0.2-3.8-0.7c-1.2-0.4-2.4-1.1-3.3-2c-0.9-0.9-1.7-2-2.2-3.5c-0.6-1.5-0.9-3-0.9-4.9v-16.1
		h6.6v15.7c0,0.9,0.1,1.8,0.4,2.5c0.3,0.7,0.7,1.3,1.1,1.8c0.4,0.4,1,0.8,1.7,1c0.7,0.2,1.2,0.3,1.9,0.3c2.1,0,4-0.8,5.5-2.2v-19.2
		h6.6V304.9z"/>
	
		<linearGradient id="SVGID_19_" gradientUnits="userSpaceOnUse" x1="293.7345" y1="348.0883" x2="293.7345" y2="320.1629" gradientTransform="matrix(1 0 0 -1 0 625.7323)">
		<stop  offset="0" style="stop-color:#0071C9"/>
		<stop  offset="1" style="stop-color:#003B75"/>
	</linearGradient>
	<path class="st31" d="M303.8,297.4c0,1.3-0.3,2.5-0.9,3.5c-0.6,1-1.5,1.9-2.4,2.6c-1,0.7-2.1,1.2-3.3,1.6c-1.2,0.3-2.5,0.6-3.6,0.6
		c-2,0-3.9-0.3-5.6-1.1s-3.1-1.9-4.5-3.6l4-4c0.8,1,1.7,1.8,2.7,2.4c1,0.6,2.1,0.9,3.4,0.9c1,0,1.9-0.2,2.6-0.6c0.7-0.3,1-0.9,1-1.7
		s-0.4-1.5-1.5-2s-2.4-1-4.2-1.6c-1-0.3-2-0.7-3-1.1c-1-0.4-1.8-1-2.6-1.8c-0.8-0.7-1.3-1.5-1.8-2.4c-0.4-0.9-0.7-1.9-0.7-3
		c0-1.2,0.3-2.5,0.9-3.5c0.6-1,1.3-1.9,2.4-2.6c1-0.7,2-1.2,3.3-1.6c1.2-0.3,2.5-0.6,3.7-0.6c4,0,7.3,1.6,9.9,4.6l-3.9,4
		c-0.8-0.9-1.7-1.7-2.6-2.2c-1-0.6-2-0.8-3.3-0.8c-0.4,0-0.8,0-1.2,0.1s-0.9,0.2-1.2,0.4c-0.3,0.2-0.7,0.4-0.9,0.8
		c-0.2,0.3-0.3,0.7-0.3,1.1c0,0.7,0.4,1.3,1.3,1.8c0.9,0.6,2.2,1,4,1.6c1.1,0.3,2.2,0.8,3.3,1.2c1,0.6,1.9,1.1,2.7,1.8
		c0.8,0.7,1.3,1.5,1.8,2.4C303.6,295.3,303.8,296.3,303.8,297.4z"/>
	
		<linearGradient id="SVGID_20_" gradientUnits="userSpaceOnUse" x1="314.2975" y1="355.1958" x2="314.2975" y2="320.2089" gradientTransform="matrix(1 0 0 -1 0 625.7323)">
		<stop  offset="0" style="stop-color:#0071C9"/>
		<stop  offset="1" style="stop-color:#003B75"/>
	</linearGradient>
	<path class="st32" d="M322.7,304.3c-0.7,0.4-1.5,0.8-2.4,1c-0.9,0.2-1.8,0.3-2.7,0.3c-1.6,0-2.9-0.2-3.9-0.6
		c-1.1-0.3-1.9-1-2.6-1.8c-0.7-0.8-1.1-1.8-1.3-3c-0.3-1.2-0.4-2.7-0.4-4.3v-11.6h-3.5v-3c2.1-0.9,3.8-2.2,5.2-3.9
		c1.3-1.8,2.2-4,2.7-6.7h2.1v7.8h6.7v6h-6.7v12c0,0.7,0.1,1.2,0.2,1.7c0.1,0.4,0.3,0.8,0.7,1c0.2,0.2,0.6,0.4,0.9,0.4
		c0.3,0.1,0.7,0.1,1.1,0.1c0.6,0,1.1-0.1,1.9-0.2c0.8-0.2,1.3-0.4,1.9-0.9v5.7H322.7z"/>
	
		<linearGradient id="SVGID_21_" gradientUnits="userSpaceOnUse" x1="339.6923" y1="348.0883" x2="339.6923" y2="320.2215" gradientTransform="matrix(1 0 0 -1 0 625.7323)">
		<stop  offset="0" style="stop-color:#0071C9"/>
		<stop  offset="1" style="stop-color:#003B75"/>
	</linearGradient>
	<path class="st33" d="M354,291.6c0,0.4,0,0.9-0.1,1.3c-0.1,0.4-0.1,0.9-0.1,1.5h-21.2c0.2,0.8,0.6,1.5,1,2.1s1,1.2,1.6,1.8
		c0.7,0.4,1.3,0.9,2.1,1.2c0.8,0.3,1.7,0.4,2.7,0.4c1.2,0,2.4-0.2,3.6-0.7c1.2-0.4,2.1-1,3-1.7l4.2,4.2c-1.8,1.3-3.6,2.4-5.4,2.9
		c-1.8,0.6-3.6,0.9-5.6,0.9s-3.8-0.3-5.6-1.1c-1.7-0.8-3.3-1.7-4.5-3c-1.2-1.2-2.2-2.7-3-4.4c-0.8-1.7-1.1-3.5-1.1-5.4
		c0-1.9,0.3-3.7,1.1-5.4c0.8-1.7,1.8-3.1,3-4.4c1.2-1.2,2.8-2.2,4.5-3s3.6-1.1,5.5-1.1c1.9,0,3.7,0.3,5.4,1c1.7,0.7,3.3,1.7,4.5,2.9
		c1.3,1.2,2.4,2.7,3.1,4.4C353.6,287.7,354,289.5,354,291.6z M347.1,289c-0.6-1.7-1.5-3-2.8-4c-1.3-1-2.8-1.6-4.5-1.6
		c-1.7,0-3.1,0.6-4.5,1.6c-1.3,1-2.2,2.4-2.7,4H347.1z"/>
	
		<linearGradient id="SVGID_22_" gradientUnits="userSpaceOnUse" x1="369.9751" y1="358.9558" x2="369.9751" y2="320.2547" gradientTransform="matrix(1 0 0 -1 0 625.7323)">
		<stop  offset="0" style="stop-color:#0071C9"/>
		<stop  offset="1" style="stop-color:#003B75"/>
	</linearGradient>
	<path class="st34" d="M382.7,304.9H376v-1.3c-0.9,0.7-1.8,1.2-2.8,1.6c-1,0.3-2.1,0.4-3.3,0.4c-1.9,0-3.6-0.3-5.2-1.1s-2.9-1.8-4-3
		c-1.1-1.2-2-2.7-2.6-4.4c-0.7-1.7-0.9-3.5-0.9-5.3c0-2,0.3-3.8,1.1-5.5c0.7-1.7,1.7-3.1,2.9-4.4c1.2-1.2,2.6-2.2,4-2.9
		c1.6-0.7,3.1-1.1,4.7-1.1c1.1,0,2.2,0.1,3.3,0.4c1.1,0.3,2,0.8,2.7,1.2v-12.6h6.7L382.7,304.9L382.7,304.9z M376.1,297.8v-12.7
		c-0.3-0.2-0.7-0.4-1-0.7c-0.4-0.2-0.8-0.3-1.2-0.4c-0.4-0.1-0.9-0.2-1.2-0.3c-0.4-0.1-0.8-0.1-1.1-0.1c-1.1,0-2.1,0.2-3,0.6
		c-0.9,0.3-1.7,0.9-2.4,1.7c-0.7,0.7-1.2,1.6-1.6,2.6c-0.3,1-0.6,2.1-0.6,3.4c0,1.2,0.2,2.2,0.6,3.3c0.3,1,0.9,1.8,1.6,2.6
		c0.7,0.7,1.5,1.2,2.4,1.7s1.9,0.6,2.9,0.6C373,299.7,374.5,299,376.1,297.8z"/>
</g>
<g>
	
		<linearGradient id="SVGID_23_" gradientUnits="userSpaceOnUse" x1="415.2587" y1="357.5802" x2="415.2587" y2="320.8967" gradientTransform="matrix(1 0 0 -1 0 625.7323)">
		<stop  offset="0" style="stop-color:#5BA1C2"/>
		<stop  offset="1" style="stop-color:#104777"/>
	</linearGradient>
	<path class="st35" d="M429,304.9h-7.9l-2.6-8.3c-0.2-0.9-0.6-1.8-1-2.5c-0.4-0.8-0.9-1.5-1.5-2c-0.6-0.6-1.2-1-2.1-1.2
		c-0.8-0.3-1.8-0.4-2.8-0.4h-2.7V305h-7v-36.6H416c1.6,0,3,0.2,4.4,0.8c1.3,0.6,2.5,1.2,3.5,2.2c1,0.9,1.7,2,2.2,3.4
		c0.6,1.2,0.8,2.7,0.8,4.2c0,1.1-0.1,2.1-0.4,3.1c-0.3,1-0.8,1.9-1.5,2.8c-0.6,0.9-1.3,1.6-2.1,2.2c-0.8,0.7-1.8,1.1-2.8,1.5
		c1.1,0.4,2.1,1,2.8,1.9c0.7,0.8,1.3,1.8,1.7,2.9c0.2,0.6,0.4,1,0.6,1.6c0.2,0.6,0.3,1,0.6,1.6c0.2,0.6,0.4,1.1,0.7,1.8
		c0.2,0.7,0.4,1.3,0.8,2.1c0.3,1,0.7,1.9,0.9,2.6C428.5,303.6,428.7,304.3,429,304.9z M419.8,279.2c0-0.9-0.1-1.7-0.4-2.4
		c-0.3-0.7-0.8-1.3-1.3-1.8c-0.6-0.6-1.2-0.9-1.9-1.2c-0.8-0.3-1.6-0.4-2.4-0.4h-5.2v11.5h5.2c0.9,0,1.7-0.1,2.4-0.3
		c0.8-0.2,1.3-0.7,1.9-1.1c0.6-0.4,1-1.1,1.3-1.8C419.7,280.8,419.8,280,419.8,279.2z"/>
	
		<linearGradient id="SVGID_24_" gradientUnits="userSpaceOnUse" x1="445.6538" y1="348.0883" x2="445.6538" y2="320.2215" gradientTransform="matrix(1 0 0 -1 0 625.7323)">
		<stop  offset="0" style="stop-color:#5BA1C2"/>
		<stop  offset="1" style="stop-color:#104777"/>
	</linearGradient>
	<path class="st36" d="M459.9,291.6c0,0.4,0,0.9-0.1,1.3c-0.1,0.4-0.1,0.9-0.1,1.5h-21.2c0.2,0.8,0.6,1.5,1,2.1s1,1.2,1.6,1.8
		c0.7,0.4,1.3,0.9,2.1,1.2c0.8,0.3,1.7,0.4,2.7,0.4c1.2,0,2.4-0.2,3.6-0.7c1.2-0.4,2.1-1,3-1.7l4.2,4.2c-1.8,1.3-3.6,2.4-5.4,2.9
		c-1.8,0.6-3.6,0.9-5.6,0.9s-3.8-0.3-5.6-1.1c-1.7-0.8-3.3-1.7-4.5-3c-1.2-1.2-2.2-2.7-3-4.4c-0.8-1.7-1.1-3.5-1.1-5.4
		c0-1.9,0.3-3.7,1.1-5.4c0.8-1.7,1.8-3.1,3-4.4c1.2-1.2,2.8-2.2,4.5-3s3.6-1.1,5.5-1.1c1.9,0,3.7,0.3,5.4,1c1.7,0.7,3.3,1.7,4.5,2.9
		c1.3,1.2,2.4,2.7,3.1,4.4C459.6,287.7,459.9,289.5,459.9,291.6z M453,289c-0.6-1.7-1.5-3-2.8-4c-1.3-1-2.8-1.6-4.5-1.6
		s-3.1,0.6-4.5,1.6c-1.3,1-2.2,2.4-2.7,4H453z"/>
	
		<linearGradient id="SVGID_25_" gradientUnits="userSpaceOnUse" x1="475.2062" y1="347.4006" x2="475.2062" y2="320.851" gradientTransform="matrix(1 0 0 -1 0 625.7323)">
		<stop  offset="0" style="stop-color:#5BA1C2"/>
		<stop  offset="1" style="stop-color:#104777"/>
	</linearGradient>
	<path class="st37" d="M488.5,278.3l-10,26.5h-6.5l-10-26.5h7.2l6,17.8l6-17.8H488.5z"/>
	
		<linearGradient id="SVGID_26_" gradientUnits="userSpaceOnUse" x1="494.9265" y1="358.91" x2="494.9265" y2="320.9301" gradientTransform="matrix(1 0 0 -1 0 625.7323)">
		<stop  offset="0" style="stop-color:#5BA1C2"/>
		<stop  offset="1" style="stop-color:#104777"/>
	</linearGradient>
	<path class="st38" d="M498.4,273.7h-6.9v-6.9h6.9V273.7z M498.2,304.9h-6.7v-26.5h6.7V304.9z"/>
	
		<linearGradient id="SVGID_27_" gradientUnits="userSpaceOnUse" x1="517.3436" y1="348.0883" x2="517.3436" y2="320.2215" gradientTransform="matrix(1 0 0 -1 0 625.7323)">
		<stop  offset="0" style="stop-color:#5BA1C2"/>
		<stop  offset="1" style="stop-color:#104777"/>
	</linearGradient>
	<path class="st39" d="M531.6,291.6c0,0.4,0,0.9-0.1,1.3s-0.1,0.9-0.1,1.5h-21.2c0.2,0.8,0.6,1.5,1,2.1c0.4,0.7,1,1.2,1.6,1.8
		c0.7,0.4,1.3,0.9,2.1,1.2s1.7,0.4,2.7,0.4c1.2,0,2.4-0.2,3.6-0.7c1.2-0.4,2.1-1,3-1.7l4.2,4.2c-1.8,1.3-3.6,2.4-5.4,2.9
		s-3.6,0.9-5.6,0.9s-3.8-0.3-5.6-1.1c-1.7-0.8-3.3-1.7-4.5-3c-1.2-1.2-2.2-2.7-3-4.4c-0.8-1.7-1.1-3.5-1.1-5.4
		c0-1.9,0.3-3.7,1.1-5.4c0.8-1.7,1.8-3.1,3-4.4c1.2-1.2,2.8-2.2,4.5-3c1.7-0.8,3.6-1.1,5.5-1.1s3.7,0.3,5.4,1s3.3,1.7,4.5,2.9
		c1.3,1.2,2.4,2.7,3.1,4.4C531.3,287.7,531.6,289.5,531.6,291.6z M524.8,289c-0.6-1.7-1.5-3-2.8-4c-1.3-1-2.8-1.6-4.5-1.6
		c-1.7,0-3.1,0.6-4.5,1.6c-1.3,1-2.2,2.4-2.7,4H524.8z"/>
	
		<linearGradient id="SVGID_28_" gradientUnits="userSpaceOnUse" x1="553.5817" y1="347.4464" x2="553.5817" y2="320.8508" gradientTransform="matrix(1 0 0 -1 0 625.7323)">
		<stop  offset="0" style="stop-color:#5BA1C2"/>
		<stop  offset="1" style="stop-color:#104777"/>
	</linearGradient>
	<path class="st40" d="M573.5,278.3l-8.9,26.6h-5.7l-5.3-15.8l-5.3,15.8h-5.7l-9-26.6h7l4.9,16.6l4.9-16.6h5.8l5.1,16.6l4.9-16.6
		H573.5z"/>
	
		<linearGradient id="SVGID_29_" gradientUnits="userSpaceOnUse" x1="585.887" y1="348.0883" x2="585.887" y2="320.1629" gradientTransform="matrix(1 0 0 -1 0 625.7323)">
		<stop  offset="0" style="stop-color:#5BA1C2"/>
		<stop  offset="1" style="stop-color:#104777"/>
	</linearGradient>
	<path class="st41" d="M596,297.4c0,1.3-0.3,2.5-0.9,3.5c-0.6,1-1.5,1.9-2.4,2.6c-0.9,0.7-2.1,1.2-3.3,1.6c-1.2,0.3-2.5,0.6-3.6,0.6
		c-2,0-3.9-0.3-5.6-1.1c-1.7-0.8-3.1-1.9-4.5-3.6l4-4c0.8,1,1.7,1.8,2.7,2.4c1,0.6,2.1,0.9,3.4,0.9c1,0,1.9-0.2,2.6-0.6s1-0.9,1-1.7
		s-0.4-1.5-1.5-2c-1-0.6-2.4-1-4.2-1.6c-1-0.3-2-0.7-3-1.1c-1-0.4-1.8-1-2.6-1.8c-0.8-0.7-1.3-1.5-1.8-2.4c-0.4-0.9-0.7-1.9-0.7-3
		c0-1.2,0.3-2.5,0.9-3.5c0.6-1,1.3-1.9,2.4-2.6c1-0.7,2-1.2,3.3-1.6c1.2-0.3,2.5-0.6,3.7-0.6c4,0,7.3,1.6,9.9,4.6l-3.9,4
		c-0.8-0.9-1.7-1.7-2.6-2.2c-1-0.6-2-0.8-3.3-0.8c-0.4,0-0.8,0-1.2,0.1c-0.4,0.1-0.9,0.2-1.2,0.4s-0.7,0.4-0.9,0.8s-0.3,0.7-0.3,1.1
		c0,0.7,0.4,1.3,1.3,1.8c0.9,0.6,2.2,1,4,1.6c1.1,0.3,2.2,0.8,3.3,1.2c1,0.6,1.9,1.1,2.7,1.8s1.3,1.5,1.8,2.4
		C595.8,295.3,596,296.3,596,297.4z"/>
</g>
<g>
	<path d="M210,246.8c-0.1-0.1-0.1-0.2-0.1-0.3v-2.2c0-0.2,0-0.3,0.1-0.4c0.1-0.1,0.2-0.1,0.4-0.1h2c1,0,1.9-0.2,2.8-0.8
		c0.9-0.4,1.6-1.1,2-2c0.4-0.9,0.8-1.8,0.8-2.8c0-1-0.2-1.9-0.8-2.8c-0.4-0.9-1.1-1.6-2-2c-0.9-0.4-1.8-0.8-2.8-0.8h-2
		c-0.1,0-0.1,0-0.2,0.1c-0.1,0.1-0.1,0.1-0.1,0.2v1.6c0,0.1,0,0.2-0.1,0.3c-0.1,0.1-0.2,0.1-0.4,0.1h-2.2c-0.1,0-0.2,0-0.3-0.1
		c-0.1-0.1-0.1-0.2-0.1-0.3v-4.6c0-0.1,0-0.3,0.1-0.4c0.1-0.1,0.2-0.1,0.3-0.1h5.2c1.6,0,3.1,0.4,4.5,1.2c1.3,0.8,2.5,1.9,3.3,3.3
		c0.8,1.3,1.2,2.8,1.2,4.5c0,1.6-0.4,3.1-1.2,4.5c-0.8,1.3-1.9,2.5-3.3,3.3c-1.3,0.8-2.8,1.2-4.5,1.2h-2
		C210.2,246.9,210.1,246.9,210,246.8z"/>
	<path d="M225.1,246.8c-0.1-0.1-0.1-0.2-0.1-0.3v-16.9c0-0.1,0-0.2,0.1-0.3c0.1-0.1,0.2-0.1,0.3-0.1h11.5c0.1,0,0.2,0,0.3,0.1
		c0.1,0.1,0.1,0.2,0.1,0.3v2.1c0,0.1,0,0.2-0.1,0.3c-0.1,0.1-0.2,0.1-0.3,0.1h-8.2c-0.1,0-0.2,0-0.3,0.1c-0.1,0.1-0.1,0.2-0.1,0.3
		v3.7v0.2c0,0.1,0,0.2,0.1,0.3c0.1,0.1,0.2,0.1,0.4,0.1h6.4c0.1,0,0.2,0,0.3,0.1c0.1,0.1,0.1,0.2,0.1,0.3v2.1c0,0.1,0,0.2-0.1,0.3
		c-0.1,0.1-0.2,0.1-0.3,0.1h-6.4c-0.2,0-0.3,0.1-0.4,0.2c-0.1,0.1-0.1,0.2-0.1,0.4v2.7c0,0.2,0,0.3,0.1,0.4c0.1,0.1,0.3,0.2,0.6,0.2
		h8.2c0.1,0,0.2,0,0.3,0.1c0.1,0.1,0.1,0.2,0.1,0.3v2.1c0,0.1,0,0.2-0.1,0.3c-0.1,0.1-0.2,0.1-0.3,0.1h-11.6
		C225.3,246.9,225.2,246.8,225.1,246.8z"/>
	<path d="M241.5,246.8c-0.1-0.1-0.1-0.1-0.1-0.2v-17.1c0-0.1,0-0.2,0.1-0.2c0.1-0.1,0.1-0.1,0.2-0.1h2.6c0.1,0,0.2,0.1,0.2,0.2
		l6.1,10.2c0.2,0.3,0.3,0.6,0.4,0.6c0.1,0,0.2-0.2,0.2-0.6v-10c0-0.1,0-0.2,0.1-0.2c0.1-0.1,0.1-0.1,0.2-0.1h2.7
		c0.1,0,0.2,0,0.2,0.1c0.1,0.1,0.1,0.1,0.1,0.2v17.1c0,0.1,0,0.2-0.1,0.2c-0.1,0.1-0.1,0.1-0.2,0.1h-1.8c-0.3,0-0.6,0-0.7-0.1
		c-0.1,0-0.2-0.2-0.3-0.4l-6.4-10.2c-0.1-0.1-0.2-0.2-0.2-0.2c-0.1,0-0.2,0.1-0.2,0.3v10.2c0,0.1,0,0.2-0.1,0.2
		c-0.1,0.1-0.1,0.1-0.2,0.1h-2.6C241.6,246.9,241.6,246.9,241.5,246.8z"/>
	<path d="M264,246.9c-0.1-0.1-0.1-0.1-0.1-0.2v-13.8c0-0.1-0.1-0.3-0.2-0.4c-0.1-0.1-0.2-0.2-0.4-0.2h-4.3c-0.1,0-0.1,0-0.2-0.1
		s-0.1-0.1-0.1-0.2v-2.5c0-0.1,0-0.1,0.1-0.2c0.1,0,0.1-0.1,0.2-0.1h13.5c0.1,0,0.2,0,0.2,0.1s0.1,0.1,0.1,0.2v2.4
		c0,0.1,0,0.1-0.1,0.2c-0.1,0.1-0.1,0.1-0.2,0.1h-4.3c-0.2,0-0.3,0.1-0.4,0.2s-0.2,0.2-0.2,0.4v13.9c0,0.1,0,0.1-0.1,0.2
		c-0.1,0.1-0.1,0.1-0.2,0.1h-3C264.1,247,264,246.9,264,246.9z"/>
	<path d="M273.6,246.9c0-0.1-0.1-0.1,0-0.2l4.5-17.2c0-0.1,0.1-0.2,0.2-0.2c0.1-0.1,0.2-0.1,0.3-0.1h5.3c0.1,0,0.2,0,0.3,0.1
		c0.1,0.1,0.2,0.1,0.2,0.2l4.5,17.2v0.1c0,0.2-0.1,0.2-0.2,0.2h-2.5c-0.1,0-0.2,0-0.3-0.1c-0.1-0.1-0.2-0.1-0.2-0.2l-1.2-4.7
		c0-0.1-0.1-0.2-0.2-0.3c-0.1-0.1-0.2-0.1-0.4-0.1h-4.9c-0.1,0-0.3,0-0.4,0.1s-0.2,0.2-0.2,0.3l-1.2,4.7c0,0.1-0.1,0.2-0.2,0.3
		c-0.1,0.1-0.2,0.1-0.3,0.1H274C273.7,247,273.6,246.9,273.6,246.9z M282.8,238.6c0.2,0,0.3-0.1,0.4-0.2c0.1-0.1,0.1-0.2,0.1-0.4
		l-1.5-5.3c0-0.1-0.1-0.2-0.2-0.3s-0.2-0.1-0.4-0.1h-0.1c-0.1,0-0.3,0-0.4,0.1c-0.1,0.1-0.2,0.2-0.2,0.3l-1.3,5.3v0.1
		c0,0.1,0,0.2,0.1,0.3c0.1,0.1,0.2,0.1,0.3,0.1h3.3V238.6z"/>
	<path d="M295.3,246c-1.3-0.8-2.5-1.9-3.3-3.4c-0.8-1.3-1.2-2.9-1.2-4.6c0-1.7,0.4-3.1,1.2-4.6c0.8-1.3,1.9-2.5,3.3-3.4
		c1.3-0.8,2.9-1.2,4.5-1.2c1.2,0,2.5,0.2,3.6,0.8c1.1,0.6,2.1,1.2,3,2.2c0.1,0.1,0.1,0.2,0.1,0.3c0,0.1-0.1,0.2-0.2,0.3
		c-0.3,0.3-0.7,0.6-1.1,0.9c-0.3,0.3-0.6,0.6-0.8,0.7c-0.1,0.1-0.2,0.1-0.3,0.1c-0.1,0-0.2,0-0.3-0.1c-0.6-0.6-1.1-1-1.9-1.3
		c-0.7-0.3-1.5-0.4-2.2-0.4c-1,0-2,0.2-2.8,0.8c-0.8,0.6-1.6,1.2-2,2.1c-0.6,0.9-0.8,1.8-0.8,2.9c0,1,0.2,2,0.8,2.9s1.2,1.6,2,2.1
		c0.8,0.6,1.8,0.8,2.8,0.8c0.8,0,1.5-0.1,2.1-0.4c0.7-0.3,1.2-0.7,1.8-1.2c0.2-0.1,0.3-0.2,0.6-0.2c0.2,0,0.3,0,0.4,0.1
		c0.2,0.1,0.4,0.3,0.7,0.6c0.3,0.2,0.6,0.4,0.8,0.7c0.2,0.1,0.2,0.3,0.2,0.6c0,0.1,0,0.2-0.1,0.3c-0.9,0.9-1.8,1.6-2.9,2.1
		c-1.1,0.4-2.4,0.8-3.6,0.8C298.2,247.2,296.8,246.8,295.3,246z"/>
	<path d="M311.5,244.2c-0.8-0.9-1.5-2-1.8-3.1v-0.1c-0.3-0.9-0.4-1.9-0.4-2.8c0-1,0.2-2.1,0.6-3.1c0.3-1,0.9-1.9,1.6-2.8
		c0.9-1,1.9-1.8,2.8-2.4c1-0.6,2.1-0.9,3.6-0.9h0.1c1.5-0.1,2.8,0.2,4.2,0.8c0.9,0.3,1.7,0.9,2.5,1.7c0.8,0.7,1.3,1.5,1.7,2.1
		c0.8,1.3,1.2,2.9,1.2,4.5c0,0.9-0.1,1.9-0.4,2.8c-0.3,0.9-0.7,1.8-1.2,2.6c-0.4,0.6-0.9,1.1-1.3,1.6c-0.4,0.4-1.1,0.9-1.8,1.2
		c-1.3,0.7-2.7,1-4.3,1c-1.3,0-2.5-0.2-3.7-0.8C313.4,245.9,312.4,245.1,311.5,244.2z M322.6,241.9c0.4-0.6,0.8-1,1-1.5
		c0.3-0.8,0.6-1.6,0.6-2.4c0-1.1-0.3-2.1-0.9-3.1c-0.6-1-1.5-1.7-2.5-2.1c-0.8-0.3-1.6-0.6-2.5-0.6c-0.8,0-1.5,0.1-2.1,0.4
		c-0.7,0.2-1.3,0.7-1.8,1.2l-0.4,0.4c-0.4,0.6-0.8,1.1-1,1.8s-0.3,1.3-0.3,2c0,0.9,0.2,1.7,0.6,2.5s0.9,1.5,1.6,2
		c1.1,0.9,2.4,1.3,3.8,1.3c0.9,0,1.8-0.2,2.6-0.6C321.6,242.8,322.2,242.4,322.6,241.9z"/>
	<path d="M331.7,246.8c-0.1-0.1-0.1-0.2-0.1-0.3v-16.9c0-0.1,0-0.2,0.1-0.3c0.1-0.1,0.2-0.1,0.3-0.1h2.7c0.1,0,0.2,0,0.3,0.1
		s0.1,0.2,0.1,0.3v17c0,0.1,0,0.2-0.1,0.3s-0.2,0.1-0.3,0.1h-2.7C331.9,247,331.8,246.9,331.7,246.8z"/>
	<path d="M340.5,246.8c-0.1-0.1-0.1-0.1-0.1-0.2v-17.1c0-0.1,0-0.2,0.1-0.2c0.1,0,0.1-0.1,0.2-0.1h2.6c0.1,0,0.2,0.1,0.3,0.2
		l6.1,10.2c0.2,0.3,0.3,0.6,0.4,0.6c0.1,0,0.2-0.2,0.2-0.6v-10c0-0.1,0-0.2,0.1-0.2c0.1-0.1,0.1-0.1,0.2-0.1h2.7
		c0.1,0,0.2,0,0.2,0.1c0.1,0.1,0.1,0.1,0.1,0.2v17.1c0,0.1,0,0.2-0.1,0.2c-0.1,0.1-0.1,0.1-0.2,0.1h-1.8c-0.3,0-0.6,0-0.7-0.1
		c-0.1,0-0.2-0.2-0.3-0.4l-6.4-10.2c-0.1-0.1-0.2-0.2-0.2-0.2c-0.1,0-0.2,0.1-0.2,0.3v10.2c0,0.1,0,0.2-0.1,0.2
		c-0.1,0.1-0.1,0.1-0.2,0.1h-2.6C340.6,246.9,340.6,246.9,340.5,246.8z"/>
</g>
<linearGradient id="SVGID_30_" gradientUnits="userSpaceOnUse" x1="359.4688" y1="389.2009" x2="595.5506" y2="389.2009" gradientTransform="matrix(1 0 0 -1 0 625.7323)">
	<stop  offset="0" style="stop-color:#000000"/>
	<stop  offset="1" style="stop-color:#FFFFFF"/>
</linearGradient>
<rect x="359.5" y="235.3" class="st42" width="236.1" height="2.5"/>
</svg>
