<?xml version="1.0" encoding="utf-8"?>
<!-- Generator: Adobe Illustrator 22.1.0, SVG Export Plug-In . SVG Version: 6.00 Build 0)  -->
<svg version="1.1" id="Layer_1" xmlns="http://www.w3.org/2000/svg" xmlns:xlink="http://www.w3.org/1999/xlink" x="0px" y="0px"
	 viewBox="0 0 611 300" style="enable-background:new 0 0 611 300;" xml:space="preserve">
<style type="text/css">
	.st0{fill:#77CBED;}
	.st1{fill:#4BB8E3;}
	.st2{fill:#0096C8;}
	.st3{fill:#1C77BD;}
	.st4{fill:#205DB0;}
	.st5{fill:#152D73;}
	.st6{fill:url(#SVGID_1_);}
	.st7{fill:url(#SVGID_2_);}
	.st8{fill:url(#SVGID_3_);}
	.st9{fill:url(#SVGID_4_);}
	.st10{fill:url(#SVGID_5_);}
	.st11{fill:url(#SVGID_6_);}
	.st12{fill:url(#SVGID_7_);}
	.st13{fill:url(#SVGID_8_);}
	.st14{fill:url(#SVGID_9_);}
	.st15{fill:url(#SVGID_10_);}
	.st16{fill:url(#SVGID_11_);}
	.st17{fill:url(#SVGID_12_);}
	.st18{fill:url(#SVGID_13_);}
	.st19{fill:url(#SVGID_14_);}
	.st20{fill:url(#SVGID_15_);}
</style>
<polygon class="st0" points="124.9,77.5 124.9,95.5 155.9,113.4 169.3,103.3 "/>
<polygon class="st1" points="115.8,77.5 115.8,95.5 76,119 60,109.7 "/>
<polygon class="st2" points="55.5,117.6 70.9,126.7 70.9,172.2 55.5,181.3 "/>
<polygon class="st3" points="59,189.4 74.4,180.6 115.7,204.2 115.7,222.6 "/>
<polygon class="st4" points="125,222.6 125,204.4 166.3,180.4 182.1,189.6 "/>
<polygon class="st5" points="185.2,124.9 185.2,180.9 169.7,171.9 169.7,141.9 "/>
<polygon points="106.8,138.1 92.4,152.6 121.1,182.1 207.8,85.4 121.5,152.9 "/>
<g>
	
		<linearGradient id="SVGID_1_" gradientUnits="userSpaceOnUse" x1="220.1" y1="163.9823" x2="220.1" y2="131.3823" gradientTransform="matrix(1 0 0 -1 0 297.7323)">
		<stop  offset="0" style="stop-color:#0071C9"/>
		<stop  offset="1" style="stop-color:#003B75"/>
	</linearGradient>
	<path class="st6" d="M232.3,139.4h-9v27h-6.4v-27h-9v-5.6h24.4V139.4z"/>
	
		<linearGradient id="SVGID_2_" gradientUnits="userSpaceOnUse" x1="241.15" y1="155.5823" x2="241.15" y2="131.3823" gradientTransform="matrix(1 0 0 -1 0 297.7323)">
		<stop  offset="0" style="stop-color:#0071C9"/>
		<stop  offset="1" style="stop-color:#003B75"/>
	</linearGradient>
	<path class="st7" d="M249.6,145.2l-3.1,5c-0.6-0.6-1.2-1.2-1.9-1.7s-1.4-0.7-2.1-0.7c-0.4,0-0.8,0.1-1.2,0.3s-0.9,0.5-1.3,0.9
		c-0.4,0.4-0.7,0.9-1,1.6c-0.3,0.7-0.4,1.5-0.4,2.5v13.3h-5.9v-23.6h5.9v2.5c0.7-1,1.5-1.8,2.3-2.3c0.9-0.5,1.8-0.8,2.9-0.8
		c1,0,2,0.3,3,0.8C247.8,143.6,248.7,144.3,249.6,145.2z"/>
	
		<linearGradient id="SVGID_3_" gradientUnits="userSpaceOnUse" x1="261.85" y1="154.9822" x2="261.85" y2="130.8239" gradientTransform="matrix(1 0 0 -1 0 297.7323)">
		<stop  offset="0" style="stop-color:#0071C9"/>
		<stop  offset="1" style="stop-color:#003B75"/>
	</linearGradient>
	<path class="st8" d="M272.5,166.4h-5.9v-1.8c-0.4,0.4-0.8,0.7-1.3,1s-1,0.5-1.6,0.7s-1.1,0.4-1.7,0.5s-1.1,0.2-1.7,0.2
		c-1.2,0-2.3-0.2-3.4-0.6c-1.1-0.4-2.1-1-2.9-1.8c-0.8-0.8-1.5-1.8-2-3.1s-0.8-2.7-0.8-4.4v-14.3h5.9v14c0,0.8,0.1,1.6,0.4,2.2
		c0.3,0.6,0.6,1.2,1,1.6c0.4,0.4,0.9,0.7,1.5,0.9s1.1,0.3,1.7,0.3c1.9,0,3.6-0.7,4.9-2v-17.1h5.9V166.4z"/>
	
		<linearGradient id="SVGID_4_" gradientUnits="userSpaceOnUse" x1="285.7" y1="155.5943" x2="285.7" y2="130.7422" gradientTransform="matrix(1 0 0 -1 0 297.7323)">
		<stop  offset="0" style="stop-color:#0071C9"/>
		<stop  offset="1" style="stop-color:#003B75"/>
	</linearGradient>
	<path class="st9" d="M294.7,159.8c0,1.2-0.3,2.2-0.8,3.1c-0.5,0.9-1.3,1.7-2.1,2.3c-0.9,0.6-1.9,1.1-2.9,1.4
		c-1.1,0.3-2.2,0.5-3.2,0.5c-1.8,0-3.5-0.3-5-1s-2.8-1.7-4-3.2l3.6-3.6c0.7,0.9,1.5,1.6,2.4,2.1s1.9,0.8,3,0.8
		c0.9,0,1.7-0.2,2.3-0.5c0.6-0.3,0.9-0.8,0.9-1.5s-0.4-1.3-1.3-1.8s-2.1-0.9-3.7-1.4c-0.9-0.3-1.8-0.6-2.7-1
		c-0.9-0.4-1.6-0.9-2.3-1.6c-0.7-0.6-1.2-1.3-1.6-2.1s-0.6-1.7-0.6-2.7c0-1.1,0.3-2.2,0.8-3.1c0.5-0.9,1.2-1.7,2.1-2.3
		s1.8-1.1,2.9-1.4c1.1-0.3,2.2-0.5,3.3-0.5c3.6,0,6.5,1.4,8.8,4.1l-3.5,3.6c-0.7-0.8-1.5-1.5-2.3-2c-0.9-0.5-1.8-0.7-2.9-0.7
		c-0.4,0-0.7,0-1.1,0.1s-0.8,0.2-1.1,0.4c-0.3,0.2-0.6,0.4-0.8,0.7c-0.2,0.3-0.3,0.6-0.3,1c0,0.6,0.4,1.2,1.2,1.6
		c0.8,0.5,2,0.9,3.6,1.4c1,0.3,2,0.7,2.9,1.1c0.9,0.5,1.7,1,2.4,1.6c0.7,0.6,1.2,1.3,1.6,2.1C294.5,157.9,294.7,158.8,294.7,159.8z"
		/>
	
		<linearGradient id="SVGID_5_" gradientUnits="userSpaceOnUse" x1="304" y1="161.9196" x2="304" y2="130.7831" gradientTransform="matrix(1 0 0 -1 0 297.7323)">
		<stop  offset="0" style="stop-color:#0071C9"/>
		<stop  offset="1" style="stop-color:#003B75"/>
	</linearGradient>
	<path class="st10" d="M311.5,165.9c-0.6,0.4-1.3,0.7-2.1,0.9c-0.8,0.2-1.6,0.3-2.4,0.3c-1.4,0-2.6-0.2-3.5-0.5
		c-1-0.3-1.7-0.9-2.3-1.6c-0.6-0.7-1-1.6-1.2-2.7c-0.3-1.1-0.4-2.4-0.4-3.8v-10.3h-3.1v-2.7c1.9-0.8,3.4-2,4.6-3.5
		c1.2-1.6,2-3.6,2.4-6h1.9v6.9h6v5.3h-6v10.7c0,0.6,0.1,1.1,0.2,1.5s0.3,0.7,0.6,0.9c0.2,0.2,0.5,0.4,0.8,0.4c0.3,0.1,0.6,0.1,1,0.1
		c0.5,0,1-0.1,1.7-0.2c0.7-0.2,1.2-0.4,1.7-0.8L311.5,165.9L311.5,165.9z"/>
	
		<linearGradient id="SVGID_6_" gradientUnits="userSpaceOnUse" x1="326.6" y1="155.5943" x2="326.6" y2="130.7943" gradientTransform="matrix(1 0 0 -1 0 297.7323)">
		<stop  offset="0" style="stop-color:#0071C9"/>
		<stop  offset="1" style="stop-color:#003B75"/>
	</linearGradient>
	<path class="st11" d="M339.3,154.6c0,0.4,0,0.8-0.1,1.2s-0.1,0.8-0.1,1.3h-18.9c0.2,0.7,0.5,1.3,0.9,1.9c0.4,0.6,0.9,1.1,1.4,1.6
		c0.6,0.4,1.2,0.8,1.9,1.1c0.7,0.3,1.5,0.4,2.4,0.4c1.1,0,2.1-0.2,3.2-0.6c1.1-0.4,1.9-0.9,2.7-1.5l3.7,3.7
		c-1.6,1.2-3.2,2.1-4.8,2.6c-1.6,0.5-3.2,0.8-5,0.8s-3.4-0.3-5-1c-1.5-0.7-2.9-1.5-4-2.7c-1.1-1.1-2-2.4-2.7-3.9s-1-3.1-1-4.8
		s0.3-3.3,1-4.8s1.6-2.8,2.7-3.9c1.1-1.1,2.5-2,4-2.7s3.2-1,4.9-1c1.7,0,3.3,0.3,4.8,0.9c1.5,0.6,2.9,1.5,4,2.6
		c1.2,1.1,2.1,2.4,2.8,3.9C339,151.1,339.3,152.7,339.3,154.6z M333.2,152.3c-0.5-1.5-1.3-2.7-2.5-3.6c-1.2-0.9-2.5-1.4-4-1.4
		s-2.8,0.5-4,1.4s-2,2.1-2.4,3.6H333.2z"/>
	
		<linearGradient id="SVGID_7_" gradientUnits="userSpaceOnUse" x1="353.55" y1="165.2658" x2="353.55" y2="130.8239" gradientTransform="matrix(1 0 0 -1 0 297.7323)">
		<stop  offset="0" style="stop-color:#0071C9"/>
		<stop  offset="1" style="stop-color:#003B75"/>
	</linearGradient>
	<path class="st12" d="M364.9,166.4h-6v-1.2c-0.8,0.6-1.6,1.1-2.5,1.4c-0.9,0.3-1.9,0.4-2.9,0.4c-1.7,0-3.2-0.3-4.6-1
		s-2.6-1.6-3.6-2.7c-1-1.1-1.8-2.4-2.3-3.9c-0.6-1.5-0.8-3.1-0.8-4.7c0-1.8,0.3-3.4,1-4.9c0.6-1.5,1.5-2.8,2.6-3.9
		c1.1-1.1,2.3-2,3.6-2.6c1.4-0.6,2.8-1,4.2-1c1,0,2,0.1,2.9,0.4c1,0.3,1.8,0.7,2.4,1.1v-11.2h6L364.9,166.4L364.9,166.4z M359,160.1
		v-11.3c-0.3-0.2-0.6-0.4-0.9-0.6c-0.4-0.2-0.7-0.3-1.1-0.4c-0.4-0.1-0.8-0.2-1.1-0.3c-0.4-0.1-0.7-0.1-1-0.1c-1,0-1.9,0.2-2.7,0.5
		c-0.8,0.3-1.5,0.8-2.1,1.5c-0.6,0.6-1.1,1.4-1.4,2.3c-0.3,0.9-0.5,1.9-0.5,3s0.2,2,0.5,2.9s0.8,1.6,1.4,2.3
		c0.6,0.6,1.3,1.1,2.1,1.5c0.8,0.4,1.7,0.5,2.6,0.5C356.2,161.8,357.6,161.2,359,160.1z"/>
</g>
<g>
	
		<linearGradient id="SVGID_8_" gradientUnits="userSpaceOnUse" x1="393.85" y1="164.0416" x2="393.85" y2="131.3952" gradientTransform="matrix(1 0 0 -1 0 297.7323)">
		<stop  offset="0" style="stop-color:#5BA1C2"/>
		<stop  offset="1" style="stop-color:#104777"/>
	</linearGradient>
	<path class="st13" d="M406.1,166.4h-7l-2.3-7.4c-0.2-0.8-0.5-1.6-0.9-2.2c-0.4-0.7-0.8-1.3-1.3-1.8s-1.1-0.9-1.9-1.1
		c-0.7-0.3-1.6-0.4-2.5-0.4h-2.4v13h-6.2v-32.6h12.9c1.4,0,2.7,0.2,3.9,0.7c1.2,0.5,2.2,1.1,3.1,2c0.9,0.8,1.5,1.8,2,3
		c0.5,1.1,0.7,2.4,0.7,3.7c0,1-0.1,1.9-0.4,2.8c-0.3,0.9-0.7,1.7-1.3,2.5c-0.5,0.8-1.2,1.4-1.9,2c-0.7,0.6-1.6,1-2.5,1.3
		c1,0.4,1.9,0.9,2.5,1.7c0.6,0.7,1.2,1.6,1.5,2.6c0.2,0.5,0.4,0.9,0.5,1.4c0.2,0.5,0.3,0.9,0.5,1.4s0.4,1,0.6,1.6s0.4,1.2,0.7,1.9
		c0.3,0.9,0.6,1.7,0.8,2.3C405.6,165.3,405.8,165.9,406.1,166.4z M397.9,143.6c0-0.8-0.1-1.5-0.4-2.1s-0.7-1.2-1.2-1.6
		c-0.5-0.5-1.1-0.8-1.7-1.1c-0.7-0.3-1.4-0.4-2.1-0.4h-4.6v10.2h4.6c0.8,0,1.5-0.1,2.1-0.3c0.7-0.2,1.2-0.6,1.7-1s0.9-1,1.2-1.6
		C397.8,144.9,397.9,144.3,397.9,143.6z"/>
	
		<linearGradient id="SVGID_9_" gradientUnits="userSpaceOnUse" x1="420.9" y1="155.5943" x2="420.9" y2="130.7943" gradientTransform="matrix(1 0 0 -1 0 297.7323)">
		<stop  offset="0" style="stop-color:#5BA1C2"/>
		<stop  offset="1" style="stop-color:#104777"/>
	</linearGradient>
	<path class="st14" d="M433.6,154.6c0,0.4,0,0.8-0.1,1.2s-0.1,0.8-0.1,1.3h-18.9c0.2,0.7,0.5,1.3,0.9,1.9c0.4,0.6,0.9,1.1,1.4,1.6
		c0.6,0.4,1.2,0.8,1.9,1.1c0.7,0.3,1.5,0.4,2.4,0.4c1.1,0,2.1-0.2,3.2-0.6c1.1-0.4,1.9-0.9,2.7-1.5l3.7,3.7
		c-1.6,1.2-3.2,2.1-4.8,2.6c-1.6,0.5-3.2,0.8-5,0.8s-3.4-0.3-5-1c-1.5-0.7-2.9-1.5-4-2.7c-1.1-1.1-2-2.4-2.7-3.9s-1-3.1-1-4.8
		s0.3-3.3,1-4.8s1.6-2.8,2.7-3.9c1.1-1.1,2.5-2,4-2.7s3.2-1,4.9-1c1.7,0,3.3,0.3,4.8,0.9c1.5,0.6,2.9,1.5,4,2.6
		c1.2,1.1,2.1,2.4,2.8,3.9C433.3,151.1,433.6,152.7,433.6,154.6z M427.4,152.3c-0.5-1.5-1.3-2.7-2.5-3.6c-1.2-0.9-2.5-1.4-4-1.4
		s-2.8,0.5-4,1.4s-2,2.1-2.4,3.6H427.4z"/>
	
		<linearGradient id="SVGID_10_" gradientUnits="userSpaceOnUse" x1="447.2" y1="154.9823" x2="447.2" y2="131.3545" gradientTransform="matrix(1 0 0 -1 0 297.7323)">
		<stop  offset="0" style="stop-color:#5BA1C2"/>
		<stop  offset="1" style="stop-color:#104777"/>
	</linearGradient>
	<path class="st15" d="M459,142.8l-8.9,23.6h-5.8l-8.9-23.6h6.4l5.3,15.8l5.3-15.8H459z"/>
	
		<linearGradient id="SVGID_11_" gradientUnits="userSpaceOnUse" x1="464.75" y1="165.225" x2="464.75" y2="131.425" gradientTransform="matrix(1 0 0 -1 0 297.7323)">
		<stop  offset="0" style="stop-color:#5BA1C2"/>
		<stop  offset="1" style="stop-color:#104777"/>
	</linearGradient>
	<path class="st16" d="M467.8,138.7h-6.1v-6.1h6.1V138.7z M467.7,166.4h-6v-23.6h6V166.4z"/>
	
		<linearGradient id="SVGID_12_" gradientUnits="userSpaceOnUse" x1="484.7" y1="155.5943" x2="484.7" y2="130.7943" gradientTransform="matrix(1 0 0 -1 0 297.7323)">
		<stop  offset="0" style="stop-color:#5BA1C2"/>
		<stop  offset="1" style="stop-color:#104777"/>
	</linearGradient>
	<path class="st17" d="M497.4,154.6c0,0.4,0,0.8-0.1,1.2s-0.1,0.8-0.1,1.3h-18.9c0.2,0.7,0.5,1.3,0.9,1.9c0.4,0.6,0.9,1.1,1.4,1.6
		c0.6,0.4,1.2,0.8,1.9,1.1c0.7,0.3,1.5,0.4,2.4,0.4c1.1,0,2.1-0.2,3.2-0.6c1.1-0.4,1.9-0.9,2.7-1.5l3.7,3.7
		c-1.6,1.2-3.2,2.1-4.8,2.6c-1.6,0.5-3.2,0.8-5,0.8s-3.4-0.3-5-1c-1.5-0.7-2.9-1.5-4-2.7c-1.1-1.1-2-2.4-2.7-3.9s-1-3.1-1-4.8
		s0.3-3.3,1-4.8s1.6-2.8,2.7-3.9c1.1-1.1,2.5-2,4-2.7s3.2-1,4.9-1c1.7,0,3.3,0.3,4.8,0.9c1.5,0.6,2.9,1.5,4,2.6
		c1.2,1.1,2.1,2.4,2.8,3.9C497.1,151.1,497.4,152.7,497.4,154.6z M491.3,152.3c-0.5-1.5-1.3-2.7-2.5-3.6c-1.2-0.9-2.5-1.4-4-1.4
		s-2.8,0.5-4,1.4s-2,2.1-2.4,3.6H491.3z"/>
	
		<linearGradient id="SVGID_13_" gradientUnits="userSpaceOnUse" x1="516.95" y1="155.023" x2="516.95" y2="131.3544" gradientTransform="matrix(1 0 0 -1 0 297.7323)">
		<stop  offset="0" style="stop-color:#5BA1C2"/>
		<stop  offset="1" style="stop-color:#104777"/>
	</linearGradient>
	<path class="st18" d="M534.7,142.8l-7.9,23.7h-5.1l-4.7-14.1l-4.7,14.1h-5.1l-8-23.7h6.2l4.4,14.8l4.4-14.8h5.2l4.5,14.8l4.4-14.8
		H534.7z"/>
	
		<linearGradient id="SVGID_14_" gradientUnits="userSpaceOnUse" x1="545.7" y1="155.5943" x2="545.7" y2="130.7422" gradientTransform="matrix(1 0 0 -1 0 297.7323)">
		<stop  offset="0" style="stop-color:#5BA1C2"/>
		<stop  offset="1" style="stop-color:#104777"/>
	</linearGradient>
	<path class="st19" d="M554.7,159.8c0,1.2-0.3,2.2-0.8,3.1c-0.5,0.9-1.3,1.7-2.1,2.3s-1.9,1.1-2.9,1.4c-1.1,0.3-2.2,0.5-3.2,0.5
		c-1.8,0-3.5-0.3-5-1s-2.8-1.7-4-3.2l3.6-3.6c0.7,0.9,1.5,1.6,2.4,2.1s1.9,0.8,3,0.8c0.9,0,1.7-0.2,2.3-0.5s0.9-0.8,0.9-1.5
		s-0.4-1.3-1.3-1.8c-0.9-0.5-2.1-0.9-3.7-1.4c-0.9-0.3-1.8-0.6-2.7-1s-1.6-0.9-2.3-1.6c-0.7-0.6-1.2-1.3-1.6-2.1
		c-0.4-0.8-0.6-1.7-0.6-2.7c0-1.1,0.3-2.2,0.8-3.1c0.5-0.9,1.2-1.7,2.1-2.3s1.8-1.1,2.9-1.4c1.1-0.3,2.2-0.5,3.3-0.5
		c3.6,0,6.5,1.4,8.8,4.1l-3.5,3.6c-0.7-0.8-1.5-1.5-2.3-2c-0.9-0.5-1.8-0.7-2.9-0.7c-0.4,0-0.7,0-1.1,0.1c-0.4,0.1-0.8,0.2-1.1,0.4
		s-0.6,0.4-0.8,0.7s-0.3,0.6-0.3,1c0,0.6,0.4,1.2,1.2,1.6c0.8,0.5,2,0.9,3.6,1.4c1,0.3,2,0.7,2.9,1.1c0.9,0.5,1.7,1,2.4,1.6
		s1.2,1.3,1.6,2.1C554.5,157.9,554.7,158.8,554.7,159.8z"/>
</g>
<g>
	<path d="M211.2,114.7c-0.1-0.1-0.1-0.2-0.1-0.3v-2c0-0.2,0-0.3,0.1-0.4s0.2-0.1,0.4-0.1h1.8c0.9,0,1.7-0.2,2.5-0.7
		c0.8-0.4,1.4-1,1.8-1.8c0.4-0.8,0.7-1.6,0.7-2.5s-0.2-1.7-0.7-2.5c-0.4-0.8-1-1.4-1.8-1.8s-1.6-0.7-2.5-0.7h-1.8
		c-0.1,0-0.1,0-0.2,0.1c-0.1,0.1-0.1,0.1-0.1,0.2v1.4c0,0.1,0,0.2-0.1,0.3c-0.1,0.1-0.2,0.1-0.4,0.1h-2c-0.1,0-0.2,0-0.3-0.1
		s-0.1-0.2-0.1-0.3v-4.1c0-0.1,0-0.3,0.1-0.4s0.2-0.1,0.3-0.1h4.6c1.4,0,2.8,0.4,4,1.1s2.2,1.7,2.9,2.9c0.7,1.2,1.1,2.5,1.1,4
		c0,1.4-0.4,2.8-1.1,4c-0.7,1.2-1.7,2.2-2.9,2.9s-2.5,1.1-4,1.1h-1.8C211.4,114.8,211.3,114.8,211.2,114.7z"/>
	<path d="M224.6,114.7c-0.1-0.1-0.1-0.2-0.1-0.3v-15c0-0.1,0-0.2,0.1-0.3s0.2-0.1,0.3-0.1h10.2c0.1,0,0.2,0,0.3,0.1s0.1,0.2,0.1,0.3
		v1.9c0,0.1,0,0.2-0.1,0.3c-0.1,0.1-0.2,0.1-0.3,0.1h-7.3c-0.1,0-0.2,0-0.3,0.1s-0.1,0.2-0.1,0.3v3.3v0.2c0,0.1,0,0.2,0.1,0.3
		c0.1,0.1,0.2,0.1,0.4,0.1h5.7c0.1,0,0.2,0,0.3,0.1s0.1,0.2,0.1,0.3v1.9c0,0.1,0,0.2-0.1,0.3c-0.1,0.1-0.2,0.1-0.3,0.1h-5.7
		c-0.2,0-0.3,0.1-0.4,0.2c-0.1,0.1-0.1,0.2-0.1,0.4v2.4c0,0.2,0,0.3,0.1,0.4s0.3,0.2,0.5,0.2h7.3c0.1,0,0.2,0,0.3,0.1
		s0.1,0.2,0.1,0.3v1.9c0,0.1,0,0.2-0.1,0.3c-0.1,0.1-0.2,0.1-0.3,0.1H225C224.8,114.8,224.7,114.7,224.6,114.7z"/>
	<path d="M239.2,114.7c-0.1-0.1-0.1-0.1-0.1-0.2V99.3c0-0.1,0-0.2,0.1-0.2c0.1-0.1,0.1-0.1,0.2-0.1h2.3c0.1,0,0.2,0.1,0.2,0.2
		l5.4,9.1c0.2,0.3,0.3,0.5,0.4,0.5c0.1,0,0.2-0.2,0.2-0.5v-8.9c0-0.1,0-0.2,0.1-0.2c0.1-0.1,0.1-0.1,0.2-0.1h2.4
		c0.1,0,0.2,0,0.2,0.1c0.1,0.1,0.1,0.1,0.1,0.2v15.2c0,0.1,0,0.2-0.1,0.2c-0.1,0.1-0.1,0.1-0.2,0.1H249c-0.3,0-0.5,0-0.6-0.1
		c-0.1,0-0.2-0.2-0.3-0.4l-5.7-9.1c-0.1-0.1-0.2-0.2-0.2-0.2c-0.1,0-0.2,0.1-0.2,0.3v9.1c0,0.1,0,0.2-0.1,0.2
		c-0.1,0.1-0.1,0.1-0.2,0.1h-2.3C239.3,114.8,239.3,114.8,239.2,114.7z"/>
	<path d="M259.2,114.8c-0.1-0.1-0.1-0.1-0.1-0.2v-12.3c0-0.1-0.1-0.3-0.2-0.4s-0.2-0.2-0.4-0.2h-3.8c-0.1,0-0.1,0-0.2-0.1
		c-0.1-0.1-0.1-0.1-0.1-0.2v-2.2c0-0.1,0-0.1,0.1-0.2c0.1,0,0.1-0.1,0.2-0.1h12c0.1,0,0.2,0,0.2,0.1s0.1,0.1,0.1,0.2v2.1
		c0,0.1,0,0.1-0.1,0.2s-0.1,0.1-0.2,0.1h-3.8c-0.2,0-0.3,0.1-0.4,0.2s-0.2,0.2-0.2,0.4v12.4c0,0.1,0,0.1-0.1,0.2s-0.1,0.1-0.2,0.1
		L259.2,114.8C259.3,114.9,259.2,114.8,259.2,114.8z"/>
	<path d="M267.8,114.8c0-0.1-0.1-0.1,0-0.2l4-15.3c0-0.1,0.1-0.2,0.2-0.2c0.1-0.1,0.2-0.1,0.3-0.1h4.7c0.1,0,0.2,0,0.3,0.1
		c0.1,0.1,0.2,0.1,0.2,0.2l4,15.3v0.1c0,0.2-0.1,0.2-0.2,0.2h-2.2c-0.1,0-0.2,0-0.3-0.1c-0.1-0.1-0.2-0.1-0.2-0.2l-1.1-4.2
		c0-0.1-0.1-0.2-0.2-0.3s-0.2-0.1-0.4-0.1h-4.4c-0.1,0-0.3,0-0.4,0.1s-0.2,0.2-0.2,0.3l-1.1,4.2c0,0.1-0.1,0.2-0.2,0.3
		c-0.1,0.1-0.2,0.1-0.3,0.1h-2.2C267.9,114.9,267.8,114.8,267.8,114.8z M276,107.4c0.2,0,0.3-0.1,0.4-0.2s0.1-0.2,0.1-0.4l-1.3-4.7
		c0-0.1-0.1-0.2-0.2-0.3c-0.1-0.1-0.2-0.1-0.4-0.1h-0.1c-0.1,0-0.3,0-0.4,0.1s-0.2,0.2-0.2,0.3l-1.2,4.7v0.1c0,0.1,0,0.2,0.1,0.3
		s0.2,0.1,0.3,0.1L276,107.4L276,107.4z"/>
	<path d="M287.1,114c-1.2-0.7-2.2-1.7-2.9-3c-0.7-1.2-1.1-2.6-1.1-4.1s0.4-2.8,1.1-4.1c0.7-1.2,1.7-2.2,2.9-3c1.2-0.7,2.6-1.1,4-1.1
		c1.1,0,2.2,0.2,3.2,0.7s1.9,1.1,2.7,2c0.1,0.1,0.1,0.2,0.1,0.3c0,0.1-0.1,0.2-0.2,0.3c-0.3,0.3-0.6,0.5-1,0.8
		c-0.3,0.3-0.5,0.5-0.7,0.6c-0.1,0.1-0.2,0.1-0.3,0.1c-0.1,0-0.2,0-0.3-0.1c-0.5-0.5-1-0.9-1.7-1.2c-0.6-0.3-1.3-0.4-2-0.4
		c-0.9,0-1.8,0.2-2.5,0.7s-1.4,1.1-1.8,1.9c-0.5,0.8-0.7,1.6-0.7,2.6c0,0.9,0.2,1.8,0.7,2.6s1.1,1.4,1.8,1.9s1.6,0.7,2.5,0.7
		c0.7,0,1.3-0.1,1.9-0.4s1.1-0.6,1.6-1.1c0.2-0.1,0.3-0.2,0.5-0.2s0.3,0,0.4,0.1c0.2,0.1,0.4,0.3,0.6,0.5c0.3,0.2,0.5,0.4,0.7,0.6
		c0.2,0.1,0.2,0.3,0.2,0.5c0,0.1,0,0.2-0.1,0.3c-0.8,0.8-1.6,1.4-2.6,1.9c-1,0.4-2.1,0.7-3.2,0.7C289.7,115.1,288.4,114.7,287.1,114
		z"/>
	<path d="M301.5,112.4c-0.7-0.8-1.3-1.8-1.6-2.8v-0.1c-0.3-0.8-0.4-1.7-0.4-2.5c0-0.9,0.2-1.9,0.5-2.8s0.8-1.7,1.4-2.5
		c0.8-0.9,1.7-1.6,2.5-2.1c0.9-0.5,1.9-0.8,3.2-0.8h0.1c1.3-0.1,2.5,0.2,3.7,0.7c0.8,0.3,1.5,0.8,2.2,1.5c0.7,0.6,1.2,1.3,1.5,1.9
		c0.7,1.2,1.1,2.6,1.1,4c0,0.8-0.1,1.7-0.4,2.5s-0.6,1.6-1.1,2.3c-0.4,0.5-0.8,1-1.2,1.4c-0.4,0.4-1,0.8-1.6,1.1
		c-1.2,0.6-2.4,0.9-3.8,0.9c-1.2,0-2.2-0.2-3.3-0.7C303.2,113.9,302.3,113.2,301.5,112.4z M311.4,110.4c0.4-0.5,0.7-0.9,0.9-1.3
		c0.3-0.7,0.5-1.4,0.5-2.1c0-1-0.3-1.9-0.8-2.8s-1.3-1.5-2.2-1.9c-0.7-0.3-1.4-0.5-2.2-0.5c-0.7,0-1.3,0.1-1.9,0.4
		c-0.6,0.2-1.2,0.6-1.6,1.1l-0.4,0.4c-0.4,0.5-0.7,1-0.9,1.6c-0.2,0.6-0.3,1.2-0.3,1.8c0,0.8,0.2,1.5,0.5,2.2s0.8,1.3,1.4,1.8
		c1,0.8,2.1,1.2,3.4,1.2c0.8,0,1.6-0.2,2.3-0.5C310.5,111.2,311,110.8,311.4,110.4z"/>
	<path d="M319.5,114.7c-0.1-0.1-0.1-0.2-0.1-0.3v-15c0-0.1,0-0.2,0.1-0.3s0.2-0.1,0.3-0.1h2.4c0.1,0,0.2,0,0.3,0.1s0.1,0.2,0.1,0.3
		v15.1c0,0.1,0,0.2-0.1,0.3c-0.1,0.1-0.2,0.1-0.3,0.1h-2.4C319.7,114.9,319.6,114.8,319.5,114.7z"/>
	<path d="M327.3,114.7c-0.1-0.1-0.1-0.1-0.1-0.2V99.3c0-0.1,0-0.2,0.1-0.2s0.1-0.1,0.2-0.1h2.3c0.1,0,0.2,0.1,0.3,0.2l5.4,9.1
		c0.2,0.3,0.3,0.5,0.4,0.5s0.2-0.2,0.2-0.5v-8.9c0-0.1,0-0.2,0.1-0.2c0.1-0.1,0.1-0.1,0.2-0.1h2.4c0.1,0,0.2,0,0.2,0.1
		c0.1,0.1,0.1,0.1,0.1,0.2v15.2c0,0.1,0,0.2-0.1,0.2c-0.1,0.1-0.1,0.1-0.2,0.1h-1.6c-0.3,0-0.5,0-0.6-0.1c-0.1,0-0.2-0.2-0.3-0.4
		l-5.7-9.1c-0.1-0.1-0.2-0.2-0.2-0.2c-0.1,0-0.2,0.1-0.2,0.3v9.1c0,0.1,0,0.2-0.1,0.2c-0.1,0.1-0.1,0.1-0.2,0.1h-2.3
		C327.4,114.8,327.4,114.8,327.3,114.7z"/>
</g>
<linearGradient id="SVGID_15_" gradientUnits="userSpaceOnUse" x1="344.2" y1="192.1823" x2="554.3" y2="192.1823" gradientTransform="matrix(1 0 0 -1 0 297.7323)">
	<stop  offset="0" style="stop-color:#000000"/>
	<stop  offset="1" style="stop-color:#FFFFFF"/>
</linearGradient>
<rect x="344.2" y="104.5" class="st20" width="210.1" height="2.2"/>
</svg>
